<svg xmlns="http://www.w3.org/2000/svg" xmlns:xlink="http://www.w3.org/1999/xlink" width="500" zoomAndPan="magnify" viewBox="0 0 375 374.999991" height="500" preserveAspectRatio="xMidYMid meet" version="1.0"><defs><g/><clipPath id="e1e2f09ae0"><path d="M 33.03125 147 L 339.78125 147 L 339.78125 294 L 33.03125 294 Z M 33.03125 147 " clip-rule="nonzero"/></clipPath><clipPath id="d094d7ca73"><path d="M 68 114.082031 L 155 114.082031 L 155 192 L 68 192 Z M 68 114.082031 " clip-rule="nonzero"/></clipPath><clipPath id="97756cf223"><path d="M 60 114.082031 L 161 114.082031 L 161 196 L 60 196 Z M 60 114.082031 " clip-rule="nonzero"/></clipPath><clipPath id="2c100ebf19"><path d="M 211 114.082031 L 311 114.082031 L 311 196 L 211 196 Z M 211 114.082031 " clip-rule="nonzero"/></clipPath><clipPath id="ab5ee4a3f1"><path d="M 217 114.082031 L 304 114.082031 L 304 192 L 217 192 Z M 217 114.082031 " clip-rule="nonzero"/></clipPath><clipPath id="e94a50f57c"><path d="M 84.652344 260.824219 L 113.855469 260.824219 L 113.855469 290.027344 L 84.652344 290.027344 Z M 84.652344 260.824219 " clip-rule="nonzero"/></clipPath><clipPath id="077e86395e"><path d="M 99.253906 260.824219 C 91.191406 260.824219 84.652344 267.363281 84.652344 275.425781 C 84.652344 283.488281 91.191406 290.027344 99.253906 290.027344 C 107.320312 290.027344 113.855469 283.488281 113.855469 275.425781 C 113.855469 267.363281 107.320312 260.824219 99.253906 260.824219 " clip-rule="nonzero"/></clipPath><clipPath id="508d3ad4c9"><path d="M 258.78125 260.824219 L 287.984375 260.824219 L 287.984375 290.027344 L 258.78125 290.027344 Z M 258.78125 260.824219 " clip-rule="nonzero"/></clipPath><clipPath id="703042ccb9"><path d="M 273.382812 260.824219 C 265.320312 260.824219 258.78125 267.363281 258.78125 275.425781 C 258.78125 283.488281 265.320312 290.027344 273.382812 290.027344 C 281.445312 290.027344 287.984375 283.488281 287.984375 275.425781 C 287.984375 267.363281 281.445312 260.824219 273.382812 260.824219 " clip-rule="nonzero"/></clipPath><clipPath id="b7e1ff90bc"><path d="M 12 218.277344 L 27 218.277344 L 27 244 L 12 244 Z M 12 218.277344 " clip-rule="nonzero"/></clipPath><clipPath id="2a82080bd0"><path d="M 4.359375 223 L 58 223 L 58 275 L 4.359375 275 Z M 4.359375 223 " clip-rule="nonzero"/></clipPath><clipPath id="3faec586b6"><path d="M 320 272 L 328 272 L 328 281 L 320 281 Z M 320 272 " clip-rule="nonzero"/></clipPath><clipPath id="50953ade9b"><path d="M 353.796875 209.492188 L 370.09375 265.679688 L 320.390625 280.09375 L 304.09375 223.910156 Z M 353.796875 209.492188 " clip-rule="nonzero"/></clipPath><clipPath id="d401da73a3"><path d="M 353.796875 209.492188 L 370.09375 265.679688 L 320.390625 280.09375 L 304.09375 223.910156 Z M 353.796875 209.492188 " clip-rule="nonzero"/></clipPath><clipPath id="5b31453be5"><path d="M 325 214 L 341 214 L 341 275 L 325 275 Z M 325 214 " clip-rule="nonzero"/></clipPath><clipPath id="ee1f3092d4"><path d="M 353.796875 209.492188 L 370.09375 265.679688 L 320.390625 280.09375 L 304.09375 223.910156 Z M 353.796875 209.492188 " clip-rule="nonzero"/></clipPath><clipPath id="9b63478d58"><path d="M 353.796875 209.492188 L 370.09375 265.679688 L 320.390625 280.09375 L 304.09375 223.910156 Z M 353.796875 209.492188 " clip-rule="nonzero"/></clipPath><clipPath id="0f36a704b2"><path d="M 332 228 L 360 228 L 360 270 L 332 270 Z M 332 228 " clip-rule="nonzero"/></clipPath><clipPath id="454bd859d9"><path d="M 353.796875 209.492188 L 370.09375 265.679688 L 320.390625 280.09375 L 304.09375 223.910156 Z M 353.796875 209.492188 " clip-rule="nonzero"/></clipPath><clipPath id="718dcea39e"><path d="M 353.796875 209.492188 L 370.09375 265.679688 L 320.390625 280.09375 L 304.09375 223.910156 Z M 353.796875 209.492188 " clip-rule="nonzero"/></clipPath><clipPath id="4cefdbbeae"><path d="M 338 225 L 359 225 L 359 255 L 338 255 Z M 338 225 " clip-rule="nonzero"/></clipPath><clipPath id="ec28e1120f"><path d="M 353.796875 209.492188 L 370.09375 265.679688 L 320.390625 280.09375 L 304.09375 223.910156 Z M 353.796875 209.492188 " clip-rule="nonzero"/></clipPath><clipPath id="4da877d424"><path d="M 353.796875 209.492188 L 370.09375 265.679688 L 320.390625 280.09375 L 304.09375 223.910156 Z M 353.796875 209.492188 " clip-rule="nonzero"/></clipPath><clipPath id="0e22d56530"><path d="M 334 217 L 338 217 L 338 221 L 334 221 Z M 334 217 " clip-rule="nonzero"/></clipPath><clipPath id="ab93092766"><path d="M 353.796875 209.492188 L 370.09375 265.679688 L 320.390625 280.09375 L 304.09375 223.910156 Z M 353.796875 209.492188 " clip-rule="nonzero"/></clipPath><clipPath id="bc25c9e269"><path d="M 353.796875 209.492188 L 370.09375 265.679688 L 320.390625 280.09375 L 304.09375 223.910156 Z M 353.796875 209.492188 " clip-rule="nonzero"/></clipPath><clipPath id="3a6af1809a"><path d="M 328 269 L 331 269 L 331 271 L 328 271 Z M 328 269 " clip-rule="nonzero"/></clipPath><clipPath id="76ce42c011"><path d="M 353.796875 209.492188 L 370.09375 265.679688 L 320.390625 280.09375 L 304.09375 223.910156 Z M 353.796875 209.492188 " clip-rule="nonzero"/></clipPath><clipPath id="e5089cc0db"><path d="M 353.796875 209.492188 L 370.09375 265.679688 L 320.390625 280.09375 L 304.09375 223.910156 Z M 353.796875 209.492188 " clip-rule="nonzero"/></clipPath><clipPath id="3b014710dc"><path d="M 350 228 L 356 228 L 356 236 L 350 236 Z M 350 228 " clip-rule="nonzero"/></clipPath><clipPath id="f8fa4d068b"><path d="M 353.796875 209.492188 L 370.09375 265.679688 L 320.390625 280.09375 L 304.09375 223.910156 Z M 353.796875 209.492188 " clip-rule="nonzero"/></clipPath><clipPath id="dc2a8e37d5"><path d="M 353.796875 209.492188 L 370.09375 265.679688 L 320.390625 280.09375 L 304.09375 223.910156 Z M 353.796875 209.492188 " clip-rule="nonzero"/></clipPath><clipPath id="cf035731b0"><path d="M 344 237 L 350 237 L 350 244 L 344 244 Z M 344 237 " clip-rule="nonzero"/></clipPath><clipPath id="970e8b3ca2"><path d="M 353.796875 209.492188 L 370.09375 265.679688 L 320.390625 280.09375 L 304.09375 223.910156 Z M 353.796875 209.492188 " clip-rule="nonzero"/></clipPath><clipPath id="6eeb57e591"><path d="M 353.796875 209.492188 L 370.09375 265.679688 L 320.390625 280.09375 L 304.09375 223.910156 Z M 353.796875 209.492188 " clip-rule="nonzero"/></clipPath></defs><g clip-path="url(#e1e2f09ae0)"><path stroke-linecap="butt" transform="matrix(1.807113, 0, 0, 1.808081, 1.453221, -5.751811)" fill="none" stroke-linejoin="miter" d="M 34.403925 127.177462 C 41.197825 123.701314 45.626937 129.422159 41.433439 135.12356 L 41.433439 153.180517 C 80.043885 124.425061 127.123469 130.199917 164.22512 152.45893 L 164.080293 135.12356 C 154.850274 129.337902 162.856829 120.508183 170.003069 127.901209 L 181.079092 120.339669 C 141.454857 88.948476 60.608966 90.838861 23.377619 120.579478 Z M 34.403925 127.177462 " stroke="#fefefe" stroke-width="2.218" stroke-opacity="1" stroke-miterlimit="4"/></g><g clip-path="url(#d094d7ca73)"><path stroke-linecap="butt" transform="matrix(1.807113, 0, 0, 1.808081, 1.453221, -5.751811)" fill="none" stroke-linejoin="miter" d="M 71.957351 69.800497 L 49.381631 69.126439 L 63.196398 96.419278 " stroke="#fefefe" stroke-width="2.218" stroke-opacity="1" stroke-miterlimit="4"/></g><g clip-path="url(#97756cf223)"><path stroke-linecap="butt" transform="matrix(1.807113, 0, 0, 1.808081, 1.453221, -5.751811)" fill="none" stroke-linejoin="miter" d="M 75.325119 77.549995 L 45.337283 77.212966 L 55.447072 98.776318 " stroke="#fefefe" stroke-width="2.218" stroke-opacity="1" stroke-miterlimit="4"/></g><g clip-path="url(#2c100ebf19)"><path stroke-linecap="butt" transform="matrix(1.807113, 0, 0, 1.808081, 1.453221, -5.751811)" fill="none" stroke-linejoin="miter" d="M 128.506891 77.549995 L 158.494726 77.212966 L 148.387099 98.776318 " stroke="#fefefe" stroke-width="2.218" stroke-opacity="1" stroke-miterlimit="4"/></g><g clip-path="url(#ab5ee4a3f1)"><path stroke-linecap="butt" transform="matrix(1.807113, 0, 0, 1.808081, 1.453221, -5.751811)" fill="none" stroke-linejoin="miter" d="M 132.155666 69.800497 L 154.731386 69.126439 L 140.916619 96.419278 " stroke="#fefefe" stroke-width="2.218" stroke-opacity="1" stroke-miterlimit="4"/></g><path stroke-linecap="butt" transform="matrix(1.807113, 0, 0, 1.808081, 1.453221, -5.751811)" fill="none" stroke-linejoin="miter" d="M 74.652862 143.253295 L 79.706676 154.710109 " stroke="#fefefe" stroke-width="2.218" stroke-opacity="1" stroke-miterlimit="4"/><path stroke-linecap="butt" transform="matrix(1.807113, 0, 0, 1.808081, 1.453221, -5.751811)" fill="none" stroke-linejoin="miter" d="M 129.23751 143.253295 L 123.846487 154.036051 " stroke="#fefefe" stroke-width="2.218" stroke-opacity="1" stroke-miterlimit="4"/><path stroke-linecap="butt" transform="matrix(1.807113, 0, 0, 1.808081, 1.453221, -5.751811)" fill="none" stroke-linejoin="miter" d="M 91.16314 182.339976 L 102.282395 205.925499 L 112.390023 183.014033 " stroke="#fefefe" stroke-width="2.218" stroke-opacity="1" stroke-miterlimit="4"/><path fill="#ffffff" d="M 151.652344 77.089844 L 146.496094 78.667969 C 153.3125 89.652344 149.144531 102.414062 147.347656 114.726562 L 151.023438 108.203125 C 148.578125 117.554688 146.175781 126.101562 148.714844 137.160156 C 150.324219 130.996094 151.480469 124.152344 154.9375 117.539062 C 153.789062 125.96875 151.800781 131.09375 155.40625 138.390625 C 163.746094 152.550781 185.90625 153.039062 188.078125 162.59375 C 189.761719 153.601562 182.410156 149.339844 178.390625 145.582031 C 184.105469 148.445312 188.121094 151.074219 192.78125 156.957031 C 197.957031 153.40625 203.40625 150.789062 206.148438 144.898438 C 206.667969 148.902344 206.53125 151.054688 204.070312 154.585938 C 212.402344 146.167969 217.144531 141.417969 215.914062 128.707031 C 218.101562 132.59375 218.945312 136.699219 219.675781 141.144531 C 220.738281 131.320312 221.175781 123.84375 216.9375 114.632812 C 225.648438 110.558594 229.242188 107.90625 230.941406 98.304688 C 225.269531 107.691406 222.328125 111.941406 212.472656 101.628906 L 218.183594 104.203125 C 214.191406 99.847656 211.726562 96 205.222656 94.761719 C 202.269531 97.976562 199.839844 98.761719 198.140625 95.105469 C 190.300781 96.796875 184.699219 99.945312 179.527344 106.691406 C 182.394531 106.554688 186.117188 100.335938 187.414062 104.121094 C 182.507812 112.1875 176.4375 110.945312 172.054688 100.261719 C 171.960938 105.277344 171.679688 108.667969 174.855469 112.867188 C 165.558594 108.789062 160.679688 103.769531 156.53125 95.433594 L 165.652344 103.363281 C 158.804688 95.808594 152.863281 87.84375 151.652344 77.089844 Z M 196.847656 104.839844 C 198.480469 104.824219 200.164062 104.925781 201.824219 105.078125 C 223.773438 109.492188 204.074219 131.121094 203.730469 111.839844 L 194.621094 112.550781 C 199.71875 118.199219 197.960938 120.863281 192.425781 121.710938 C 187.816406 122.054688 183.863281 118.972656 183.253906 116.355469 C 183.519531 107.121094 189.757812 104.910156 196.847656 104.839844 Z M 196.847656 104.839844 " fill-opacity="1" fill-rule="nonzero"/><path fill="#ffffff" d="M 168.777344 66.691406 L 169.265625 69.695312 C 159.132812 71.890625 150.890625 74.453125 141.773438 77.695312 C 148.878906 71.640625 160.433594 68.625 168.777344 66.691406 Z M 168.777344 66.691406 " fill-opacity="1" fill-rule="nonzero"/><path fill="#ffffff" d="M 184.765625 63.503906 C 179.902344 63.464844 174.960938 64.4375 169.453125 66.65625 L 170.089844 69.449219 C 174.957031 76.457031 167.183594 91.058594 188.222656 85.832031 C 198.351562 83.160156 197.527344 70.847656 201.773438 69.386719 C 205.429688 73.117188 203.425781 82.691406 208.605469 84.839844 C 218.90625 88.414062 226.300781 87.191406 226.957031 71.574219 L 229.171875 69.738281 L 229.269531 64.765625 C 225.785156 66.066406 215.757812 60.902344 206.40625 65.855469 L 199.578125 66.417969 C 194.398438 64.59375 189.625 63.542969 184.765625 63.503906 Z M 185.476562 65.097656 C 189.777344 65.09375 194.335938 66.410156 196.9375 68.867188 C 193.867188 68.785156 188.480469 68.976562 185.472656 70.28125 C 183.574219 71.804688 185.238281 75.054688 181.789062 75.683594 C 178.949219 76.199219 176.511719 76.214844 175.125 74.140625 C 173.441406 67.929688 179.191406 65.105469 185.476562 65.097656 Z M 214.378906 65.753906 C 218.996094 65.769531 223.171875 67.722656 225.425781 70.496094 L 222.515625 68.894531 C 214.8125 65.660156 209.328125 75.207031 207.003906 73.800781 C 204.871094 73.039062 205.679688 67.941406 211.128906 66.0625 C 212.222656 65.847656 213.3125 65.75 214.378906 65.753906 Z M 214.378906 65.753906 " fill-opacity="1" fill-rule="nonzero"/><path fill="#ffffff" d="M 143.742188 74.011719 L 151.269531 68.449219 C 152.609375 58.929688 155.769531 50.988281 160.453125 42.839844 C 158.09375 49.441406 157.09375 55.332031 158.152344 62.292969 C 158.609375 56.910156 160.140625 51.910156 162.976562 48.734375 C 164.4375 47.09375 166.246094 45.9375 168.429688 45.464844 C 169.703125 46.628906 169.644531 47.28125 169.546875 48.898438 C 178.542969 39.769531 165.703125 31.632812 161.925781 33.457031 C 170.832031 32.453125 180.113281 33.628906 189.507812 35.558594 C 184.773438 32.964844 179.722656 31.210938 179.066406 26.238281 C 185.371094 31.84375 194.78125 31.296875 203.460938 32.34375 C 199.402344 33.496094 195.671875 33.074219 191.582031 32.605469 C 200.957031 37.324219 216.53125 39.054688 217.832031 32.261719 C 215.695312 31.726562 214.382812 32.3125 213.71875 30.210938 C 217.644531 27.628906 220.441406 31.449219 219.878906 35.824219 C 226.230469 27.210938 210.3125 22.472656 204.566406 20.875 C 208.769531 20.527344 212.058594 21.679688 215.855469 23.179688 C 209.519531 15.859375 198.128906 16.523438 191.808594 16.105469 C 196.066406 15.601562 199.945312 15.039062 204.421875 16.503906 C 193.308594 9.199219 181.84375 15.753906 173.054688 20.03125 C 177.5625 15.554688 182.375 13.871094 188.296875 12.320312 C 167.199219 12.703125 148.707031 32.539062 145.367188 45.550781 C 147.148438 42.53125 149.132812 39.019531 151.792969 37.527344 C 143.074219 49.632812 142.105469 60.523438 143.742188 74.011719 Z M 143.742188 74.011719 " fill-opacity="1" fill-rule="nonzero"/><g clip-path="url(#e94a50f57c)"><g clip-path="url(#077e86395e)"><path fill="#ffffff" d="M 84.652344 260.824219 L 113.855469 260.824219 L 113.855469 290.027344 L 84.652344 290.027344 Z M 84.652344 260.824219 " fill-opacity="1" fill-rule="nonzero"/></g></g><g fill="#ffffff" fill-opacity="1"><g transform="translate(49.960829, 355.808504)"><g><path d="M 15.671875 -9.5625 L 1.84375 -1.125 L 1.578125 -1.5625 L 2.140625 -1.90625 C 3.191406 -2.550781 3.71875 -3.492188 3.71875 -4.734375 C 3.695312 -5.273438 3.550781 -5.804688 3.28125 -6.328125 L -11.546875 -30.65625 C -12.046875 -31.394531 -12.722656 -31.863281 -13.578125 -32.0625 C -14.429688 -32.257812 -15.238281 -32.128906 -16 -31.671875 L -16.5625 -31.328125 L -16.84375 -31.765625 L -4.15625 -39.5 C -0.769531 -41.5625 2.296875 -42.585938 5.046875 -42.578125 C 7.796875 -42.578125 9.957031 -41.316406 11.53125 -38.796875 C 12.289062 -37.484375 12.695312 -36.1875 12.75 -34.90625 C 12.894531 -32.519531 12.007812 -30.5625 10.09375 -29.03125 C 12.46875 -30.195312 14.832031 -30.488281 17.1875 -29.90625 C 19.550781 -29.320312 21.425781 -27.890625 22.8125 -25.609375 C 24.488281 -22.867188 24.671875 -20.085938 23.359375 -17.265625 C 22.054688 -14.453125 19.492188 -11.882812 15.671875 -9.5625 Z M 4.890625 -33.96875 C 2.335938 -38.0625 -0.785156 -38.976562 -4.484375 -36.71875 L -5.75 -35.953125 L 10.546875 -9.203125 L 12.5625 -10.421875 C 12.582031 -10.441406 12.609375 -10.457031 12.640625 -10.46875 C 14.648438 -11.695312 15.898438 -13.257812 16.390625 -15.15625 C 16.890625 -17.0625 16.410156 -19.207031 14.953125 -21.59375 C 13.492188 -23.988281 11.734375 -25.359375 9.671875 -25.703125 C 7.617188 -26.054688 5.523438 -25.582031 3.390625 -24.28125 L 3.140625 -24.671875 C 4.660156 -25.597656 5.628906 -26.859375 6.046875 -28.453125 C 6.472656 -30.054688 6.085938 -31.894531 4.890625 -33.96875 Z M 4.890625 -33.96875 "/></g></g></g><g fill="#ffffff" fill-opacity="1"><g transform="translate(77.680762, 338.65674)"><g><path d="M 34.5625 -15.359375 L 35 -15.546875 L 35.203125 -15.078125 L 20.171875 -8.640625 L 19.96875 -9.109375 L 20.390625 -9.296875 C 21.078125 -9.585938 21.492188 -10.015625 21.640625 -10.578125 C 21.796875 -11.140625 21.789062 -11.609375 21.625 -11.984375 C 21.46875 -12.367188 21.222656 -12.722656 20.890625 -13.046875 L 16.109375 -17.828125 L 5.09375 -13.109375 L 5.109375 -6.28125 C 5.128906 -5.789062 5.21875 -5.363281 5.375 -5 C 5.53125 -4.632812 5.867188 -4.316406 6.390625 -4.046875 C 6.921875 -3.773438 7.535156 -3.785156 8.234375 -4.078125 L 8.59375 -4.234375 L 8.796875 -3.765625 L -1.28125 0.546875 L -1.484375 0.078125 L -1.046875 -0.109375 C -0.328125 -0.410156 0.296875 -0.9375 0.828125 -1.6875 C 1.367188 -2.445312 1.6875 -3.363281 1.78125 -4.4375 L 2.09375 -33.765625 C 2.238281 -37.492188 2.144531 -39.878906 1.8125 -40.921875 L 2.25 -41.109375 L 29.390625 -16.375 C 30.253906 -15.675781 31.144531 -15.25 32.0625 -15.09375 C 32.976562 -14.945312 33.8125 -15.035156 34.5625 -15.359375 Z M 5.03125 -15.4375 L 14.46875 -19.46875 L 4.921875 -29.109375 Z M 5.03125 -15.4375 "/></g></g></g><g fill="#ffffff" fill-opacity="1"><g transform="translate(109.449562, 324.813309)"><g><path d="M 7.296875 -36.65625 L 5.171875 -36.09375 C 5.109375 -36.082031 5.054688 -36.070312 5.015625 -36.0625 L 12.546875 -7.140625 C 12.804688 -6.285156 13.320312 -5.628906 14.09375 -5.171875 C 14.863281 -4.722656 15.675781 -4.613281 16.53125 -4.84375 L 17.1875 -5 L 17.3125 -4.5 L 2.234375 -0.578125 L 2.109375 -1.078125 L 2.75 -1.25 C 3.9375 -1.5625 4.710938 -2.3125 5.078125 -3.5 C 5.222656 -4.019531 5.238281 -4.566406 5.125 -5.140625 L -2.046875 -32.6875 C -2.296875 -33.53125 -2.804688 -34.179688 -3.578125 -34.640625 C -4.347656 -35.097656 -5.164062 -35.210938 -6.03125 -34.984375 L -6.671875 -34.8125 L -6.796875 -35.3125 L 10.21875 -39.75 C 13.425781 -40.582031 16.316406 -40.585938 18.890625 -39.765625 C 20.203125 -39.367188 21.347656 -38.632812 22.328125 -37.5625 C 23.316406 -36.5 24.070312 -34.960938 24.59375 -32.953125 C 25.113281 -30.953125 24.914062 -28.84375 24 -26.625 C 23.09375 -24.414062 21.351562 -22.835938 18.78125 -21.890625 C 20.851562 -21.765625 22.914062 -20.742188 24.96875 -18.828125 C 30.03125 -14.046875 33.5625 -11.332031 35.5625 -10.6875 C 36.570312 -10.382812 37.726562 -10.382812 39.03125 -10.6875 L 39.15625 -10.1875 L 34.28125 -8.921875 C 31.40625 -8.171875 28.914062 -7.925781 26.8125 -8.1875 C 24.707031 -8.457031 22.863281 -9.410156 21.28125 -11.046875 C 20.375 -11.972656 18.269531 -14.441406 14.96875 -18.453125 C 13.507812 -20.222656 12.09375 -21.039062 10.71875 -20.90625 L 10.59375 -21.40625 L 12.109375 -21.8125 C 13.609375 -22.195312 14.8125 -22.984375 15.71875 -24.171875 C 16.625 -25.359375 17.015625 -27.015625 16.890625 -29.140625 C 16.847656 -29.859375 16.773438 -30.421875 16.671875 -30.828125 C 15.960938 -33.535156 14.90625 -35.347656 13.5 -36.265625 C 12.09375 -37.191406 10.523438 -37.453125 8.796875 -37.046875 C 8.460938 -36.953125 7.960938 -36.820312 7.296875 -36.65625 Z M 7.296875 -36.65625 "/></g></g></g><g fill="#ffffff" fill-opacity="1"><g transform="translate(144.560536, 315.664486)"><g><path d="M 18.25 -1.984375 L 2.140625 -0.234375 L 2.078125 -0.75 L 2.734375 -0.828125 C 3.960938 -0.953125 4.84375 -1.578125 5.375 -2.703125 C 5.59375 -3.203125 5.6875 -3.742188 5.65625 -4.328125 L 2.578125 -32.65625 C 2.441406 -33.539062 2.023438 -34.253906 1.328125 -34.796875 C 0.628906 -35.347656 -0.160156 -35.578125 -1.046875 -35.484375 L -1.703125 -35.40625 L -1.75 -35.90625 L 13.03125 -37.515625 C 16.96875 -37.941406 20.175781 -37.566406 22.65625 -36.390625 C 25.144531 -35.222656 26.570312 -33.171875 26.9375 -30.234375 C 27.050781 -28.722656 26.863281 -27.375 26.375 -26.1875 C 25.488281 -23.957031 23.851562 -22.5625 21.46875 -22 C 24.125 -22.039062 26.394531 -21.296875 28.28125 -19.765625 C 30.164062 -18.242188 31.253906 -16.15625 31.546875 -13.5 C 31.890625 -10.300781 30.867188 -7.703125 28.484375 -5.703125 C 26.109375 -3.710938 22.695312 -2.472656 18.25 -1.984375 Z M 18.84375 -28.671875 C 18.28125 -33.453125 15.84375 -35.609375 11.53125 -35.140625 L 10.0625 -34.984375 L 13.46875 -3.84375 L 15.8125 -4.09375 C 15.84375 -4.101562 15.875 -4.109375 15.90625 -4.109375 C 18.25 -4.359375 20.039062 -5.238281 21.28125 -6.75 C 22.53125 -8.269531 23.003906 -10.421875 22.703125 -13.203125 C 22.398438 -15.984375 21.390625 -17.96875 19.671875 -19.15625 C 17.960938 -20.351562 15.863281 -20.816406 13.375 -20.546875 L 13.328125 -21.015625 C 15.097656 -21.203125 16.515625 -21.925781 17.578125 -23.1875 C 18.640625 -24.445312 19.0625 -26.273438 18.84375 -28.671875 Z M 18.84375 -28.671875 "/></g></g></g><g fill="#ffffff" fill-opacity="1"><g transform="translate(177.060932, 312.066286)"><g><path d="M 2.828125 -0.4375 C 3.722656 -0.414062 4.492188 -0.710938 5.140625 -1.328125 C 5.785156 -1.941406 6.132812 -2.695312 6.1875 -3.59375 L 6.90625 -32.125 C 6.863281 -33.007812 6.625 -33.664062 6.1875 -34.09375 C 5.382812 -34.863281 4.554688 -35.257812 3.703125 -35.28125 L 3.046875 -35.3125 L 3.0625 -35.828125 L 22.6875 -35.328125 C 24.363281 -35.285156 25.75 -35.375 26.84375 -35.59375 C 27.9375 -35.820312 28.601562 -35.988281 28.84375 -36.09375 L 28.625 -27.125 L 28.109375 -27.1875 L 28.125 -27.75 C 28.175781 -29.863281 27.425781 -31.390625 25.875 -32.328125 C 25.144531 -32.773438 24.269531 -33.035156 23.25 -33.109375 L 14.640625 -33.328125 L 14.265625 -18.421875 L 21.03125 -18.25 C 22.289062 -18.25 23.335938 -18.65625 24.171875 -19.46875 C 25.015625 -20.289062 25.453125 -21.316406 25.484375 -22.546875 L 25.5 -23.015625 L 26 -23 L 25.703125 -11.15625 L 25.203125 -11.171875 L 25.21875 -11.578125 C 25.25 -12.835938 24.875 -13.890625 24.09375 -14.734375 C 23.3125 -15.578125 22.304688 -16.03125 21.078125 -16.09375 L 14.21875 -16.265625 L 13.859375 -1.859375 L 20.5625 -1.6875 C 23.0625 -1.625 25.171875 -2.289062 26.890625 -3.6875 C 28.617188 -5.082031 29.921875 -7.082031 30.796875 -9.6875 L 31.3125 -9.671875 L 28.6875 0.71875 L 2.15625 0.046875 L 2.171875 -0.46875 Z M 2.828125 -0.4375 "/></g></g></g><g fill="#ffffff" fill-opacity="1"><g transform="translate(207.512211, 312.552628)"><g><path d="M 37.40625 5.640625 L 37.859375 5.71875 L 37.78125 6.234375 L 21.640625 3.578125 L 21.71875 3.0625 L 22.1875 3.125 C 22.925781 3.25 23.507812 3.113281 23.9375 2.71875 C 24.375 2.332031 24.625 1.9375 24.6875 1.53125 C 24.757812 1.125 24.738281 0.703125 24.625 0.265625 L 23.171875 -6.359375 L 11.359375 -8.296875 L 7.6875 -2.53125 C 7.445312 -2.113281 7.296875 -1.707031 7.234375 -1.3125 C 7.171875 -0.925781 7.285156 -0.476562 7.578125 0.03125 C 7.867188 0.539062 8.382812 0.859375 9.125 0.984375 L 9.53125 1.046875 L 9.453125 1.5625 L -1.375 -0.21875 L -1.296875 -0.734375 L -0.828125 -0.671875 C -0.0546875 -0.535156 0.753906 -0.640625 1.609375 -0.984375 C 2.460938 -1.328125 3.21875 -1.929688 3.875 -2.796875 L 19.9375 -27.3125 C 22.0625 -30.382812 23.269531 -32.453125 23.5625 -33.515625 L 24.015625 -33.4375 L 33.578125 2.015625 C 33.929688 3.078125 34.453125 3.910156 35.140625 4.515625 C 35.835938 5.128906 36.59375 5.503906 37.40625 5.640625 Z M 12.546875 -10.296875 L 22.671875 -8.640625 L 19.8125 -21.875 Z M 12.546875 -10.296875 "/></g></g></g><g fill="#ffffff" fill-opacity="1"><g transform="translate(241.738463, 317.981493)"><g><path d="M 25.875 -26.953125 L 23.78125 -27.640625 C 23.71875 -27.660156 23.664062 -27.675781 23.625 -27.6875 L 14.40625 0.734375 C 14.175781 1.597656 14.257812 2.425781 14.65625 3.21875 C 15.0625 4.019531 15.6875 4.554688 16.53125 4.828125 L 17.171875 5.03125 L 17.015625 5.515625 L 2.203125 0.71875 L 2.359375 0.234375 L 2.984375 0.4375 C 4.148438 0.8125 5.210938 0.59375 6.171875 -0.21875 C 6.578125 -0.570312 6.878906 -1.023438 7.078125 -1.578125 L 15.859375 -28.65625 C 16.109375 -29.488281 16.03125 -30.304688 15.625 -31.109375 C 15.226562 -31.910156 14.601562 -32.445312 13.75 -32.71875 L 13.125 -32.921875 L 13.28125 -33.421875 L 30 -28 C 33.144531 -26.976562 35.585938 -25.429688 37.328125 -23.359375 C 38.210938 -22.316406 38.78125 -21.078125 39.03125 -19.640625 C 39.289062 -18.210938 39.101562 -16.515625 38.46875 -14.546875 C 37.832031 -12.578125 36.53125 -10.898438 34.5625 -9.515625 C 32.601562 -8.140625 30.285156 -7.75 27.609375 -8.34375 C 29.296875 -7.125 30.488281 -5.15625 31.1875 -2.4375 C 32.875 4.320312 34.382812 8.507812 35.71875 10.125 C 36.40625 10.925781 37.378906 11.550781 38.640625 12 L 38.484375 12.484375 L 33.6875 10.9375 C 30.863281 10.019531 28.640625 8.878906 27.015625 7.515625 C 25.390625 6.160156 24.34375 4.375 23.875 2.15625 C 23.613281 0.882812 23.164062 -2.332031 22.53125 -7.5 C 22.269531 -9.78125 21.519531 -11.226562 20.28125 -11.84375 L 20.4375 -12.34375 L 21.9375 -11.859375 C 23.40625 -11.378906 24.84375 -11.394531 26.25 -11.90625 C 27.65625 -12.425781 28.878906 -13.609375 29.921875 -15.453125 C 30.265625 -16.097656 30.5 -16.617188 30.625 -17.015625 C 31.488281 -19.679688 31.578125 -21.78125 30.890625 -23.3125 C 30.203125 -24.84375 29.019531 -25.898438 27.34375 -26.484375 C 27.019531 -26.585938 26.53125 -26.742188 25.875 -26.953125 Z M 25.875 -26.953125 "/></g></g></g><g fill="#ffffff" fill-opacity="1"><g transform="translate(276.460677, 329.712455)"><g><path d="M 2.78125 0.703125 C 3.59375 1.078125 4.414062 1.109375 5.25 0.796875 C 6.082031 0.484375 6.695312 -0.0664062 7.09375 -0.859375 L 18.953125 -26.703125 C 19.304688 -27.546875 19.320312 -28.375 19 -29.1875 C 18.6875 -30.007812 18.125 -30.609375 17.3125 -30.984375 L 16.703125 -31.25 L 16.921875 -31.71875 L 31.09375 -25.234375 L 30.828125 -24.78125 L 30.265625 -25.03125 C 29.453125 -25.40625 28.625 -25.445312 27.78125 -25.15625 C 26.945312 -24.875 26.34375 -24.320312 25.96875 -23.5 L 14.109375 2.34375 C 13.734375 3.15625 13.707031 3.984375 14.03125 4.828125 C 14.351562 5.671875 14.921875 6.28125 15.734375 6.65625 L 16.296875 6.90625 L 16.125 7.390625 L 1.953125 0.90625 L 2.171875 0.4375 Z M 2.78125 0.703125 "/></g></g></g><g fill="#ffffff" fill-opacity="1"><g transform="translate(293.27657, 336.800303)"><g><path d="M 32.65625 19.109375 L 33.046875 19.359375 L 32.78125 19.796875 L 18.78125 11.34375 L 19.046875 10.90625 L 19.453125 11.140625 C 20.085938 11.523438 20.675781 11.613281 21.21875 11.40625 C 21.769531 11.195312 22.148438 10.914062 22.359375 10.5625 C 22.566406 10.21875 22.707031 9.820312 22.78125 9.375 L 23.875 2.6875 L 13.609375 -3.5 L 8.078125 0.5 C 7.703125 0.789062 7.410156 1.101562 7.203125 1.4375 C 7.003906 1.78125 6.945312 2.242188 7.03125 2.828125 C 7.113281 3.421875 7.476562 3.910156 8.125 4.296875 L 8.46875 4.515625 L 8.203125 4.953125 L -1.1875 -0.71875 L -0.921875 -1.15625 L -0.53125 -0.90625 C 0.144531 -0.507812 0.941406 -0.3125 1.859375 -0.3125 C 2.785156 -0.320312 3.710938 -0.601562 4.640625 -1.15625 L 28.640625 -18 C 31.753906 -20.050781 33.640625 -21.519531 34.296875 -22.40625 L 34.703125 -22.15625 L 30.453125 14.3125 C 30.378906 15.414062 30.550781 16.382812 30.96875 17.21875 C 31.382812 18.050781 31.945312 18.679688 32.65625 19.109375 Z M 15.46875 -4.921875 L 24.265625 0.390625 L 26.515625 -12.96875 Z M 15.46875 -4.921875 "/></g></g></g><g clip-path="url(#508d3ad4c9)"><g clip-path="url(#703042ccb9)"><path fill="#ffffff" d="M 258.78125 260.824219 L 287.984375 260.824219 L 287.984375 290.027344 L 258.78125 290.027344 Z M 258.78125 260.824219 " fill-opacity="1" fill-rule="nonzero"/></g></g><path fill="#ffffff" d="M 51.761719 268.082031 L 48.132812 268.84375 C 48.53125 268.984375 48.953125 269.042969 49.394531 269.042969 C 49.675781 269.042969 49.957031 269.003906 50.238281 268.925781 C 50.820312 268.765625 51.339844 268.464844 51.761719 268.082031 Z M 51.761719 268.082031 " fill-opacity="1" fill-rule="nonzero"/><path fill="#ffffff" d="M 50.796875 262.117188 L 46.628906 262.976562 C 46.367188 263.257812 46.167969 263.597656 46.007812 263.9375 L 51.78125 262.738281 C 51.480469 262.496094 51.160156 262.277344 50.796875 262.117188 Z M 50.796875 262.117188 " fill-opacity="1" fill-rule="nonzero"/><path fill="#ffffff" d="M 48.390625 261.914062 C 48.390625 261.914062 48.371094 261.914062 48.371094 261.914062 L 48.8125 261.816406 C 48.671875 261.855469 48.53125 261.875 48.390625 261.914062 Z M 48.390625 261.914062 " fill-opacity="1" fill-rule="nonzero"/><path fill="#ffffff" d="M 47.167969 268.324219 L 52.441406 267.242188 C 52.601562 266.960938 52.742188 266.640625 52.824219 266.320312 L 46.726562 267.582031 C 46.527344 267.621094 46.347656 267.523438 46.308594 267.363281 L 46.285156 267.300781 C 46.246094 267.140625 46.386719 266.960938 46.585938 266.921875 L 52.945312 265.601562 C 52.945312 265.519531 52.945312 265.421875 52.945312 265.339844 C 52.945312 265.140625 52.925781 264.960938 52.882812 264.777344 L 46.425781 266.121094 C 46.226562 266.160156 46.046875 266.0625 46.007812 265.902344 L 45.984375 265.839844 C 45.945312 265.679688 46.085938 265.5 46.285156 265.460938 L 52.703125 264.136719 C 52.601562 263.878906 52.460938 263.617188 52.300781 263.378906 L 46.125 264.660156 C 46.007812 264.679688 45.886719 264.660156 45.804688 264.597656 C 45.726562 264.898438 45.707031 265.199219 45.707031 265.519531 C 45.726562 266.480469 46.125 267.382812 46.828125 268.042969 C 46.929688 268.144531 47.046875 268.242188 47.167969 268.324219 Z M 47.167969 268.324219 " fill-opacity="1" fill-rule="nonzero"/><path fill="#ffffff" d="M 55.832031 279.476562 L 49.453125 280.796875 C 49.253906 280.839844 49.074219 280.738281 49.035156 280.578125 C 48.992188 280.417969 49.132812 280.238281 49.335938 280.199219 L 56.394531 278.734375 L 56.234375 277.933594 L 49.175781 279.398438 C 48.972656 279.4375 48.792969 279.335938 48.753906 279.175781 L 48.734375 279.117188 C 48.691406 278.957031 48.832031 278.777344 49.035156 278.734375 L 56.09375 277.273438 L 55.933594 276.472656 L 48.875 277.933594 C 48.671875 277.976562 48.492188 277.875 48.453125 277.714844 L 48.433594 277.65625 C 48.390625 277.496094 48.53125 277.3125 48.734375 277.273438 L 55.792969 275.8125 L 55.710938 275.390625 C 55.550781 275.292969 55.390625 275.191406 55.25 275.089844 L 48.574219 276.472656 C 48.371094 276.511719 48.191406 276.414062 48.152344 276.253906 L 48.132812 276.191406 C 48.089844 276.03125 48.230469 275.851562 48.433594 275.8125 L 54.609375 274.53125 C 54.488281 274.410156 54.347656 274.289062 54.246094 274.152344 C 54.148438 274.03125 54.027344 273.929688 53.886719 273.832031 L 48.273438 274.992188 C 48.070312 275.03125 47.890625 274.929688 47.851562 274.769531 L 47.832031 274.710938 C 47.789062 274.550781 47.929688 274.371094 48.132812 274.332031 L 52.863281 273.351562 C 52.441406 273.25 52 273.25 51.601562 273.351562 C 51.601562 273.351562 51.480469 273.390625 51.441406 273.390625 C 50.738281 273.570312 49.996094 273.671875 49.273438 273.648438 C 48.792969 273.648438 48.332031 273.589844 47.871094 273.511719 C 47.832031 273.511719 47.8125 273.511719 47.769531 273.488281 C 44.300781 272.808594 41.574219 269.964844 41.171875 266.359375 L 41.152344 266.261719 C 40.972656 264.480469 40.292969 262.835938 39.230469 261.515625 L 42.859375 278.9375 C 43.460938 281.78125 46.847656 283.402344 50.175781 282.421875 L 56.191406 280.636719 C 56.535156 280.539062 56.753906 280.238281 56.695312 279.9375 C 56.574219 279.597656 56.210938 279.398438 55.832031 279.476562 Z M 55.832031 279.476562 " fill-opacity="1" fill-rule="nonzero"/><path fill="#ffffff" d="M 52.023438 257.652344 L 51.941406 257.269531 L 51.21875 257.429688 C 51.480469 257.492188 51.761719 257.570312 52.023438 257.652344 Z M 52.023438 257.652344 " fill-opacity="1" fill-rule="nonzero"/><path fill="#ffffff" d="M 37.464844 253.226562 L 39.429688 255.148438 C 41.574219 257.25 44.5625 258.089844 47.410156 257.429688 C 47.871094 257.332031 48.332031 257.25 48.792969 257.230469 L 51.78125 256.609375 L 51.621094 255.808594 L 44.5625 257.269531 C 44.363281 257.308594 44.179688 257.210938 44.140625 257.050781 L 44.121094 256.988281 C 44.082031 256.828125 44.222656 256.648438 44.421875 256.609375 L 51.480469 255.148438 L 51.320312 254.347656 L 44.261719 255.808594 C 44.0625 255.847656 43.878906 255.75 43.839844 255.589844 L 43.820312 255.527344 C 43.78125 255.367188 43.921875 255.1875 44.121094 255.148438 L 51.179688 253.6875 L 51.019531 252.886719 L 43.960938 254.347656 C 43.761719 254.386719 43.578125 254.285156 43.539062 254.125 C 43.5 253.964844 43.640625 253.785156 43.839844 253.746094 L 50.65625 252.324219 C 50.796875 252.304688 50.878906 252.183594 50.859375 252.082031 C 50.839844 251.984375 50.71875 251.902344 50.578125 251.921875 L 43.660156 253.367188 C 43.519531 253.40625 43.378906 253.324219 43.359375 253.207031 L 43.359375 253.183594 C 43.339844 253.066406 43.4375 252.945312 43.578125 252.90625 L 50.496094 251.464844 C 50.636719 251.441406 50.71875 251.324219 50.699219 251.222656 C 50.679688 251.121094 50.558594 251.042969 50.417969 251.0625 L 43.5 252.503906 C 43.359375 252.542969 43.21875 252.464844 43.199219 252.34375 L 43.199219 252.324219 C 43.179688 252.203125 43.277344 252.082031 43.417969 252.042969 L 50.335938 250.601562 C 50.476562 250.582031 50.558594 250.460938 50.539062 250.363281 C 50.519531 250.261719 50.398438 250.179688 50.257812 250.203125 L 43.339844 251.644531 C 43.199219 251.683594 43.058594 251.601562 43.039062 251.484375 L 43.039062 251.464844 C 43.019531 251.34375 43.117188 251.222656 43.257812 251.183594 L 50.175781 249.742188 C 50.316406 249.722656 50.398438 249.601562 50.378906 249.5 C 50.355469 249.378906 50.238281 249.320312 50.097656 249.339844 L 43.179688 250.78125 C 43.039062 250.824219 42.898438 250.742188 42.878906 250.621094 L 42.878906 250.601562 C 42.859375 250.480469 42.957031 250.363281 43.097656 250.320312 L 50.015625 248.878906 C 50.15625 248.859375 50.238281 248.738281 50.21875 248.640625 C 50.195312 248.519531 50.078125 248.460938 49.9375 248.480469 L 43.019531 249.921875 C 42.878906 249.960938 42.738281 249.882812 42.71875 249.761719 L 42.71875 249.742188 C 42.699219 249.621094 42.796875 249.5 42.9375 249.460938 L 49.855469 248.019531 C 49.996094 248 50.078125 247.878906 50.054688 247.777344 C 50.035156 247.660156 49.917969 247.597656 49.777344 247.617188 L 42.859375 249.058594 C 42.71875 249.101562 42.578125 249.019531 42.558594 248.898438 L 42.558594 248.878906 C 42.539062 248.761719 42.636719 248.640625 42.777344 248.601562 L 49.695312 247.15625 C 49.835938 247.136719 49.917969 247.019531 49.894531 246.917969 C 49.875 246.796875 49.753906 246.738281 49.617188 246.757812 L 42.699219 248.199219 C 42.558594 248.238281 42.417969 248.160156 42.398438 248.039062 L 42.398438 248.019531 C 42.375 247.898438 42.476562 247.777344 42.617188 247.738281 L 49.535156 246.296875 C 49.675781 246.277344 49.753906 246.15625 49.734375 246.054688 C 49.714844 245.9375 49.59375 245.875 49.453125 245.894531 L 42.539062 247.339844 C 42.398438 247.378906 42.257812 247.296875 42.238281 247.179688 L 42.238281 247.15625 C 42.214844 247.039062 42.316406 246.917969 42.457031 246.878906 L 49.375 245.4375 C 49.515625 245.414062 49.59375 245.296875 49.574219 245.195312 C 49.554688 245.074219 49.433594 245.015625 49.292969 245.035156 L 42.375 246.476562 C 42.238281 246.515625 42.097656 246.4375 42.074219 246.316406 L 42.074219 246.296875 C 42.054688 246.175781 42.15625 246.054688 42.296875 246.015625 L 49.214844 244.574219 C 49.355469 244.554688 49.433594 244.433594 49.414062 244.335938 C 49.394531 244.214844 49.273438 244.15625 49.132812 244.175781 L 42.214844 245.617188 C 42.074219 245.65625 41.9375 245.574219 41.914062 245.457031 L 41.914062 245.4375 C 41.894531 245.316406 41.996094 245.195312 42.136719 245.15625 L 49.054688 243.714844 C 49.195312 243.695312 49.273438 243.574219 49.253906 243.472656 C 49.234375 243.351562 49.113281 243.292969 48.972656 243.3125 L 42.054688 244.753906 C 41.914062 244.796875 41.773438 244.714844 41.753906 244.59375 L 41.753906 244.574219 C 41.734375 244.453125 41.835938 244.335938 41.976562 244.292969 L 48.894531 242.851562 C 49.035156 242.832031 49.113281 242.710938 49.09375 242.613281 C 49.074219 242.511719 48.953125 242.433594 48.8125 242.453125 L 41.894531 243.894531 C 41.753906 243.933594 41.613281 243.855469 41.59375 243.734375 L 41.59375 243.714844 C 41.574219 243.59375 41.675781 243.472656 41.816406 243.433594 L 48.734375 241.992188 C 48.875 241.972656 48.953125 241.851562 48.933594 241.75 C 48.914062 241.632812 48.792969 241.570312 48.652344 241.589844 L 41.734375 243.03125 C 41.59375 243.074219 41.453125 242.992188 41.433594 242.871094 L 41.433594 242.851562 C 41.414062 242.734375 41.515625 242.613281 41.65625 242.574219 L 48.574219 241.128906 C 48.714844 241.109375 48.792969 240.992188 48.773438 240.890625 C 48.753906 240.769531 48.632812 240.710938 48.492188 240.730469 L 41.574219 242.171875 C 41.433594 242.210938 41.292969 242.132812 41.273438 242.011719 L 41.273438 241.992188 C 41.253906 241.871094 41.355469 241.75 41.496094 241.710938 L 48.414062 240.269531 C 48.554688 240.25 48.632812 240.128906 48.613281 240.03125 C 48.59375 239.929688 48.472656 239.847656 48.332031 239.867188 L 41.414062 241.3125 C 41.273438 241.351562 41.132812 241.269531 41.113281 241.152344 L 41.113281 241.128906 C 41.09375 241.011719 41.195312 240.890625 41.335938 240.851562 L 48.253906 239.410156 C 48.390625 239.386719 48.472656 239.269531 48.453125 239.167969 C 48.433594 239.046875 48.3125 238.988281 48.171875 239.007812 L 41.253906 240.449219 C 41.113281 240.488281 40.972656 240.410156 40.953125 240.289062 L 40.953125 240.269531 C 40.933594 240.148438 41.035156 240.03125 41.171875 239.988281 L 48.089844 238.546875 C 48.230469 238.527344 48.3125 238.40625 48.292969 238.308594 C 48.273438 238.1875 48.152344 238.128906 48.011719 238.148438 L 41.09375 239.589844 C 40.953125 239.628906 40.8125 239.546875 40.792969 239.429688 L 40.792969 239.410156 C 40.773438 239.289062 40.871094 239.167969 41.011719 239.128906 L 47.929688 237.6875 C 48.070312 237.667969 48.152344 237.546875 48.132812 237.445312 C 48.113281 237.324219 47.992188 237.265625 47.851562 237.285156 L 40.933594 238.726562 C 40.792969 238.769531 40.652344 238.6875 40.632812 238.566406 L 40.632812 238.546875 C 40.613281 238.425781 40.710938 238.308594 40.851562 238.265625 L 47.769531 236.824219 C 47.910156 236.804688 47.992188 236.683594 47.972656 236.585938 C 47.953125 236.464844 47.832031 236.40625 47.691406 236.425781 L 40.773438 237.867188 C 40.632812 237.90625 40.492188 237.828125 40.472656 237.707031 L 40.472656 237.6875 C 40.453125 237.566406 40.550781 237.445312 40.691406 237.40625 L 47.609375 235.964844 C 47.75 235.945312 47.832031 235.824219 47.8125 235.722656 C 47.789062 235.605469 47.671875 235.542969 47.53125 235.5625 L 40.613281 237.003906 C 40.472656 237.046875 40.332031 236.964844 40.3125 236.84375 L 40.3125 236.824219 C 40.292969 236.707031 40.390625 236.585938 40.53125 236.546875 L 47.449219 235.101562 C 47.589844 235.082031 47.671875 234.964844 47.652344 234.863281 C 47.628906 234.742188 47.511719 234.683594 47.371094 234.703125 L 40.453125 236.144531 C 40.3125 236.183594 40.171875 236.105469 40.152344 235.984375 L 40.152344 235.964844 C 40.132812 235.84375 40.230469 235.722656 40.371094 235.683594 L 47.289062 234.242188 C 47.429688 234.222656 47.511719 234.101562 47.488281 234.003906 C 47.46875 233.882812 47.351562 233.820312 47.210938 233.84375 L 40.292969 235.285156 C 40.152344 235.324219 40.011719 235.242188 39.992188 235.125 L 39.992188 235.101562 C 39.96875 234.984375 40.070312 234.863281 40.210938 234.824219 L 47.128906 233.382812 C 47.269531 233.359375 47.351562 233.242188 47.328125 233.140625 C 47.308594 233.039062 47.1875 232.960938 47.050781 232.980469 L 40.132812 234.421875 C 39.992188 234.460938 39.851562 234.382812 39.832031 234.261719 L 39.832031 234.242188 C 39.808594 234.121094 39.910156 234.003906 40.050781 233.960938 L 46.96875 232.519531 C 47.109375 232.5 47.1875 232.378906 47.167969 232.28125 C 47.148438 232.160156 47.027344 232.101562 46.886719 232.121094 L 39.96875 233.5625 C 39.832031 233.601562 39.691406 233.519531 39.667969 233.402344 L 39.667969 233.382812 C 39.648438 233.261719 39.75 233.140625 39.890625 233.101562 L 46.808594 231.660156 C 46.949219 231.640625 47.027344 231.519531 47.007812 231.417969 C 46.988281 231.296875 46.867188 231.238281 46.726562 231.257812 L 39.808594 232.699219 C 39.667969 232.742188 39.53125 232.660156 39.507812 232.539062 L 39.507812 232.519531 C 39.488281 232.398438 39.589844 232.28125 39.730469 232.238281 L 46.648438 230.796875 C 46.789062 230.777344 46.867188 230.65625 46.847656 230.558594 C 46.828125 230.457031 46.707031 230.378906 46.566406 230.398438 L 39.648438 231.839844 C 39.507812 231.878906 39.367188 231.800781 39.347656 231.679688 L 39.347656 231.660156 C 39.328125 231.539062 39.429688 231.417969 39.570312 231.378906 L 46.488281 229.9375 C 46.628906 229.917969 46.707031 229.796875 46.6875 229.695312 C 46.667969 229.578125 46.546875 229.515625 46.40625 229.535156 L 39.488281 230.976562 C 39.347656 231.019531 39.207031 230.9375 39.1875 230.816406 L 39.1875 230.796875 C 39.167969 230.679688 39.269531 230.558594 39.410156 230.519531 L 46.328125 229.074219 C 46.46875 229.054688 46.546875 228.9375 46.527344 228.835938 C 46.507812 228.714844 46.386719 228.65625 46.246094 228.675781 L 39.328125 230.117188 C 39.1875 230.15625 39.046875 230.078125 39.027344 229.957031 L 39.027344 229.9375 C 39.007812 229.816406 39.109375 229.695312 39.25 229.65625 L 46.167969 228.214844 C 46.308594 228.195312 46.386719 228.074219 46.367188 227.976562 C 46.347656 227.855469 46.226562 227.792969 46.085938 227.816406 L 39.167969 229.257812 C 39.027344 229.296875 38.886719 229.214844 38.867188 229.097656 L 38.867188 229.074219 C 38.847656 228.957031 38.949219 228.835938 39.089844 228.796875 L 46.007812 227.355469 C 46.148438 227.332031 46.226562 227.214844 46.207031 227.113281 C 46.1875 226.992188 46.066406 226.933594 45.925781 226.953125 L 39.007812 228.394531 C 38.867188 228.433594 38.726562 228.355469 38.707031 228.234375 L 38.707031 228.214844 C 38.6875 228.09375 38.789062 227.976562 38.929688 227.933594 L 45.847656 226.492188 C 45.984375 226.472656 46.066406 226.351562 46.046875 226.253906 C 46.027344 226.132812 45.90625 226.074219 45.765625 226.09375 L 38.847656 227.535156 C 38.707031 227.574219 38.566406 227.496094 38.546875 227.375 L 38.546875 227.355469 C 38.527344 227.234375 38.628906 227.113281 38.765625 227.074219 L 45.683594 225.632812 C 45.824219 225.613281 45.90625 225.492188 45.886719 225.390625 C 45.867188 225.292969 45.746094 225.210938 45.605469 225.230469 L 38.6875 226.671875 C 38.546875 226.714844 38.40625 226.632812 38.386719 226.511719 L 38.386719 226.492188 C 38.367188 226.371094 38.464844 226.253906 38.605469 226.210938 L 45.523438 224.769531 C 45.664062 224.75 45.746094 224.628906 45.726562 224.53125 C 45.707031 224.410156 45.585938 224.351562 45.445312 224.371094 L 38.527344 225.8125 C 38.386719 225.851562 38.246094 225.773438 38.226562 225.652344 L 38.226562 225.632812 C 38.207031 225.511719 38.304688 225.390625 38.445312 225.351562 L 45.363281 223.910156 C 45.503906 223.890625 45.585938 223.769531 45.566406 223.667969 C 45.546875 223.570312 45.425781 223.488281 45.285156 223.507812 L 38.367188 224.949219 C 38.226562 224.992188 38.085938 224.910156 38.066406 224.789062 L 38.066406 224.769531 C 38.046875 224.652344 38.144531 224.53125 38.285156 224.492188 L 45.203125 223.046875 C 45.34375 223.027344 45.425781 222.910156 45.40625 222.808594 C 45.382812 222.707031 45.265625 222.628906 45.125 222.648438 L 38.207031 224.089844 C 38.066406 224.128906 37.925781 224.050781 37.90625 223.929688 L 37.90625 223.910156 C 37.886719 223.789062 37.984375 223.667969 38.125 223.628906 L 45.042969 222.1875 C 45.183594 222.167969 45.265625 222.046875 45.246094 221.949219 C 45.222656 221.828125 45.105469 221.765625 44.964844 221.789062 L 38.046875 223.230469 C 37.90625 223.269531 37.765625 223.1875 37.746094 223.070312 C 37.726562 222.949219 37.824219 222.828125 37.964844 222.789062 L 44.441406 221.445312 C 44.824219 221.367188 45.082031 221.046875 45.003906 220.726562 C 44.945312 220.425781 44.621094 220.246094 44.261719 220.285156 L 37.925781 221.046875 C 34.535156 221.445312 32.109375 224.25 32.691406 227.035156 Z M 37.464844 253.226562 " fill-opacity="1" fill-rule="nonzero"/><path fill="#ffffff" d="M 36.300781 274.890625 C 36.984375 273.449219 38.628906 272.527344 38.105469 271.507812 C 37.425781 270.164062 35.820312 272.027344 34.15625 271.746094 C 33.953125 271.585938 33.773438 271.449219 33.554688 271.308594 C 33.535156 271.285156 33.515625 271.285156 33.492188 271.265625 C 31.308594 269.867188 29.683594 267.742188 29.023438 265.21875 L 26.835938 256.828125 C 26.457031 255.386719 26.476562 253.867188 26.855469 252.445312 C 26.695312 252.445312 26.535156 252.445312 26.375 252.464844 C 25.050781 252.566406 23.75 252.183594 22.707031 251.402344 L 26.414062 263.136719 C 27.457031 266.402344 26.796875 269.984375 24.589844 272.609375 C 24.148438 273.128906 23.769531 273.75 23.488281 274.429688 C 22.285156 277.375 23.328125 280.839844 25.972656 282.621094 C 29.441406 284.964844 34.117188 283.683594 35.941406 279.996094 C 36.761719 278.375 36.84375 276.535156 36.300781 274.890625 Z M 27.457031 281.417969 C 25.011719 280.117188 24.070312 277.074219 25.371094 274.632812 C 26.675781 272.1875 29.722656 271.246094 32.171875 272.546875 C 34.617188 273.851562 35.558594 276.894531 34.253906 279.335938 C 32.953125 281.78125 29.90625 282.722656 27.457031 281.417969 Z M 27.457031 281.417969 " fill-opacity="1" fill-rule="nonzero"/><g clip-path="url(#b7e1ff90bc)"><path fill="#ffffff" d="M 12.519531 219.304688 L 17.230469 234.183594 L 26.65625 243.375 L 13.480469 218.902344 C 13.179688 218.34375 12.320312 218.703125 12.519531 219.304688 Z M 12.519531 219.304688 " fill-opacity="1" fill-rule="nonzero"/></g><g clip-path="url(#2a82080bd0)"><path fill="#ffffff" d="M 4.71875 224.691406 L 22.183594 249.621094 C 23.105469 250.941406 24.671875 251.683594 26.273438 251.542969 C 28.582031 251.363281 30.867188 252.125 32.589844 253.644531 L 39.109375 259.371094 C 41.054688 261.09375 42.238281 263.496094 42.496094 266.082031 C 42.496094 266.101562 42.496094 266.140625 42.496094 266.160156 C 42.878906 269.546875 45.804688 272.167969 49.214844 272.207031 C 49.875 272.207031 50.519531 272.128906 51.121094 271.949219 C 52.582031 271.546875 54.167969 272.027344 55.210938 273.128906 C 56.011719 273.992188 56.734375 274.492188 57.316406 274.3125 C 58.136719 274.050781 58.359375 273.210938 56.652344 271.1875 C 55.75 270.125 55.410156 268.683594 55.8125 267.363281 C 56.070312 266.480469 56.171875 265.519531 56.050781 264.539062 C 55.671875 261.375 53.0625 258.871094 49.875 258.613281 C 49.132812 258.550781 48.414062 258.613281 47.710938 258.773438 C 44.382812 259.554688 40.871094 258.511719 38.425781 256.128906 L 5.519531 224.03125 C 5.058594 223.589844 4.359375 224.171875 4.71875 224.691406 Z M 49.195312 260.394531 C 51.960938 260.332031 54.265625 262.535156 54.328125 265.300781 C 54.386719 268.0625 52.183594 270.367188 49.414062 270.425781 C 46.648438 270.484375 44.34375 268.285156 44.28125 265.519531 C 44.222656 262.757812 46.425781 260.453125 49.195312 260.394531 Z M 25.652344 247.296875 C 25.894531 247.917969 25.59375 248.640625 24.972656 248.878906 C 24.351562 249.121094 23.628906 248.820312 23.386719 248.199219 C 23.148438 247.578125 23.449219 246.859375 24.070312 246.617188 C 24.710938 246.355469 25.414062 246.65625 25.652344 247.296875 Z M 25.652344 247.296875 " fill-opacity="1" fill-rule="nonzero"/></g><g clip-path="url(#3faec586b6)"><g clip-path="url(#50953ade9b)"><g clip-path="url(#d401da73a3)"><path fill="#ffffff" d="M 320.386719 280.09375 C 321.242188 278.726562 323.085938 276.109375 325.269531 273.003906 C 325.488281 272.691406 325.714844 272.371094 325.949219 272.042969 C 326.015625 272.253906 326.0625 272.382812 326.082031 272.433594 C 326.308594 273.140625 326.804688 274.121094 327.566406 274.820312 C 327.042969 275.21875 326.453125 275.683594 325.804688 276.195312 L 325.613281 276.34375 C 324.671875 277.085938 323.25 278.203125 322.007812 279.070312 C 321.28125 279.574219 320.757812 279.890625 320.386719 280.09375 Z M 320.386719 280.09375 " fill-opacity="1" fill-rule="nonzero"/></g></g></g><g clip-path="url(#5b31453be5)"><g clip-path="url(#ee1f3092d4)"><g clip-path="url(#9b63478d58)"><path fill="#ffffff" d="M 332.183594 271.492188 C 332.179688 271.453125 332.179688 271.417969 332.183594 271.378906 C 332.175781 270.890625 332.097656 270.53125 332.089844 270.488281 C 332.085938 270.480469 332.085938 270.464844 332.082031 270.457031 C 331.625 267.847656 331.382812 265.210938 331.304688 262.597656 C 331.296875 262.535156 331.296875 262.472656 331.300781 262.410156 C 331.066406 253.382812 332.8125 244.644531 334.554688 238.308594 C 336.988281 229.453125 339.949219 223.234375 340 223.125 C 340.027344 223.070312 341.265625 220.394531 340.601562 218.101562 C 340.558594 217.957031 340.511719 217.820312 340.457031 217.679688 C 340 216.570312 339.074219 215.75 337.703125 215.246094 C 336.5 214.804688 335.390625 214.828125 334.40625 215.316406 C 332.171875 216.417969 331.191406 219.476562 331.183594 219.507812 C 325.71875 237.496094 324.949219 250.8125 325.269531 258.816406 C 325.613281 267.480469 327.273438 271.953125 327.289062 271.996094 C 327.292969 272.007812 327.296875 272.019531 327.300781 272.03125 C 327.335938 272.144531 328.222656 274.835938 330.128906 274.34375 C 331.839844 273.90625 332.171875 272.480469 332.183594 271.492188 Z M 335.515625 222.097656 C 334.800781 221.921875 334.195312 221.480469 333.816406 220.847656 C 333.6875 220.636719 333.589844 220.414062 333.523438 220.183594 C 333.390625 219.726562 333.378906 219.238281 333.496094 218.761719 C 333.671875 218.046875 334.117188 217.445312 334.746094 217.0625 C 335.371094 216.679688 336.113281 216.566406 336.828125 216.746094 C 338.300781 217.109375 339.207031 218.605469 338.84375 220.082031 C 338.484375 221.558594 336.988281 222.464844 335.515625 222.097656 Z M 328.992188 272.039062 C 328.296875 271.867188 327.785156 271.335938 327.597656 270.695312 C 327.507812 270.378906 327.496094 270.035156 327.578125 269.695312 C 327.832031 268.660156 328.878906 268.027344 329.914062 268.28125 C 330.949219 268.539062 331.582031 269.585938 331.328125 270.621094 C 331.074219 271.660156 330.027344 272.292969 328.992188 272.039062 Z M 328.992188 272.039062 " fill-opacity="1" fill-rule="nonzero"/></g></g></g><g clip-path="url(#0f36a704b2)"><g clip-path="url(#454bd859d9)"><g clip-path="url(#718dcea39e)"><path fill="#ffffff" d="M 333.265625 269.746094 C 332.878906 267.394531 332.664062 265.023438 332.589844 262.671875 C 334.230469 260.363281 335.238281 258.890625 336.125 257.589844 C 336.703125 256.742188 337.253906 255.933594 337.910156 255 C 338.707031 255.429688 339.507812 255.566406 340.296875 255.410156 C 341.828125 255.097656 342.722656 253.753906 342.820312 253.605469 L 359.378906 228.753906 C 359.679688 230.324219 358.867188 231.941406 358.765625 232.132812 C 358.089844 233.148438 339.050781 261.695312 333.265625 269.746094 Z M 333.265625 269.746094 " fill-opacity="1" fill-rule="nonzero"/></g></g></g><g clip-path="url(#4cefdbbeae)"><g clip-path="url(#ec28e1120f)"><g clip-path="url(#4da877d424)"><path fill="#ffffff" d="M 341.738281 252.914062 C 341.742188 252.910156 341.746094 252.902344 341.75 252.898438 L 358.746094 227.386719 C 358.5 227.082031 358.1875 226.8125 357.808594 226.574219 C 354.828125 224.710938 352.910156 227.28125 352.832031 227.390625 C 348.796875 233.109375 342.28125 242.539062 341.890625 243.628906 C 341.867188 243.828125 341.839844 244.171875 341.804688 244.597656 C 341.597656 247.066406 341.324219 249.804688 340.65625 251.027344 C 340.542969 251.238281 340.148438 251.835938 338.660156 253.9375 C 339.136719 254.164062 339.59375 254.234375 340.03125 254.152344 C 341.074219 253.945312 341.730469 252.921875 341.738281 252.914062 Z M 350.402344 235.300781 C 350.277344 235.214844 350.191406 235.089844 350.152344 234.953125 C 350.101562 234.773438 350.128906 234.570312 350.242188 234.40625 L 354.070312 228.902344 C 354.273438 228.609375 354.671875 228.539062 354.960938 228.742188 C 355.253906 228.945312 355.324219 229.34375 355.125 229.636719 L 351.296875 235.140625 C 351.09375 235.433594 350.695312 235.503906 350.402344 235.300781 Z M 344.5 243.710938 C 344.375 243.625 344.292969 243.5 344.25 243.363281 C 344.199219 243.183594 344.226562 242.984375 344.339844 242.816406 L 348.167969 237.3125 C 348.371094 237.019531 348.769531 236.949219 349.058594 237.152344 C 349.351562 237.355469 349.421875 237.753906 349.21875 238.046875 L 345.394531 243.550781 C 345.191406 243.84375 344.792969 243.914062 344.5 243.710938 Z M 344.5 243.710938 " fill-opacity="1" fill-rule="nonzero"/></g></g></g><g clip-path="url(#0e22d56530)"><g clip-path="url(#ab93092766)"><g clip-path="url(#bc25c9e269)"><path fill="#ffffff" d="M 335.820312 220.851562 C 335.03125 220.65625 334.550781 219.859375 334.742188 219.070312 C 334.933594 218.28125 335.734375 217.796875 336.519531 217.992188 C 337.050781 218.121094 337.441406 218.527344 337.582031 219.015625 C 337.652344 219.253906 337.664062 219.515625 337.597656 219.773438 C 337.40625 220.5625 336.605469 221.046875 335.820312 220.851562 Z M 335.820312 220.851562 " fill-opacity="1" fill-rule="nonzero"/></g></g></g><g clip-path="url(#3a6af1809a)"><g clip-path="url(#76ce42c011)"><g clip-path="url(#e5089cc0db)"><path fill="#ffffff" d="M 329.296875 270.789062 C 328.953125 270.703125 328.738281 270.351562 328.824219 270.003906 C 328.90625 269.65625 329.261719 269.441406 329.605469 269.53125 C 329.839844 269.585938 330.011719 269.765625 330.074219 269.980469 C 330.105469 270.085938 330.109375 270.203125 330.082031 270.316406 C 329.996094 270.664062 329.644531 270.875 329.296875 270.789062 Z M 329.296875 270.789062 " fill-opacity="1" fill-rule="nonzero"/></g></g></g><g clip-path="url(#3b014710dc)"><g clip-path="url(#f8fa4d068b)"><g clip-path="url(#dc2a8e37d5)"><path fill="#ffffff" d="M 350.402344 235.300781 C 350.277344 235.214844 350.191406 235.089844 350.152344 234.953125 C 350.101562 234.773438 350.128906 234.570312 350.242188 234.40625 L 354.070312 228.902344 C 354.273438 228.609375 354.671875 228.539062 354.960938 228.742188 C 355.253906 228.945312 355.324219 229.34375 355.125 229.636719 L 351.296875 235.140625 C 351.09375 235.433594 350.695312 235.503906 350.402344 235.300781 Z M 350.402344 235.300781 " fill-opacity="1" fill-rule="nonzero"/></g></g></g><g clip-path="url(#cf035731b0)"><g clip-path="url(#970e8b3ca2)"><g clip-path="url(#6eeb57e591)"><path fill="#ffffff" d="M 344.5 243.710938 C 344.375 243.625 344.292969 243.5 344.25 243.363281 C 344.199219 243.183594 344.226562 242.984375 344.339844 242.816406 L 348.167969 237.3125 C 348.371094 237.019531 348.769531 236.949219 349.058594 237.152344 C 349.351562 237.355469 349.421875 237.753906 349.21875 238.046875 L 345.394531 243.550781 C 345.191406 243.84375 344.792969 243.914062 344.5 243.710938 Z M 344.5 243.710938 " fill-opacity="1" fill-rule="nonzero"/></g></g></g><g fill="#ffffff" fill-opacity="1"><g transform="translate(84.677744, 228.489494)"><g><path d="M 15.03125 -15.765625 C 15.238281 -15.328125 15.472656 -14.757812 15.734375 -14.0625 C 15.992188 -13.375 16.171875 -12.484375 16.265625 -11.390625 C 16.367188 -10.304688 16.210938 -9.25 15.796875 -8.21875 C 14.921875 -6.101562 13.210938 -4.570312 10.671875 -3.625 C 7.578125 -2.46875 4.847656 -2.316406 2.484375 -3.171875 C 0.128906 -4.023438 -1.503906 -5.679688 -2.421875 -8.140625 C -3.347656 -10.597656 -3.191406 -12.929688 -1.953125 -15.140625 C -0.722656 -17.347656 1.378906 -19.007812 4.359375 -20.125 C 5.484375 -20.550781 6.601562 -20.84375 7.71875 -21 C 8.84375 -21.164062 9.804688 -21.195312 10.609375 -21.09375 L 12.125 -17.203125 L 11.953125 -17.140625 C 11.335938 -17.992188 10.601562 -18.640625 9.75 -19.078125 C 8.21875 -19.835938 6.523438 -19.867188 4.671875 -19.171875 C 2.828125 -18.484375 1.585938 -17.265625 0.953125 -15.515625 C 0.328125 -13.773438 0.421875 -11.816406 1.234375 -9.640625 C 2.046875 -7.472656 3.289062 -5.925781 4.96875 -5 C 6.65625 -4.070312 8.539062 -3.972656 10.625 -4.703125 C 12.851562 -5.535156 14.359375 -6.910156 15.140625 -8.828125 C 15.921875 -10.753906 15.859375 -12.9375 14.953125 -15.375 C 14.910156 -15.476562 14.867188 -15.582031 14.828125 -15.6875 Z M 15.03125 -15.765625 "/></g></g></g><g fill="#ffffff" fill-opacity="1"><g transform="translate(103.07826, 221.664044)"><g><path d="M 1.1875 -0.625 C 1.601562 -0.738281 1.910156 -0.984375 2.109375 -1.359375 C 2.304688 -1.734375 2.351562 -2.117188 2.25 -2.515625 L -1.625 -15.40625 C -1.769531 -15.800781 -2.023438 -16.097656 -2.390625 -16.296875 C -2.753906 -16.492188 -3.144531 -16.535156 -3.5625 -16.421875 L -3.859375 -16.328125 L -3.9375 -16.5625 L 3.125 -18.6875 L 3.1875 -18.453125 L 2.90625 -18.359375 C 2.507812 -18.242188 2.203125 -18 1.984375 -17.625 C 1.773438 -17.25 1.734375 -16.863281 1.859375 -16.46875 L 5.953125 -2.890625 L 9 -3.796875 C 10.132812 -4.140625 10.984375 -4.75 11.546875 -5.625 C 12.109375 -6.507812 12.40625 -7.609375 12.4375 -8.921875 L 12.65625 -9 L 13.015625 -3.921875 L 0.96875 -0.296875 L 0.890625 -0.53125 Z M 1.1875 -0.625 "/></g></g></g><g fill="#ffffff" fill-opacity="1"><g transform="translate(116.967991, 217.378132)"><g><path d="M 14.921875 -20.625 L 14.5 -20.53125 C 14.175781 -20.457031 13.914062 -20.285156 13.71875 -20.015625 C 13.519531 -19.753906 13.457031 -19.460938 13.53125 -19.140625 L 15.671875 -9.921875 C 16.117188 -7.984375 15.863281 -6.304688 14.90625 -4.890625 C 13.957031 -3.472656 12.425781 -2.519531 10.3125 -2.03125 C 7.820312 -1.457031 5.785156 -1.570312 4.203125 -2.375 C 2.628906 -3.175781 1.613281 -4.5625 1.15625 -6.53125 L -0.96875 -15.703125 C -1.039062 -16.054688 -1.222656 -16.316406 -1.515625 -16.484375 C -1.816406 -16.648438 -2.140625 -16.691406 -2.484375 -16.609375 L -2.875 -16.515625 L -2.9375 -16.75 L 3.875 -18.328125 L 3.9375 -18.09375 L 3.5625 -18 C 3.21875 -17.925781 2.953125 -17.753906 2.765625 -17.484375 C 2.578125 -17.222656 2.515625 -16.921875 2.578125 -16.578125 L 4.65625 -7.5625 C 5.039062 -5.882812 5.753906 -4.648438 6.796875 -3.859375 C 7.847656 -3.078125 9.085938 -2.851562 10.515625 -3.1875 C 11.941406 -3.519531 12.96875 -4.238281 13.59375 -5.34375 C 14.226562 -6.457031 14.367188 -7.804688 14.015625 -9.390625 L 11.859375 -18.71875 C 11.773438 -19.0625 11.585938 -19.304688 11.296875 -19.453125 C 11.003906 -19.609375 10.6875 -19.648438 10.34375 -19.578125 L 9.96875 -19.484375 L 9.90625 -19.71875 L 14.859375 -20.859375 Z M 14.921875 -20.625 "/></g></g></g><g fill="#ffffff" fill-opacity="1"><g transform="translate(135.968639, 213.036618)"><g><path d="M 8.609375 -1.375 L 1 -0.15625 L 0.953125 -0.40625 L 1.265625 -0.453125 C 1.679688 -0.523438 2.015625 -0.722656 2.265625 -1.046875 C 2.523438 -1.378906 2.628906 -1.757812 2.578125 -2.1875 L 0.453125 -15.5 C 0.367188 -15.914062 0.15625 -16.242188 -0.1875 -16.484375 C -0.53125 -16.734375 -0.910156 -16.820312 -1.328125 -16.75 L -1.640625 -16.703125 L -1.6875 -16.921875 L 5.28125 -18.03125 C 7.125 -18.332031 8.648438 -18.238281 9.859375 -17.75 C 11.066406 -17.257812 11.785156 -16.320312 12.015625 -14.9375 C 12.117188 -14.226562 12.066406 -13.582031 11.859375 -13 C 11.484375 -11.925781 10.742188 -11.234375 9.640625 -10.921875 C 10.878906 -11.003906 11.960938 -10.703125 12.890625 -10.015625 C 13.828125 -9.335938 14.394531 -8.375 14.59375 -7.125 C 14.832031 -5.625 14.410156 -4.375 13.328125 -3.375 C 12.242188 -2.375 10.671875 -1.707031 8.609375 -1.375 Z M 8.234375 -14 C 7.859375 -16.238281 6.65625 -17.195312 4.625 -16.875 L 3.9375 -16.765625 L 6.28125 -2.125 L 7.375 -2.296875 C 7.394531 -2.304688 7.410156 -2.3125 7.421875 -2.3125 C 8.515625 -2.488281 9.335938 -2.953125 9.890625 -3.703125 C 10.453125 -4.453125 10.628906 -5.46875 10.421875 -6.75 C 10.273438 -7.664062 9.96875 -8.382812 9.5 -8.90625 C 8.632812 -9.914062 7.414062 -10.289062 5.84375 -10.03125 L 5.8125 -10.25 C 6.632812 -10.382812 7.285156 -10.757812 7.765625 -11.375 C 8.242188 -12 8.398438 -12.875 8.234375 -14 Z M 8.234375 -14 "/></g></g></g><g fill="#ffffff" fill-opacity="1"><g transform="translate(151.722512, 210.520656)"><g><path d="M 1.296875 -0.375 C 1.710938 -0.414062 2.054688 -0.597656 2.328125 -0.921875 C 2.597656 -1.253906 2.722656 -1.625 2.703125 -2.03125 L 1.359375 -15.484375 C 1.253906 -16.054688 0.945312 -16.453125 0.4375 -16.671875 C 0.175781 -16.785156 -0.078125 -16.828125 -0.328125 -16.796875 L -0.640625 -16.765625 L -0.65625 -17 L 8.59375 -17.921875 C 9.09375 -17.972656 9.632812 -18.078125 10.21875 -18.234375 C 10.800781 -18.390625 11.207031 -18.53125 11.4375 -18.65625 L 11.859375 -14.421875 L 11.625 -14.390625 L 11.59375 -14.6875 C 11.519531 -15.40625 11.25 -15.960938 10.78125 -16.359375 C 10.3125 -16.765625 9.710938 -16.945312 8.984375 -16.90625 L 4.921875 -16.5 L 5.625 -9.46875 L 8.8125 -9.796875 C 9.40625 -9.867188 9.875 -10.125 10.21875 -10.5625 C 10.5625 -11 10.707031 -11.507812 10.65625 -12.09375 L 10.625 -12.296875 L 10.859375 -12.3125 L 11.421875 -6.734375 L 11.1875 -6.71875 L 11.15625 -6.921875 C 11.082031 -7.722656 10.707031 -8.285156 10.03125 -8.609375 C 9.6875 -8.753906 9.316406 -8.816406 8.921875 -8.796875 L 5.71875 -8.46875 L 6.390625 -1.6875 L 9.546875 -2 C 10.722656 -2.125 11.675781 -2.5625 12.40625 -3.3125 C 13.144531 -4.0625 13.644531 -5.070312 13.90625 -6.34375 L 14.140625 -6.375 L 13.53125 -1.34375 L 1.015625 -0.09375 L 0.984375 -0.34375 Z M 1.296875 -0.375 "/></g></g></g><g fill="#ffffff" fill-opacity="1"><g transform="translate(166.711641, 209.121551)"><g/></g></g><g fill="#ffffff" fill-opacity="1"><g transform="translate(172.447875, 208.603957)"><g><path d="M 9.671875 -17.078125 C 12.535156 -17.097656 14.804688 -16.351562 16.484375 -14.84375 C 18.171875 -13.34375 19.023438 -11.28125 19.046875 -8.65625 C 19.066406 -6.039062 18.25 -3.960938 16.59375 -2.421875 C 14.945312 -0.890625 12.691406 -0.113281 9.828125 -0.09375 L 1.015625 -0.015625 L 1.015625 -0.265625 L 1.328125 -0.265625 C 1.753906 -0.265625 2.113281 -0.414062 2.40625 -0.71875 C 2.695312 -1.019531 2.851562 -1.378906 2.875 -1.796875 L 2.75 -15.390625 C 2.695312 -15.773438 2.519531 -16.097656 2.21875 -16.359375 C 1.925781 -16.628906 1.578125 -16.765625 1.171875 -16.765625 L 0.859375 -16.765625 L 0.859375 -17 Z M 9.5 -1.109375 C 10.664062 -1.117188 11.671875 -1.429688 12.515625 -2.046875 C 13.359375 -2.660156 14 -3.53125 14.4375 -4.65625 C 14.882812 -5.789062 15.101562 -7.117188 15.09375 -8.640625 C 15.070312 -10.929688 14.546875 -12.742188 13.515625 -14.078125 C 12.492188 -15.410156 11.113281 -16.070312 9.375 -16.0625 L 6.390625 -16.03125 L 6.515625 -1.078125 Z M 9.5 -1.109375 "/></g></g></g><g fill="#ffffff" fill-opacity="1"><g transform="translate(192.09388, 208.454418)"><g><path d="M 17.90625 0.84375 L 18.125 0.859375 L 18.109375 1.109375 L 10.375 0.640625 L 10.390625 0.390625 L 10.609375 0.40625 C 10.960938 0.425781 11.226562 0.332031 11.40625 0.125 C 11.59375 -0.0703125 11.691406 -0.269531 11.703125 -0.46875 C 11.722656 -0.664062 11.695312 -0.863281 11.625 -1.0625 L 10.625 -4.09375 L 4.953125 -4.453125 L 3.515625 -1.5625 C 3.421875 -1.351562 3.363281 -1.15625 3.34375 -0.96875 C 3.332031 -0.78125 3.40625 -0.570312 3.5625 -0.34375 C 3.726562 -0.125 3.988281 -0.00390625 4.34375 0.015625 L 4.546875 0.03125 L 4.53125 0.28125 L -0.640625 -0.046875 L -0.625 -0.296875 L -0.421875 -0.28125 C -0.046875 -0.257812 0.332031 -0.347656 0.71875 -0.546875 C 1.113281 -0.742188 1.441406 -1.0625 1.703125 -1.5 L 8.078125 -13.828125 C 8.941406 -15.367188 9.410156 -16.398438 9.484375 -16.921875 L 9.703125 -16.90625 L 15.9375 -0.6875 C 16.144531 -0.195312 16.425781 0.171875 16.78125 0.421875 C 17.132812 0.679688 17.507812 0.820312 17.90625 0.84375 Z M 5.421875 -5.453125 L 10.28125 -5.15625 L 8.28125 -11.265625 Z M 5.421875 -5.453125 "/></g></g></g><g fill="#ffffff" fill-opacity="1"><g transform="translate(209.145835, 209.622034)"><g/></g></g><g fill="#ffffff" fill-opacity="1"><g transform="translate(214.914172, 210.099812)"><g><path d="M 25.671875 -19.375 C 26.054688 -19.3125 26.390625 -19.25 26.671875 -19.1875 L 26.625 -18.953125 C 25.625 -19.054688 24.734375 -18.941406 23.953125 -18.609375 C 23.054688 -18.242188 22.40625 -17.875 22 -17.5 C 21.601562 -17.132812 21.28125 -16.832031 21.03125 -16.59375 C 20.789062 -16.351562 20.546875 -16.070312 20.296875 -15.75 C 19.921875 -15.21875 19.5625 -14.703125 19.21875 -14.203125 L 10.671875 -1.109375 C 9.679688 0.347656 9.117188 1.335938 8.984375 1.859375 L 8.796875 1.828125 L 3.890625 -14.953125 C 3.710938 -15.429688 3.457031 -15.816406 3.125 -16.109375 C 2.789062 -16.398438 2.429688 -16.570312 2.046875 -16.625 L 1.859375 -16.65625 L 1.890625 -16.890625 L 9.515625 -15.734375 L 9.484375 -15.5 L 9.296875 -15.53125 C 8.941406 -15.582031 8.664062 -15.507812 8.46875 -15.3125 C 8.269531 -15.125 8.15625 -14.929688 8.125 -14.734375 C 8.09375 -14.546875 8.097656 -14.351562 8.140625 -14.15625 L 10.71875 -3.625 L 17.4375 -14.46875 C 18.457031 -16.132812 19.539062 -17.335938 20.6875 -18.078125 C 22.375 -19.191406 24.035156 -19.625 25.671875 -19.375 Z M 25.671875 -19.375 "/></g></g></g><g fill="#ffffff" fill-opacity="1"><g transform="translate(231.832349, 212.7519)"><g><path d="M 1.34375 0.015625 C 1.757812 0.0976562 2.144531 0.0234375 2.5 -0.203125 C 2.851562 -0.441406 3.082031 -0.757812 3.1875 -1.15625 L 5.859375 -14.34375 C 5.921875 -14.78125 5.835938 -15.171875 5.609375 -15.515625 C 5.378906 -15.859375 5.054688 -16.070312 4.640625 -16.15625 L 4.34375 -16.21875 L 4.390625 -16.4375 L 11.609375 -14.96875 L 11.546875 -14.75 L 11.265625 -14.8125 C 10.847656 -14.894531 10.457031 -14.820312 10.09375 -14.59375 C 9.738281 -14.375 9.519531 -14.050781 9.4375 -13.625 L 6.765625 -0.4375 C 6.679688 -0.03125 6.753906 0.347656 6.984375 0.703125 C 7.222656 1.054688 7.550781 1.273438 7.96875 1.359375 L 8.25 1.421875 L 8.21875 1.671875 L 1 0.203125 L 1.046875 -0.046875 Z M 1.34375 0.015625 "/></g></g></g><g fill="#ffffff" fill-opacity="1"><g transform="translate(240.740868, 214.491274)"><g><path d="M 1.34375 0.078125 C 1.757812 0.179688 2.144531 0.128906 2.5 -0.078125 C 2.863281 -0.296875 3.109375 -0.609375 3.234375 -1.015625 L 6.515625 -14.0625 C 6.585938 -14.457031 6.519531 -14.835938 6.3125 -15.203125 C 6.101562 -15.578125 5.789062 -15.816406 5.375 -15.921875 L 5.078125 -16 L 5.125 -16.21875 L 12.28125 -14.421875 L 12.21875 -14.203125 L 11.921875 -14.28125 C 11.523438 -14.382812 11.132812 -14.320312 10.75 -14.09375 C 10.375 -13.875 10.140625 -13.566406 10.046875 -13.171875 L 6.578125 0.578125 L 9.65625 1.34375 C 10.8125 1.632812 11.859375 1.550781 12.796875 1.09375 C 13.734375 0.632812 14.546875 -0.148438 15.234375 -1.265625 L 15.46875 -1.203125 L 13.1875 3.3125 L 0.984375 0.25 L 1.046875 0 Z M 1.34375 0.078125 "/></g></g></g><g fill="#ffffff" fill-opacity="1"><g transform="translate(254.893549, 218.040902)"><g><path d="M 1.34375 0.15625 C 1.75 0.289062 2.140625 0.257812 2.515625 0.0625 C 2.890625 -0.132812 3.148438 -0.429688 3.296875 -0.828125 L 7.296875 -13.671875 C 7.398438 -14.066406 7.351562 -14.453125 7.15625 -14.828125 C 6.96875 -15.203125 6.671875 -15.457031 6.265625 -15.59375 L 5.96875 -15.6875 L 6.03125 -15.921875 L 13.078125 -13.71875 L 13 -13.484375 L 12.703125 -13.578125 C 12.304688 -13.703125 11.914062 -13.664062 11.53125 -13.46875 C 11.144531 -13.269531 10.890625 -12.972656 10.765625 -12.578125 L 6.546875 0.953125 L 9.578125 1.890625 C 10.710938 2.242188 11.757812 2.21875 12.71875 1.8125 C 13.6875 1.40625 14.546875 0.660156 15.296875 -0.421875 L 15.515625 -0.34375 L 12.96875 4.046875 L 0.96875 0.296875 L 1.046875 0.0625 Z M 1.34375 0.15625 "/></g></g></g><g fill="#ffffff" fill-opacity="1"><g transform="translate(268.809147, 222.337774)"><g><path d="M 16.84375 6.140625 L 17.046875 6.21875 L 16.953125 6.453125 L 9.703125 3.703125 L 9.796875 3.46875 L 10.015625 3.546875 C 10.335938 3.671875 10.613281 3.660156 10.84375 3.515625 C 11.082031 3.378906 11.238281 3.21875 11.3125 3.03125 C 11.382812 2.84375 11.414062 2.648438 11.40625 2.453125 L 11.359375 -0.75 L 6.046875 -2.78125 L 3.8125 -0.4375 C 3.65625 -0.269531 3.539062 -0.0976562 3.46875 0.078125 C 3.40625 0.253906 3.414062 0.46875 3.5 0.71875 C 3.59375 0.976562 3.8125 1.175781 4.15625 1.3125 L 4.34375 1.390625 L 4.25 1.625 L -0.59375 -0.234375 L -0.5 -0.46875 L -0.3125 -0.390625 C 0.03125 -0.253906 0.414062 -0.222656 0.84375 -0.296875 C 1.28125 -0.378906 1.6875 -0.582031 2.0625 -0.90625 L 11.84375 -10.796875 C 13.113281 -12.015625 13.863281 -12.859375 14.09375 -13.328125 L 14.296875 -13.25 L 15.421875 4.09375 C 15.472656 4.613281 15.628906 5.050781 15.890625 5.40625 C 16.148438 5.757812 16.46875 6.003906 16.84375 6.140625 Z M 6.8125 -3.59375 L 11.34375 -1.875 L 11.265625 -8.28125 Z M 6.8125 -3.59375 "/></g></g></g><g fill="#ffffff" fill-opacity="1"><g transform="translate(42.866606, 185.720689)"><g><path d="M 5.5625 -7.40625 C 6.15625 -6.125 6.253906 -4.96875 5.859375 -3.9375 C 5.472656 -2.914062 4.632812 -2.109375 3.34375 -1.515625 L 0.84375 -0.375 L -2.6875 -8.125 L -0.015625 -9.34375 C 1.234375 -9.914062 2.335938 -10.035156 3.296875 -9.703125 C 4.265625 -9.378906 5.019531 -8.613281 5.5625 -7.40625 Z M 3.421875 -6.359375 C 3.097656 -7.066406 2.71875 -7.523438 2.28125 -7.734375 C 1.84375 -7.953125 1.34375 -7.929688 0.78125 -7.671875 L 0.15625 -7.390625 L 2.140625 -3.046875 L 2.609375 -3.265625 C 3.242188 -3.554688 3.625 -3.953125 3.75 -4.453125 C 3.875 -4.960938 3.765625 -5.597656 3.421875 -6.359375 Z M 3.421875 -6.359375 "/></g></g><g transform="translate(50.823051, 182.093397)"><g><path d="M 3.65625 -1.546875 C 2.664062 -1.097656 1.769531 -1.007812 0.96875 -1.28125 C 0.164062 -1.5625 -0.453125 -2.1875 -0.890625 -3.15625 C -1.359375 -4.175781 -1.457031 -5.070312 -1.1875 -5.84375 C -0.925781 -6.625 -0.320312 -7.234375 0.625 -7.671875 C 1.539062 -8.078125 2.347656 -8.15625 3.046875 -7.90625 C 3.753906 -7.664062 4.3125 -7.109375 4.71875 -6.234375 L 5.140625 -5.3125 L 1.4375 -3.609375 C 1.613281 -3.273438 1.851562 -3.0625 2.15625 -2.96875 C 2.46875 -2.882812 2.828125 -2.9375 3.234375 -3.125 C 3.597656 -3.289062 3.914062 -3.476562 4.1875 -3.6875 C 4.457031 -3.894531 4.738281 -4.160156 5.03125 -4.484375 L 5.703125 -3 C 5.460938 -2.6875 5.179688 -2.421875 4.859375 -2.203125 C 4.546875 -1.992188 4.144531 -1.773438 3.65625 -1.546875 Z M 1.359375 -6.28125 C 1.109375 -6.164062 0.929688 -5.992188 0.828125 -5.765625 C 0.734375 -5.546875 0.753906 -5.257812 0.890625 -4.90625 L 2.65625 -5.71875 C 2.519531 -6.019531 2.332031 -6.21875 2.09375 -6.3125 C 1.851562 -6.40625 1.609375 -6.394531 1.359375 -6.28125 Z M 1.359375 -6.28125 "/></g></g><g transform="translate(57.524888, 179.038074)"><g><path d="M 4.5 -4.28125 C 4.789062 -3.632812 4.789062 -3.050781 4.5 -2.53125 C 4.21875 -2.007812 3.664062 -1.5625 2.84375 -1.1875 C 2.40625 -0.988281 2.007812 -0.835938 1.65625 -0.734375 C 1.3125 -0.628906 0.9375 -0.5625 0.53125 -0.53125 L -0.21875 -2.1875 C 0.164062 -2.1875 0.570312 -2.222656 1 -2.296875 C 1.425781 -2.378906 1.785156 -2.488281 2.078125 -2.625 C 2.523438 -2.832031 2.703125 -3.039062 2.609375 -3.25 C 2.566406 -3.351562 2.460938 -3.421875 2.296875 -3.453125 C 2.128906 -3.484375 1.695312 -3.476562 1 -3.4375 C 0.34375 -3.414062 -0.160156 -3.5 -0.515625 -3.6875 C -0.867188 -3.875 -1.148438 -4.1875 -1.359375 -4.625 C -1.609375 -5.175781 -1.585938 -5.707031 -1.296875 -6.21875 C -1.003906 -6.726562 -0.46875 -7.160156 0.3125 -7.515625 C 0.71875 -7.703125 1.113281 -7.828125 1.5 -7.890625 C 1.882812 -7.960938 2.300781 -8.003906 2.75 -8.015625 L 2.796875 -6.421875 C 2.460938 -6.421875 2.125 -6.394531 1.78125 -6.34375 C 1.4375 -6.289062 1.164062 -6.21875 0.96875 -6.125 C 0.632812 -5.96875 0.503906 -5.8125 0.578125 -5.65625 C 0.617188 -5.550781 0.710938 -5.488281 0.859375 -5.46875 C 1.015625 -5.445312 1.425781 -5.453125 2.09375 -5.484375 C 2.59375 -5.503906 2.984375 -5.476562 3.265625 -5.40625 C 3.546875 -5.34375 3.785156 -5.21875 3.984375 -5.03125 C 4.179688 -4.851562 4.351562 -4.601562 4.5 -4.28125 Z M 4.5 -4.28125 "/></g></g><g transform="translate(63.305619, 176.402676)"><g><path d="M 2.625 -1.078125 C 2.195312 -0.878906 1.769531 -0.828125 1.34375 -0.921875 C 0.914062 -1.023438 0.503906 -1.269531 0.109375 -1.65625 C -0.285156 -2.050781 -0.625 -2.5625 -0.90625 -3.1875 C -1.351562 -4.164062 -1.503906 -5.019531 -1.359375 -5.75 C -1.210938 -6.488281 -0.800781 -7.015625 -0.125 -7.328125 C 0.207031 -7.472656 0.53125 -7.535156 0.84375 -7.515625 C 1.164062 -7.492188 1.5 -7.378906 1.84375 -7.171875 L 1.890625 -7.1875 C 1.617188 -7.613281 1.375 -8.066406 1.15625 -8.546875 L 0.421875 -10.15625 L 2.484375 -11.109375 L 6.25 -2.859375 L 4.6875 -2.140625 L 3.90625 -2.6875 L 3.84375 -2.65625 C 3.738281 -1.925781 3.332031 -1.398438 2.625 -1.078125 Z M 2.71875 -3.09375 C 3.050781 -3.238281 3.238281 -3.445312 3.28125 -3.71875 C 3.332031 -4 3.257812 -4.351562 3.0625 -4.78125 L 2.984375 -4.953125 C 2.742188 -5.484375 2.5 -5.828125 2.25 -5.984375 C 2 -6.140625 1.710938 -6.144531 1.390625 -6 C 1.117188 -5.875 0.960938 -5.644531 0.921875 -5.3125 C 0.890625 -4.988281 0.984375 -4.585938 1.203125 -4.109375 C 1.410156 -3.648438 1.644531 -3.332031 1.90625 -3.15625 C 2.164062 -2.988281 2.4375 -2.96875 2.71875 -3.09375 Z M 2.71875 -3.09375 "/></g></g><g transform="translate(70.277434, 173.224271)"><g><path d="M 3.65625 -1.546875 C 2.664062 -1.097656 1.769531 -1.007812 0.96875 -1.28125 C 0.164062 -1.5625 -0.453125 -2.1875 -0.890625 -3.15625 C -1.359375 -4.175781 -1.457031 -5.070312 -1.1875 -5.84375 C -0.925781 -6.625 -0.320312 -7.234375 0.625 -7.671875 C 1.539062 -8.078125 2.347656 -8.15625 3.046875 -7.90625 C 3.753906 -7.664062 4.3125 -7.109375 4.71875 -6.234375 L 5.140625 -5.3125 L 1.4375 -3.609375 C 1.613281 -3.273438 1.851562 -3.0625 2.15625 -2.96875 C 2.46875 -2.882812 2.828125 -2.9375 3.234375 -3.125 C 3.597656 -3.289062 3.914062 -3.476562 4.1875 -3.6875 C 4.457031 -3.894531 4.738281 -4.160156 5.03125 -4.484375 L 5.703125 -3 C 5.460938 -2.6875 5.179688 -2.421875 4.859375 -2.203125 C 4.546875 -1.992188 4.144531 -1.773438 3.65625 -1.546875 Z M 1.359375 -6.28125 C 1.109375 -6.164062 0.929688 -5.992188 0.828125 -5.765625 C 0.734375 -5.546875 0.753906 -5.257812 0.890625 -4.90625 L 2.65625 -5.71875 C 2.519531 -6.019531 2.332031 -6.21875 2.09375 -6.3125 C 1.851562 -6.40625 1.609375 -6.394531 1.359375 -6.28125 Z M 1.359375 -6.28125 "/></g></g></g><g fill="#ffffff" fill-opacity="1"><g transform="translate(295.426828, 172.147441)"><g><path d="M 5.953125 2.6875 L 0.328125 0.140625 L 0.953125 -1.234375 L 3.703125 -2.296875 C 4.503906 -2.617188 5.035156 -2.84375 5.296875 -2.96875 C 5.554688 -3.101562 5.75 -3.226562 5.875 -3.34375 C 6.007812 -3.46875 6.113281 -3.609375 6.1875 -3.765625 C 6.28125 -3.960938 6.285156 -4.148438 6.203125 -4.328125 C 6.117188 -4.515625 5.960938 -4.660156 5.734375 -4.765625 C 5.484375 -4.878906 5.203125 -4.921875 4.890625 -4.890625 C 4.578125 -4.859375 4.203125 -4.78125 3.765625 -4.65625 L 3.21875 -6.515625 C 3.789062 -6.703125 4.242188 -6.804688 4.578125 -6.828125 C 4.921875 -6.859375 5.269531 -6.84375 5.625 -6.78125 C 5.988281 -6.71875 6.367188 -6.597656 6.765625 -6.421875 C 7.265625 -6.191406 7.671875 -5.898438 7.984375 -5.546875 C 8.304688 -5.191406 8.5 -4.800781 8.5625 -4.375 C 8.632812 -3.945312 8.582031 -3.523438 8.40625 -3.109375 C 8.257812 -2.804688 8.085938 -2.546875 7.890625 -2.328125 C 7.703125 -2.109375 7.472656 -1.910156 7.203125 -1.734375 C 6.929688 -1.566406 6.601562 -1.398438 6.21875 -1.234375 C 5.832031 -1.078125 5.03125 -0.804688 3.8125 -0.421875 L 3.796875 -0.359375 L 6.734375 0.96875 Z M 5.953125 2.6875 "/></g></g><g transform="translate(301.792223, 175.014921)"><g><path d="M 7.734375 -1.171875 C 7.109375 0.203125 6.421875 1.101562 5.671875 1.53125 C 4.921875 1.957031 4.078125 1.957031 3.140625 1.53125 C 2.210938 1.113281 1.664062 0.46875 1.5 -0.40625 C 1.332031 -1.28125 1.546875 -2.378906 2.140625 -3.703125 C 2.753906 -5.078125 3.4375 -5.984375 4.1875 -6.421875 C 4.9375 -6.859375 5.785156 -6.863281 6.734375 -6.4375 C 7.660156 -6.019531 8.207031 -5.367188 8.375 -4.484375 C 8.539062 -3.597656 8.328125 -2.492188 7.734375 -1.171875 Z M 4.21875 -2.765625 C 3.820312 -1.878906 3.601562 -1.242188 3.5625 -0.859375 C 3.519531 -0.484375 3.628906 -0.238281 3.890625 -0.125 C 4.148438 -0.0078125 4.410156 -0.09375 4.671875 -0.375 C 4.929688 -0.664062 5.257812 -1.242188 5.65625 -2.109375 C 6.039062 -2.960938 6.253906 -3.585938 6.296875 -3.984375 C 6.347656 -4.390625 6.242188 -4.648438 5.984375 -4.765625 C 5.722656 -4.878906 5.460938 -4.796875 5.203125 -4.515625 C 4.941406 -4.234375 4.613281 -3.648438 4.21875 -2.765625 Z M 4.21875 -2.765625 "/></g></g><g transform="translate(308.157619, 177.8824)"><g><path d="M 5 2.25 L 2.875 1.296875 L 4.71875 -2.8125 C 4.945312 -3.3125 5.164062 -3.757812 5.375 -4.15625 C 5.164062 -4.070312 4.925781 -3.976562 4.65625 -3.875 L 3.4375 -3.5625 L 2.953125 -5.375 L 6.609375 -6.359375 L 8.5 -5.515625 Z M 5 2.25 "/></g></g><g transform="translate(314.523014, 180.74988)"><g><path d="M 1.109375 0.5 L 6.484375 -4.3125 L 3.109375 -5.828125 L 3.890625 -7.5625 L 9.5 -5.046875 L 8.953125 -3.8125 L 3.28125 1.46875 Z M 1.109375 0.5 "/></g></g></g></svg>