<svg xmlns="http://www.w3.org/2000/svg" xmlns:xlink="http://www.w3.org/1999/xlink" width="500" zoomAndPan="magnify" viewBox="0 0 375 374.999991" height="500" preserveAspectRatio="xMidYMid meet" version="1.0"><defs><g/><clipPath id="8c17373a2f"><path d="M 43.9375 147 L 331.1875 147 L 331.1875 292 L 43.9375 292 Z M 43.9375 147 " clip-rule="nonzero"/></clipPath><clipPath id="8d60c5cbda"><path d="M 69 107.671875 L 155 107.671875 L 155 191 L 69 191 Z M 69 107.671875 " clip-rule="nonzero"/></clipPath><clipPath id="8fe5308b4b"><path d="M 216 107.671875 L 302 107.671875 L 302 191 L 216 191 Z M 216 107.671875 " clip-rule="nonzero"/></clipPath><clipPath id="fe1c3373b9"><path d="M 143 298 L 227 298 L 227 374.671875 L 143 374.671875 Z M 143 298 " clip-rule="nonzero"/></clipPath><clipPath id="0be32a4853"><path d="M 84.652344 260.824219 L 113.855469 260.824219 L 113.855469 290.027344 L 84.652344 290.027344 Z M 84.652344 260.824219 " clip-rule="nonzero"/></clipPath><clipPath id="c9b50fe417"><path d="M 99.253906 260.824219 C 91.191406 260.824219 84.652344 267.363281 84.652344 275.425781 C 84.652344 283.488281 91.191406 290.027344 99.253906 290.027344 C 107.320312 290.027344 113.855469 283.488281 113.855469 275.425781 C 113.855469 267.363281 107.320312 260.824219 99.253906 260.824219 " clip-rule="nonzero"/></clipPath><clipPath id="21d941c692"><path d="M 258.78125 260.824219 L 287.984375 260.824219 L 287.984375 290.027344 L 258.78125 290.027344 Z M 258.78125 260.824219 " clip-rule="nonzero"/></clipPath><clipPath id="5e43ec3155"><path d="M 273.382812 260.824219 C 265.320312 260.824219 258.78125 267.363281 258.78125 275.425781 C 258.78125 283.488281 265.320312 290.027344 273.382812 290.027344 C 281.445312 290.027344 287.984375 283.488281 287.984375 275.425781 C 287.984375 267.363281 281.445312 260.824219 273.382812 260.824219 " clip-rule="nonzero"/></clipPath><clipPath id="2332d7834c"><path d="M 8 213.332031 L 23 213.332031 L 23 239 L 8 239 Z M 8 213.332031 " clip-rule="nonzero"/></clipPath><clipPath id="3d50123ba5"><path d="M 320 272 L 328 272 L 328 281 L 320 281 Z M 320 272 " clip-rule="nonzero"/></clipPath><clipPath id="7cbefcb907"><path d="M 353.796875 209.492188 L 370.09375 265.679688 L 320.390625 280.09375 L 304.09375 223.910156 Z M 353.796875 209.492188 " clip-rule="nonzero"/></clipPath><clipPath id="b52b73c1ed"><path d="M 353.796875 209.492188 L 370.09375 265.679688 L 320.390625 280.09375 L 304.09375 223.910156 Z M 353.796875 209.492188 " clip-rule="nonzero"/></clipPath><clipPath id="99f6950bf3"><path d="M 353.796875 209.492188 L 370.09375 265.679688 L 320.390625 280.09375 L 304.09375 223.910156 Z M 353.796875 209.492188 " clip-rule="nonzero"/></clipPath><clipPath id="16208b3726"><path d="M 325 214 L 341 214 L 341 275 L 325 275 Z M 325 214 " clip-rule="nonzero"/></clipPath><clipPath id="937a237db5"><path d="M 353.796875 209.492188 L 370.09375 265.679688 L 320.390625 280.09375 L 304.09375 223.910156 Z M 353.796875 209.492188 " clip-rule="nonzero"/></clipPath><clipPath id="d9e11f4982"><path d="M 353.796875 209.492188 L 370.09375 265.679688 L 320.390625 280.09375 L 304.09375 223.910156 Z M 353.796875 209.492188 " clip-rule="nonzero"/></clipPath><clipPath id="fc6a5f6c9d"><path d="M 353.796875 209.492188 L 370.09375 265.679688 L 320.390625 280.09375 L 304.09375 223.910156 Z M 353.796875 209.492188 " clip-rule="nonzero"/></clipPath><clipPath id="ba5bd0b806"><path d="M 332 228 L 360 228 L 360 270 L 332 270 Z M 332 228 " clip-rule="nonzero"/></clipPath><clipPath id="ac3a989472"><path d="M 353.796875 209.492188 L 370.09375 265.679688 L 320.390625 280.09375 L 304.09375 223.910156 Z M 353.796875 209.492188 " clip-rule="nonzero"/></clipPath><clipPath id="1a7510e379"><path d="M 353.796875 209.492188 L 370.09375 265.679688 L 320.390625 280.09375 L 304.09375 223.910156 Z M 353.796875 209.492188 " clip-rule="nonzero"/></clipPath><clipPath id="611301b29d"><path d="M 353.796875 209.492188 L 370.09375 265.679688 L 320.390625 280.09375 L 304.09375 223.910156 Z M 353.796875 209.492188 " clip-rule="nonzero"/></clipPath><clipPath id="75ad3d1478"><path d="M 338 225 L 359 225 L 359 255 L 338 255 Z M 338 225 " clip-rule="nonzero"/></clipPath><clipPath id="fed5bc2705"><path d="M 353.796875 209.492188 L 370.09375 265.679688 L 320.390625 280.09375 L 304.09375 223.910156 Z M 353.796875 209.492188 " clip-rule="nonzero"/></clipPath><clipPath id="2d0e03b887"><path d="M 353.796875 209.492188 L 370.09375 265.679688 L 320.390625 280.09375 L 304.09375 223.910156 Z M 353.796875 209.492188 " clip-rule="nonzero"/></clipPath><clipPath id="39878aceae"><path d="M 353.796875 209.492188 L 370.09375 265.679688 L 320.390625 280.09375 L 304.09375 223.910156 Z M 353.796875 209.492188 " clip-rule="nonzero"/></clipPath><clipPath id="079b15141b"><path d="M 334 217 L 338 217 L 338 221 L 334 221 Z M 334 217 " clip-rule="nonzero"/></clipPath><clipPath id="46547509ba"><path d="M 353.796875 209.492188 L 370.09375 265.679688 L 320.390625 280.09375 L 304.09375 223.910156 Z M 353.796875 209.492188 " clip-rule="nonzero"/></clipPath><clipPath id="8d6d51a604"><path d="M 353.796875 209.492188 L 370.09375 265.679688 L 320.390625 280.09375 L 304.09375 223.910156 Z M 353.796875 209.492188 " clip-rule="nonzero"/></clipPath><clipPath id="97e29fcbdb"><path d="M 353.796875 209.492188 L 370.09375 265.679688 L 320.390625 280.09375 L 304.09375 223.910156 Z M 353.796875 209.492188 " clip-rule="nonzero"/></clipPath><clipPath id="724219d624"><path d="M 328 269 L 331 269 L 331 271 L 328 271 Z M 328 269 " clip-rule="nonzero"/></clipPath><clipPath id="87991a66e2"><path d="M 353.796875 209.492188 L 370.09375 265.679688 L 320.390625 280.09375 L 304.09375 223.910156 Z M 353.796875 209.492188 " clip-rule="nonzero"/></clipPath><clipPath id="c0350b67e1"><path d="M 353.796875 209.492188 L 370.09375 265.679688 L 320.390625 280.09375 L 304.09375 223.910156 Z M 353.796875 209.492188 " clip-rule="nonzero"/></clipPath><clipPath id="c0d0f3d808"><path d="M 353.796875 209.492188 L 370.09375 265.679688 L 320.390625 280.09375 L 304.09375 223.910156 Z M 353.796875 209.492188 " clip-rule="nonzero"/></clipPath><clipPath id="71f413a443"><path d="M 350 228 L 356 228 L 356 236 L 350 236 Z M 350 228 " clip-rule="nonzero"/></clipPath><clipPath id="0d608d9b10"><path d="M 353.796875 209.492188 L 370.09375 265.679688 L 320.390625 280.09375 L 304.09375 223.910156 Z M 353.796875 209.492188 " clip-rule="nonzero"/></clipPath><clipPath id="eae73e80d1"><path d="M 353.796875 209.492188 L 370.09375 265.679688 L 320.390625 280.09375 L 304.09375 223.910156 Z M 353.796875 209.492188 " clip-rule="nonzero"/></clipPath><clipPath id="be79a7e9ae"><path d="M 353.796875 209.492188 L 370.09375 265.679688 L 320.390625 280.09375 L 304.09375 223.910156 Z M 353.796875 209.492188 " clip-rule="nonzero"/></clipPath><clipPath id="75d3deaaf2"><path d="M 344 237 L 350 237 L 350 244 L 344 244 Z M 344 237 " clip-rule="nonzero"/></clipPath><clipPath id="c8a847e47c"><path d="M 353.796875 209.492188 L 370.09375 265.679688 L 320.390625 280.09375 L 304.09375 223.910156 Z M 353.796875 209.492188 " clip-rule="nonzero"/></clipPath><clipPath id="ca858a22ba"><path d="M 353.796875 209.492188 L 370.09375 265.679688 L 320.390625 280.09375 L 304.09375 223.910156 Z M 353.796875 209.492188 " clip-rule="nonzero"/></clipPath><clipPath id="4b3f8926dc"><path d="M 353.796875 209.492188 L 370.09375 265.679688 L 320.390625 280.09375 L 304.09375 223.910156 Z M 353.796875 209.492188 " clip-rule="nonzero"/></clipPath></defs><g clip-path="url(#8c17373a2f)"><path stroke-linecap="butt" transform="matrix(2.383794, 0, 0, 2.385984, -123.260013, -228.054009)" fill="none" stroke-linejoin="miter" d="M 78.98478 189.000595 C 84.063016 186.400776 87.373127 190.677051 84.239992 194.940229 L 84.239992 208.440292 C 113.10515 186.941041 148.302127 191.258245 176.03988 207.900028 L 175.931728 194.940229 C 169.029654 190.614839 175.017351 184.01379 180.359413 189.539222 L 188.639608 183.887728 C 159.015746 160.418968 98.57507 161.833478 70.740635 184.067816 Z M 78.98478 189.000595 " stroke="#040404" stroke-width="1.658" stroke-opacity="1" stroke-miterlimit="4"/></g><g clip-path="url(#8d60c5cbda)"><path stroke-linecap="butt" transform="matrix(2.383794, 0, 0, 2.385984, -123.260013, -228.054009)" fill="none" stroke-linejoin="miter" d="M 107.058461 146.103597 L 90.181806 145.59935 L 100.5087 166.003337 " stroke="#010101" stroke-width="1.658" stroke-opacity="1" stroke-miterlimit="4"/></g><path stroke-linecap="butt" transform="matrix(2.383794, 0, 0, 2.385984, -123.260013, -228.054009)" fill="none" stroke-linejoin="miter" d="M 109.577095 151.897524 L 87.158462 151.6454 L 94.716004 167.768201 " stroke="#000000" stroke-width="1.658" stroke-opacity="1" stroke-miterlimit="4"/><path stroke-linecap="butt" transform="matrix(2.383794, 0, 0, 2.385984, -123.260013, -228.054009)" fill="none" stroke-linejoin="miter" d="M 149.336127 151.897524 L 171.756399 151.6454 L 164.198857 167.768201 " stroke="#040404" stroke-width="1.658" stroke-opacity="1" stroke-miterlimit="4"/><g clip-path="url(#8fe5308b4b)"><path stroke-linecap="butt" transform="matrix(2.383794, 0, 0, 2.385984, -123.260013, -228.054009)" fill="none" stroke-linejoin="miter" d="M 152.064511 146.103597 L 168.941165 145.59935 L 158.614272 166.003337 " stroke="#030303" stroke-width="1.658" stroke-opacity="1" stroke-miterlimit="4"/></g><path stroke-linecap="butt" transform="matrix(2.383794, 0, 0, 2.385984, -123.260013, -228.054009)" fill="none" stroke-linejoin="miter" d="M 109.074024 201.019023 L 112.852795 209.583033 " stroke="#070707" stroke-width="1.658" stroke-opacity="1" stroke-miterlimit="4"/><path stroke-linecap="butt" transform="matrix(2.383794, 0, 0, 2.385984, -123.260013, -228.054009)" fill="none" stroke-linejoin="miter" d="M 149.881804 201.019023 L 145.852316 209.078786 " stroke="#030303" stroke-width="1.658" stroke-opacity="1" stroke-miterlimit="4"/><g clip-path="url(#fe1c3373b9)"><path stroke-linecap="butt" transform="matrix(2.383794, 0, 0, 2.385984, -123.260013, -228.054009)" fill="none" stroke-linejoin="miter" d="M 121.416481 230.239144 L 129.72945 247.873049 L 137.286992 230.743391 " stroke="#050505" stroke-width="1.658" stroke-opacity="1" stroke-miterlimit="4"/></g><path stroke-linecap="butt" transform="matrix(2.383794, 0, 0, 2.385984, -123.260013, -228.054009)" fill="none" stroke-linejoin="miter" d="M 94.211294 215.37696 C 94.211294 215.444084 94.199823 215.507933 94.173605 215.570146 C 94.147386 215.632358 94.111335 215.686384 94.063814 215.733862 C 94.017931 215.78134 93.962216 215.817358 93.901586 215.841915 C 93.839316 215.86811 93.775408 215.881207 93.708223 215.881207 C 93.641037 215.881207 93.577129 215.86811 93.51486 215.841915 C 93.45259 215.817358 93.398514 215.78134 93.350993 215.733862 C 93.30511 215.686384 93.267421 215.632358 93.242841 215.570146 C 93.216622 215.507933 93.203513 215.444084 93.203513 215.37696 C 93.203513 215.309836 93.216622 215.245987 93.242841 215.183775 C 93.267421 215.121562 93.30511 215.067536 93.350993 215.020058 C 93.398514 214.97258 93.45259 214.936563 93.51486 214.912005 C 93.577129 214.885811 93.641037 214.872713 93.708223 214.872713 C 93.775408 214.872713 93.839316 214.885811 93.901586 214.912005 C 93.962216 214.936563 94.017931 214.97258 94.063814 215.020058 C 94.111335 215.067536 94.147386 215.121562 94.173605 215.183775 C 94.199823 215.245987 94.211294 215.309836 94.211294 215.37696 Z M 94.211294 215.37696 " stroke="#040404" stroke-width="1.658" stroke-opacity="1" stroke-miterlimit="4"/><path stroke-linecap="butt" transform="matrix(2.383794, 0, 0, 2.385984, -123.260013, -228.054009)" fill="none" stroke-linejoin="miter" d="M 166.760097 214.872713 C 166.760097 214.939837 166.746987 215.003687 166.722407 215.065899 C 166.696189 215.128111 166.660138 215.182138 166.612616 215.229615 C 166.565095 215.277093 166.511019 215.313111 166.448749 215.339305 C 166.38648 215.363863 166.322572 215.37696 166.255387 215.37696 C 166.18984 215.37696 166.124293 215.363863 166.063662 215.339305 C 166.001393 215.313111 165.947317 215.277093 165.899795 215.229615 C 165.852274 215.182138 165.816223 215.128111 165.790004 215.065899 C 165.765424 215.003687 165.752315 214.939837 165.752315 214.872713 C 165.752315 214.80559 165.765424 214.74174 165.790004 214.679528 C 165.816223 214.618953 165.852274 214.563289 165.899795 214.515811 C 165.947317 214.469971 166.001393 214.432316 166.063662 214.407758 C 166.124293 214.381564 166.18984 214.368467 166.255387 214.368467 C 166.322572 214.368467 166.38648 214.381564 166.448749 214.407758 C 166.511019 214.432316 166.565095 214.469971 166.612616 214.515811 C 166.660138 214.563289 166.696189 214.618953 166.722407 214.679528 C 166.746987 214.74174 166.760097 214.80559 166.760097 214.872713 Z M 166.760097 214.872713 " stroke="#000000" stroke-width="1.658" stroke-opacity="1" stroke-miterlimit="4"/><path stroke-linecap="butt" transform="matrix(1.070312, 0, 0, 1.070312, -10.226475, -117.059503)" fill-opacity="1" fill="#000000" fill-rule="nonzero" stroke-linejoin="miter" d="M 150.543715 180.920558 L 145.671452 182.413258 C 152.109408 192.789171 148.175101 204.843915 146.474372 216.475302 L 149.948824 210.311069 C 147.638605 219.146835 145.372182 227.223477 147.769992 237.668733 C 149.28824 231.843915 150.379481 225.376762 153.645904 219.128587 C 152.561963 227.09574 150.682401 231.938806 154.08751 238.829317 C 161.967072 252.208879 182.901379 252.668733 184.952474 261.69428 C 186.543715 253.19793 179.598459 249.172383 175.799189 245.621288 C 181.196999 248.325667 184.99262 250.807419 189.39408 256.365813 C 194.284591 253.011799 199.434226 250.540996 202.021817 244.975302 C 202.514518 248.756324 202.383131 250.792821 200.058313 254.128587 C 207.930576 246.176032 212.408678 241.690631 211.248094 229.679682 C 213.313788 233.354864 214.113058 237.230777 214.802839 241.427857 C 215.802839 232.150485 216.218897 225.088441 212.215248 216.387711 C 220.441525 212.537346 223.839335 210.033696 225.441525 200.960704 C 220.083861 209.829317 217.306488 213.843915 207.996269 204.103039 L 213.39043 206.533696 C 209.620357 202.420558 207.29189 198.785521 201.145905 197.613988 C 198.357583 200.650485 196.065613 201.39501 194.456123 197.942456 C 187.051014 199.537346 181.759043 202.511799 176.875831 208.887711 C 179.580211 208.752675 183.102109 202.880412 184.324737 206.457054 C 179.6897 214.077492 173.956123 212.90231 169.817437 202.811069 C 169.726196 207.548295 169.459773 210.752675 172.459773 214.719828 C 163.678751 210.865813 159.069262 206.121288 155.153204 198.252674 L 163.769992 205.741726 C 157.299189 198.603039 151.68605 191.081142 150.543715 180.920558 Z M 193.237145 207.135886 C 194.780941 207.121288 196.368532 207.216178 197.937875 207.358514 C 218.671452 211.530047 200.065613 231.964353 199.737145 213.749025 L 191.134956 214.420558 C 195.948824 219.756324 194.28824 222.270923 189.058313 223.070193 C 184.704299 223.39501 180.970722 220.486251 180.39408 218.015448 C 180.645904 209.289171 186.540065 207.20158 193.237145 207.135886 Z M 193.237145 207.135886 " stroke="#000000" stroke-width="0.246" stroke-opacity="1" stroke-miterlimit="4"/><path fill="#000000" d="M 168.214844 66.070312 L 168.707031 69.105469 C 158.464844 71.324219 150.128906 73.914062 140.914062 77.195312 C 148.097656 71.074219 159.78125 68.023438 168.214844 66.070312 Z M 168.214844 66.070312 " fill-opacity="1" fill-rule="nonzero"/><path fill="#000000" d="M 184.378906 62.847656 C 179.464844 62.808594 174.46875 63.792969 168.898438 66.03125 L 169.542969 68.859375 C 174.464844 75.941406 166.605469 90.707031 187.875 85.421875 C 198.117188 82.71875 197.285156 70.273438 201.574219 68.792969 C 205.277344 72.566406 203.246094 82.246094 208.484375 84.421875 C 218.902344 88.03125 226.378906 86.796875 227.042969 71.007812 L 229.277344 69.148438 L 229.378906 64.125 C 225.851562 65.4375 215.71875 60.214844 206.261719 65.226562 L 199.355469 65.792969 C 194.121094 63.945312 189.292969 62.886719 184.378906 62.847656 Z M 185.101562 64.457031 C 189.449219 64.453125 194.054688 65.785156 196.6875 68.269531 C 193.582031 68.183594 188.136719 68.378906 185.097656 69.699219 C 183.179688 71.238281 184.859375 74.523438 181.375 75.160156 C 178.5 75.683594 176.035156 75.699219 174.632812 73.601562 C 172.929688 67.324219 178.742188 64.464844 185.101562 64.457031 Z M 214.320312 65.121094 C 218.988281 65.140625 223.210938 67.113281 225.488281 69.917969 L 222.550781 68.296875 C 214.761719 65.027344 209.214844 74.679688 206.867188 73.257812 C 204.707031 72.488281 205.527344 67.332031 211.035156 65.433594 C 212.144531 65.214844 213.242188 65.117188 214.320312 65.121094 Z M 214.320312 65.121094 " fill-opacity="1" fill-rule="nonzero"/><path fill="#000000" d="M 142.902344 73.472656 L 150.511719 67.847656 C 151.867188 58.222656 155.0625 50.191406 159.800781 41.953125 C 157.414062 48.628906 156.402344 54.585938 157.472656 61.621094 C 157.933594 56.179688 159.484375 51.125 162.351562 47.914062 C 163.828125 46.253906 165.65625 45.085938 167.863281 44.605469 C 169.152344 45.785156 169.09375 46.441406 168.996094 48.078125 C 178.089844 38.851562 165.105469 30.625 161.285156 32.46875 C 170.292969 31.453125 179.675781 32.640625 189.175781 34.59375 C 184.390625 31.96875 179.285156 30.199219 178.617188 25.167969 C 184.992188 30.835938 194.507812 30.28125 203.28125 31.339844 C 199.179688 32.503906 195.40625 32.078125 191.273438 31.605469 C 200.75 36.378906 216.5 38.128906 217.816406 31.257812 C 215.652344 30.71875 214.324219 31.308594 213.65625 29.183594 C 217.621094 26.574219 220.449219 30.4375 219.882812 34.859375 C 226.304688 26.152344 210.210938 21.363281 204.402344 19.746094 C 208.652344 19.394531 211.976562 20.5625 215.8125 22.074219 C 209.410156 14.675781 197.894531 15.34375 191.503906 14.921875 C 195.808594 14.414062 199.726562 13.847656 204.253906 15.328125 C 193.019531 7.941406 181.425781 14.570312 172.542969 18.894531 C 177.097656 14.367188 181.960938 12.664062 187.949219 11.097656 C 166.621094 11.484375 147.921875 31.539062 144.546875 44.691406 C 146.347656 41.640625 148.351562 38.089844 151.042969 36.582031 C 142.226562 48.824219 141.25 59.832031 142.902344 73.472656 Z M 142.902344 73.472656 " fill-opacity="1" fill-rule="nonzero"/><g clip-path="url(#0be32a4853)"><g clip-path="url(#c9b50fe417)"><path fill="#ffffff" d="M 84.652344 260.824219 L 113.855469 260.824219 L 113.855469 290.027344 L 84.652344 290.027344 Z M 84.652344 260.824219 " fill-opacity="1" fill-rule="nonzero"/></g></g><g fill="#000000" fill-opacity="1"><g transform="translate(49.960829, 355.808504)"><g><path d="M 15.671875 -9.5625 L 1.84375 -1.125 L 1.578125 -1.5625 L 2.140625 -1.90625 C 3.191406 -2.550781 3.71875 -3.492188 3.71875 -4.734375 C 3.695312 -5.273438 3.550781 -5.804688 3.28125 -6.328125 L -11.546875 -30.65625 C -12.046875 -31.394531 -12.722656 -31.863281 -13.578125 -32.0625 C -14.429688 -32.257812 -15.238281 -32.128906 -16 -31.671875 L -16.5625 -31.328125 L -16.84375 -31.765625 L -4.15625 -39.5 C -0.769531 -41.5625 2.296875 -42.585938 5.046875 -42.578125 C 7.796875 -42.578125 9.957031 -41.316406 11.53125 -38.796875 C 12.289062 -37.484375 12.695312 -36.1875 12.75 -34.90625 C 12.894531 -32.519531 12.007812 -30.5625 10.09375 -29.03125 C 12.46875 -30.195312 14.832031 -30.488281 17.1875 -29.90625 C 19.550781 -29.320312 21.425781 -27.890625 22.8125 -25.609375 C 24.488281 -22.867188 24.671875 -20.085938 23.359375 -17.265625 C 22.054688 -14.453125 19.492188 -11.882812 15.671875 -9.5625 Z M 4.890625 -33.96875 C 2.335938 -38.0625 -0.785156 -38.976562 -4.484375 -36.71875 L -5.75 -35.953125 L 10.546875 -9.203125 L 12.5625 -10.421875 C 12.582031 -10.441406 12.609375 -10.457031 12.640625 -10.46875 C 14.648438 -11.695312 15.898438 -13.257812 16.390625 -15.15625 C 16.890625 -17.0625 16.410156 -19.207031 14.953125 -21.59375 C 13.492188 -23.988281 11.734375 -25.359375 9.671875 -25.703125 C 7.617188 -26.054688 5.523438 -25.582031 3.390625 -24.28125 L 3.140625 -24.671875 C 4.660156 -25.597656 5.628906 -26.859375 6.046875 -28.453125 C 6.472656 -30.054688 6.085938 -31.894531 4.890625 -33.96875 Z M 4.890625 -33.96875 "/></g></g></g><g fill="#000000" fill-opacity="1"><g transform="translate(77.680762, 338.65674)"><g><path d="M 34.5625 -15.359375 L 35 -15.546875 L 35.203125 -15.078125 L 20.171875 -8.640625 L 19.96875 -9.109375 L 20.390625 -9.296875 C 21.078125 -9.585938 21.492188 -10.015625 21.640625 -10.578125 C 21.796875 -11.140625 21.789062 -11.609375 21.625 -11.984375 C 21.46875 -12.367188 21.222656 -12.722656 20.890625 -13.046875 L 16.109375 -17.828125 L 5.09375 -13.109375 L 5.109375 -6.28125 C 5.128906 -5.789062 5.21875 -5.363281 5.375 -5 C 5.53125 -4.632812 5.867188 -4.316406 6.390625 -4.046875 C 6.921875 -3.773438 7.535156 -3.785156 8.234375 -4.078125 L 8.59375 -4.234375 L 8.796875 -3.765625 L -1.28125 0.546875 L -1.484375 0.078125 L -1.046875 -0.109375 C -0.328125 -0.410156 0.296875 -0.9375 0.828125 -1.6875 C 1.367188 -2.445312 1.6875 -3.363281 1.78125 -4.4375 L 2.09375 -33.765625 C 2.238281 -37.492188 2.144531 -39.878906 1.8125 -40.921875 L 2.25 -41.109375 L 29.390625 -16.375 C 30.253906 -15.675781 31.144531 -15.25 32.0625 -15.09375 C 32.976562 -14.945312 33.8125 -15.035156 34.5625 -15.359375 Z M 5.03125 -15.4375 L 14.46875 -19.46875 L 4.921875 -29.109375 Z M 5.03125 -15.4375 "/></g></g></g><g fill="#000000" fill-opacity="1"><g transform="translate(109.449562, 324.813309)"><g><path d="M 7.296875 -36.65625 L 5.171875 -36.09375 C 5.109375 -36.082031 5.054688 -36.070312 5.015625 -36.0625 L 12.546875 -7.140625 C 12.804688 -6.285156 13.320312 -5.628906 14.09375 -5.171875 C 14.863281 -4.722656 15.675781 -4.613281 16.53125 -4.84375 L 17.1875 -5 L 17.3125 -4.5 L 2.234375 -0.578125 L 2.109375 -1.078125 L 2.75 -1.25 C 3.9375 -1.5625 4.710938 -2.3125 5.078125 -3.5 C 5.222656 -4.019531 5.238281 -4.566406 5.125 -5.140625 L -2.046875 -32.6875 C -2.296875 -33.53125 -2.804688 -34.179688 -3.578125 -34.640625 C -4.347656 -35.097656 -5.164062 -35.210938 -6.03125 -34.984375 L -6.671875 -34.8125 L -6.796875 -35.3125 L 10.21875 -39.75 C 13.425781 -40.582031 16.316406 -40.585938 18.890625 -39.765625 C 20.203125 -39.367188 21.347656 -38.632812 22.328125 -37.5625 C 23.316406 -36.5 24.070312 -34.960938 24.59375 -32.953125 C 25.113281 -30.953125 24.914062 -28.84375 24 -26.625 C 23.09375 -24.414062 21.351562 -22.835938 18.78125 -21.890625 C 20.851562 -21.765625 22.914062 -20.742188 24.96875 -18.828125 C 30.03125 -14.046875 33.5625 -11.332031 35.5625 -10.6875 C 36.570312 -10.382812 37.726562 -10.382812 39.03125 -10.6875 L 39.15625 -10.1875 L 34.28125 -8.921875 C 31.40625 -8.171875 28.914062 -7.925781 26.8125 -8.1875 C 24.707031 -8.457031 22.863281 -9.410156 21.28125 -11.046875 C 20.375 -11.972656 18.269531 -14.441406 14.96875 -18.453125 C 13.507812 -20.222656 12.09375 -21.039062 10.71875 -20.90625 L 10.59375 -21.40625 L 12.109375 -21.8125 C 13.609375 -22.195312 14.8125 -22.984375 15.71875 -24.171875 C 16.625 -25.359375 17.015625 -27.015625 16.890625 -29.140625 C 16.847656 -29.859375 16.773438 -30.421875 16.671875 -30.828125 C 15.960938 -33.535156 14.90625 -35.347656 13.5 -36.265625 C 12.09375 -37.191406 10.523438 -37.453125 8.796875 -37.046875 C 8.460938 -36.953125 7.960938 -36.820312 7.296875 -36.65625 Z M 7.296875 -36.65625 "/></g></g></g><g fill="#000000" fill-opacity="1"><g transform="translate(144.560536, 315.664486)"><g><path d="M 18.25 -1.984375 L 2.140625 -0.234375 L 2.078125 -0.75 L 2.734375 -0.828125 C 3.960938 -0.953125 4.84375 -1.578125 5.375 -2.703125 C 5.59375 -3.203125 5.6875 -3.742188 5.65625 -4.328125 L 2.578125 -32.65625 C 2.441406 -33.539062 2.023438 -34.253906 1.328125 -34.796875 C 0.628906 -35.347656 -0.160156 -35.578125 -1.046875 -35.484375 L -1.703125 -35.40625 L -1.75 -35.90625 L 13.03125 -37.515625 C 16.96875 -37.941406 20.175781 -37.566406 22.65625 -36.390625 C 25.144531 -35.222656 26.570312 -33.171875 26.9375 -30.234375 C 27.050781 -28.722656 26.863281 -27.375 26.375 -26.1875 C 25.488281 -23.957031 23.851562 -22.5625 21.46875 -22 C 24.125 -22.039062 26.394531 -21.296875 28.28125 -19.765625 C 30.164062 -18.242188 31.253906 -16.15625 31.546875 -13.5 C 31.890625 -10.300781 30.867188 -7.703125 28.484375 -5.703125 C 26.109375 -3.710938 22.695312 -2.472656 18.25 -1.984375 Z M 18.84375 -28.671875 C 18.28125 -33.453125 15.84375 -35.609375 11.53125 -35.140625 L 10.0625 -34.984375 L 13.46875 -3.84375 L 15.8125 -4.09375 C 15.84375 -4.101562 15.875 -4.109375 15.90625 -4.109375 C 18.25 -4.359375 20.039062 -5.238281 21.28125 -6.75 C 22.53125 -8.269531 23.003906 -10.421875 22.703125 -13.203125 C 22.398438 -15.984375 21.390625 -17.96875 19.671875 -19.15625 C 17.960938 -20.351562 15.863281 -20.816406 13.375 -20.546875 L 13.328125 -21.015625 C 15.097656 -21.203125 16.515625 -21.925781 17.578125 -23.1875 C 18.640625 -24.445312 19.0625 -26.273438 18.84375 -28.671875 Z M 18.84375 -28.671875 "/></g></g></g><g fill="#000000" fill-opacity="1"><g transform="translate(177.060932, 312.066286)"><g><path d="M 2.828125 -0.4375 C 3.722656 -0.414062 4.492188 -0.710938 5.140625 -1.328125 C 5.785156 -1.941406 6.132812 -2.695312 6.1875 -3.59375 L 6.90625 -32.125 C 6.863281 -33.007812 6.625 -33.664062 6.1875 -34.09375 C 5.382812 -34.863281 4.554688 -35.257812 3.703125 -35.28125 L 3.046875 -35.3125 L 3.0625 -35.828125 L 22.6875 -35.328125 C 24.363281 -35.285156 25.75 -35.375 26.84375 -35.59375 C 27.9375 -35.820312 28.601562 -35.988281 28.84375 -36.09375 L 28.625 -27.125 L 28.109375 -27.1875 L 28.125 -27.75 C 28.175781 -29.863281 27.425781 -31.390625 25.875 -32.328125 C 25.144531 -32.773438 24.269531 -33.035156 23.25 -33.109375 L 14.640625 -33.328125 L 14.265625 -18.421875 L 21.03125 -18.25 C 22.289062 -18.25 23.335938 -18.65625 24.171875 -19.46875 C 25.015625 -20.289062 25.453125 -21.316406 25.484375 -22.546875 L 25.5 -23.015625 L 26 -23 L 25.703125 -11.15625 L 25.203125 -11.171875 L 25.21875 -11.578125 C 25.25 -12.835938 24.875 -13.890625 24.09375 -14.734375 C 23.3125 -15.578125 22.304688 -16.03125 21.078125 -16.09375 L 14.21875 -16.265625 L 13.859375 -1.859375 L 20.5625 -1.6875 C 23.0625 -1.625 25.171875 -2.289062 26.890625 -3.6875 C 28.617188 -5.082031 29.921875 -7.082031 30.796875 -9.6875 L 31.3125 -9.671875 L 28.6875 0.71875 L 2.15625 0.046875 L 2.171875 -0.46875 Z M 2.828125 -0.4375 "/></g></g></g><g fill="#000000" fill-opacity="1"><g transform="translate(207.512211, 312.552628)"><g><path d="M 37.40625 5.640625 L 37.859375 5.71875 L 37.78125 6.234375 L 21.640625 3.578125 L 21.71875 3.0625 L 22.1875 3.125 C 22.925781 3.25 23.507812 3.113281 23.9375 2.71875 C 24.375 2.332031 24.625 1.9375 24.6875 1.53125 C 24.757812 1.125 24.738281 0.703125 24.625 0.265625 L 23.171875 -6.359375 L 11.359375 -8.296875 L 7.6875 -2.53125 C 7.445312 -2.113281 7.296875 -1.707031 7.234375 -1.3125 C 7.171875 -0.925781 7.285156 -0.476562 7.578125 0.03125 C 7.867188 0.539062 8.382812 0.859375 9.125 0.984375 L 9.53125 1.046875 L 9.453125 1.5625 L -1.375 -0.21875 L -1.296875 -0.734375 L -0.828125 -0.671875 C -0.0546875 -0.535156 0.753906 -0.640625 1.609375 -0.984375 C 2.460938 -1.328125 3.21875 -1.929688 3.875 -2.796875 L 19.9375 -27.3125 C 22.0625 -30.382812 23.269531 -32.453125 23.5625 -33.515625 L 24.015625 -33.4375 L 33.578125 2.015625 C 33.929688 3.078125 34.453125 3.910156 35.140625 4.515625 C 35.835938 5.128906 36.59375 5.503906 37.40625 5.640625 Z M 12.546875 -10.296875 L 22.671875 -8.640625 L 19.8125 -21.875 Z M 12.546875 -10.296875 "/></g></g></g><g fill="#000000" fill-opacity="1"><g transform="translate(241.738463, 317.981493)"><g><path d="M 25.875 -26.953125 L 23.78125 -27.640625 C 23.71875 -27.660156 23.664062 -27.675781 23.625 -27.6875 L 14.40625 0.734375 C 14.175781 1.597656 14.257812 2.425781 14.65625 3.21875 C 15.0625 4.019531 15.6875 4.554688 16.53125 4.828125 L 17.171875 5.03125 L 17.015625 5.515625 L 2.203125 0.71875 L 2.359375 0.234375 L 2.984375 0.4375 C 4.148438 0.8125 5.210938 0.59375 6.171875 -0.21875 C 6.578125 -0.570312 6.878906 -1.023438 7.078125 -1.578125 L 15.859375 -28.65625 C 16.109375 -29.488281 16.03125 -30.304688 15.625 -31.109375 C 15.226562 -31.910156 14.601562 -32.445312 13.75 -32.71875 L 13.125 -32.921875 L 13.28125 -33.421875 L 30 -28 C 33.144531 -26.976562 35.585938 -25.429688 37.328125 -23.359375 C 38.210938 -22.316406 38.78125 -21.078125 39.03125 -19.640625 C 39.289062 -18.210938 39.101562 -16.515625 38.46875 -14.546875 C 37.832031 -12.578125 36.53125 -10.898438 34.5625 -9.515625 C 32.601562 -8.140625 30.285156 -7.75 27.609375 -8.34375 C 29.296875 -7.125 30.488281 -5.15625 31.1875 -2.4375 C 32.875 4.320312 34.382812 8.507812 35.71875 10.125 C 36.40625 10.925781 37.378906 11.550781 38.640625 12 L 38.484375 12.484375 L 33.6875 10.9375 C 30.863281 10.019531 28.640625 8.878906 27.015625 7.515625 C 25.390625 6.160156 24.34375 4.375 23.875 2.15625 C 23.613281 0.882812 23.164062 -2.332031 22.53125 -7.5 C 22.269531 -9.78125 21.519531 -11.226562 20.28125 -11.84375 L 20.4375 -12.34375 L 21.9375 -11.859375 C 23.40625 -11.378906 24.84375 -11.394531 26.25 -11.90625 C 27.65625 -12.425781 28.878906 -13.609375 29.921875 -15.453125 C 30.265625 -16.097656 30.5 -16.617188 30.625 -17.015625 C 31.488281 -19.679688 31.578125 -21.78125 30.890625 -23.3125 C 30.203125 -24.84375 29.019531 -25.898438 27.34375 -26.484375 C 27.019531 -26.585938 26.53125 -26.742188 25.875 -26.953125 Z M 25.875 -26.953125 "/></g></g></g><g fill="#000000" fill-opacity="1"><g transform="translate(276.460677, 329.712455)"><g><path d="M 2.78125 0.703125 C 3.59375 1.078125 4.414062 1.109375 5.25 0.796875 C 6.082031 0.484375 6.695312 -0.0664062 7.09375 -0.859375 L 18.953125 -26.703125 C 19.304688 -27.546875 19.320312 -28.375 19 -29.1875 C 18.6875 -30.007812 18.125 -30.609375 17.3125 -30.984375 L 16.703125 -31.25 L 16.921875 -31.71875 L 31.09375 -25.234375 L 30.828125 -24.78125 L 30.265625 -25.03125 C 29.453125 -25.40625 28.625 -25.445312 27.78125 -25.15625 C 26.945312 -24.875 26.34375 -24.320312 25.96875 -23.5 L 14.109375 2.34375 C 13.734375 3.15625 13.707031 3.984375 14.03125 4.828125 C 14.351562 5.671875 14.921875 6.28125 15.734375 6.65625 L 16.296875 6.90625 L 16.125 7.390625 L 1.953125 0.90625 L 2.171875 0.4375 Z M 2.78125 0.703125 "/></g></g></g><g fill="#000000" fill-opacity="1"><g transform="translate(293.27657, 336.800303)"><g><path d="M 32.65625 19.109375 L 33.046875 19.359375 L 32.78125 19.796875 L 18.78125 11.34375 L 19.046875 10.90625 L 19.453125 11.140625 C 20.085938 11.523438 20.675781 11.613281 21.21875 11.40625 C 21.769531 11.195312 22.148438 10.914062 22.359375 10.5625 C 22.566406 10.21875 22.707031 9.820312 22.78125 9.375 L 23.875 2.6875 L 13.609375 -3.5 L 8.078125 0.5 C 7.703125 0.789062 7.410156 1.101562 7.203125 1.4375 C 7.003906 1.78125 6.945312 2.242188 7.03125 2.828125 C 7.113281 3.421875 7.476562 3.910156 8.125 4.296875 L 8.46875 4.515625 L 8.203125 4.953125 L -1.1875 -0.71875 L -0.921875 -1.15625 L -0.53125 -0.90625 C 0.144531 -0.507812 0.941406 -0.3125 1.859375 -0.3125 C 2.785156 -0.320312 3.710938 -0.601562 4.640625 -1.15625 L 28.640625 -18 C 31.753906 -20.050781 33.640625 -21.519531 34.296875 -22.40625 L 34.703125 -22.15625 L 30.453125 14.3125 C 30.378906 15.414062 30.550781 16.382812 30.96875 17.21875 C 31.382812 18.050781 31.945312 18.679688 32.65625 19.109375 Z M 15.46875 -4.921875 L 24.265625 0.390625 L 26.515625 -12.96875 Z M 15.46875 -4.921875 "/></g></g></g><g clip-path="url(#21d941c692)"><g clip-path="url(#5e43ec3155)"><path fill="#ffffff" d="M 258.78125 260.824219 L 287.984375 260.824219 L 287.984375 290.027344 L 258.78125 290.027344 Z M 258.78125 260.824219 " fill-opacity="1" fill-rule="nonzero"/></g></g><path fill="#000000" d="M 47.402344 263.136719 L 43.773438 263.898438 C 44.175781 264.039062 44.59375 264.097656 45.035156 264.097656 C 45.316406 264.097656 45.597656 264.058594 45.878906 263.980469 C 46.460938 263.820312 46.980469 263.519531 47.402344 263.136719 Z M 47.402344 263.136719 " fill-opacity="1" fill-rule="nonzero"/><path fill="#000000" d="M 46.441406 257.171875 L 42.269531 258.03125 C 42.007812 258.3125 41.808594 258.652344 41.648438 258.992188 L 47.421875 257.792969 C 47.121094 257.550781 46.800781 257.332031 46.441406 257.171875 Z M 46.441406 257.171875 " fill-opacity="1" fill-rule="nonzero"/><path fill="#000000" d="M 44.035156 256.972656 C 44.035156 256.972656 44.015625 256.972656 44.015625 256.972656 L 44.457031 256.871094 C 44.316406 256.910156 44.175781 256.929688 44.035156 256.972656 Z M 44.035156 256.972656 " fill-opacity="1" fill-rule="nonzero"/><path fill="#000000" d="M 42.8125 263.378906 L 48.085938 262.296875 C 48.246094 262.015625 48.386719 261.695312 48.464844 261.375 L 42.371094 262.636719 C 42.167969 262.675781 41.988281 262.578125 41.949219 262.417969 L 41.929688 262.355469 C 41.886719 262.195312 42.027344 262.015625 42.230469 261.976562 L 48.585938 260.65625 C 48.585938 260.574219 48.585938 260.476562 48.585938 260.394531 C 48.585938 260.195312 48.566406 260.015625 48.527344 259.835938 L 42.070312 261.175781 C 41.867188 261.214844 41.6875 261.117188 41.648438 260.957031 L 41.628906 260.894531 C 41.585938 260.734375 41.726562 260.554688 41.929688 260.515625 L 48.34375 259.195312 C 48.246094 258.933594 48.105469 258.671875 47.945312 258.433594 L 41.769531 259.714844 C 41.648438 259.734375 41.527344 259.714844 41.449219 259.652344 C 41.367188 259.953125 41.347656 260.253906 41.347656 260.574219 C 41.367188 261.535156 41.769531 262.4375 42.46875 263.097656 C 42.570312 263.199219 42.691406 263.296875 42.8125 263.378906 Z M 42.8125 263.378906 " fill-opacity="1" fill-rule="nonzero"/><path fill="#000000" d="M 51.472656 274.53125 L 45.097656 275.855469 C 44.894531 275.894531 44.714844 275.792969 44.675781 275.632812 C 44.636719 275.472656 44.777344 275.292969 44.976562 275.253906 L 52.035156 273.792969 L 51.875 272.988281 L 44.816406 274.453125 C 44.617188 274.492188 44.433594 274.390625 44.394531 274.230469 L 44.375 274.171875 C 44.335938 274.011719 44.476562 273.832031 44.675781 273.792969 L 51.734375 272.328125 L 51.574219 271.527344 L 44.515625 272.988281 C 44.316406 273.03125 44.132812 272.929688 44.09375 272.769531 L 44.074219 272.710938 C 44.035156 272.550781 44.175781 272.371094 44.375 272.328125 L 51.433594 270.867188 L 51.351562 270.445312 C 51.191406 270.347656 51.03125 270.246094 50.890625 270.148438 L 44.214844 271.527344 C 44.015625 271.570312 43.832031 271.46875 43.792969 271.308594 L 43.773438 271.246094 C 43.734375 271.085938 43.875 270.90625 44.074219 270.867188 L 50.25 269.585938 C 50.128906 269.464844 49.988281 269.34375 49.890625 269.207031 C 49.789062 269.085938 49.667969 268.984375 49.527344 268.886719 L 43.914062 270.046875 C 43.714844 270.085938 43.53125 269.988281 43.492188 269.828125 L 43.472656 269.765625 C 43.433594 269.605469 43.574219 269.425781 43.773438 269.386719 L 48.503906 268.40625 C 48.085938 268.304688 47.644531 268.304688 47.242188 268.40625 C 47.242188 268.40625 47.121094 268.445312 47.082031 268.445312 C 46.378906 268.625 45.636719 268.726562 44.917969 268.703125 C 44.433594 268.703125 43.972656 268.644531 43.511719 268.566406 C 43.472656 268.566406 43.453125 268.566406 43.414062 268.542969 C 39.945312 267.863281 37.214844 265.019531 36.816406 261.417969 L 36.796875 261.316406 C 36.613281 259.535156 35.933594 257.890625 34.871094 256.570312 L 38.5 273.992188 C 39.101562 276.835938 42.488281 278.457031 45.820312 277.476562 L 51.835938 275.695312 C 52.175781 275.59375 52.394531 275.292969 52.335938 274.992188 C 52.214844 274.652344 51.855469 274.453125 51.472656 274.53125 Z M 51.472656 274.53125 " fill-opacity="1" fill-rule="nonzero"/><path fill="#000000" d="M 47.664062 252.707031 L 47.582031 252.324219 L 46.863281 252.484375 C 47.121094 252.546875 47.402344 252.625 47.664062 252.707031 Z M 47.664062 252.707031 " fill-opacity="1" fill-rule="nonzero"/><path fill="#000000" d="M 33.105469 248.28125 L 35.070312 250.203125 C 37.214844 252.304688 40.203125 253.144531 43.050781 252.484375 C 43.511719 252.386719 43.972656 252.304688 44.433594 252.285156 L 47.421875 251.664062 L 47.261719 250.863281 L 40.203125 252.324219 C 40.003906 252.363281 39.824219 252.265625 39.78125 252.105469 L 39.761719 252.042969 C 39.722656 251.882812 39.863281 251.703125 40.0625 251.664062 L 47.121094 250.203125 L 46.960938 249.402344 L 39.902344 250.863281 C 39.703125 250.902344 39.523438 250.804688 39.480469 250.644531 L 39.460938 250.582031 C 39.421875 250.421875 39.5625 250.242188 39.761719 250.203125 L 46.820312 248.742188 L 46.660156 247.941406 L 39.601562 249.402344 C 39.402344 249.441406 39.222656 249.339844 39.179688 249.179688 C 39.140625 249.019531 39.28125 248.839844 39.480469 248.800781 L 46.300781 247.378906 C 46.441406 247.359375 46.519531 247.238281 46.5 247.140625 C 46.480469 247.039062 46.359375 246.957031 46.21875 246.980469 L 39.300781 248.421875 C 39.160156 248.460938 39.019531 248.378906 39 248.261719 L 39 248.238281 C 38.980469 248.121094 39.082031 248 39.222656 247.960938 L 46.140625 246.519531 C 46.28125 246.5 46.359375 246.378906 46.339844 246.277344 C 46.320312 246.175781 46.199219 246.097656 46.058594 246.117188 L 39.140625 247.558594 C 39 247.597656 38.859375 247.519531 38.839844 247.398438 L 38.839844 247.378906 C 38.820312 247.257812 38.921875 247.140625 39.0625 247.097656 L 45.980469 245.65625 C 46.121094 245.636719 46.199219 245.515625 46.179688 245.417969 C 46.160156 245.316406 46.039062 245.238281 45.898438 245.257812 L 38.980469 246.699219 C 38.839844 246.738281 38.699219 246.660156 38.679688 246.539062 L 38.679688 246.519531 C 38.660156 246.398438 38.761719 246.277344 38.902344 246.238281 L 45.820312 244.796875 C 45.960938 244.777344 46.039062 244.65625 46.019531 244.554688 C 46 244.4375 45.878906 244.375 45.738281 244.394531 L 38.820312 245.835938 C 38.679688 245.878906 38.539062 245.796875 38.519531 245.675781 L 38.519531 245.65625 C 38.5 245.535156 38.601562 245.417969 38.742188 245.375 L 45.660156 243.933594 C 45.796875 243.914062 45.878906 243.792969 45.859375 243.695312 C 45.839844 243.574219 45.71875 243.515625 45.578125 243.535156 L 38.660156 244.976562 C 38.519531 245.015625 38.378906 244.9375 38.359375 244.816406 L 38.359375 244.796875 C 38.339844 244.675781 38.441406 244.554688 38.578125 244.515625 L 45.496094 243.074219 C 45.636719 243.054688 45.71875 242.933594 45.699219 242.832031 C 45.679688 242.714844 45.558594 242.652344 45.417969 242.671875 L 38.5 244.113281 C 38.359375 244.15625 38.21875 244.074219 38.199219 243.953125 L 38.199219 243.933594 C 38.179688 243.816406 38.277344 243.695312 38.417969 243.65625 L 45.335938 242.214844 C 45.476562 242.191406 45.558594 242.074219 45.539062 241.972656 C 45.519531 241.851562 45.398438 241.792969 45.257812 241.8125 L 38.339844 243.253906 C 38.199219 243.292969 38.058594 243.214844 38.039062 243.09375 L 38.039062 243.074219 C 38.019531 242.953125 38.117188 242.832031 38.257812 242.792969 L 45.175781 241.351562 C 45.316406 241.332031 45.398438 241.210938 45.378906 241.113281 C 45.359375 240.992188 45.238281 240.929688 45.097656 240.953125 L 38.179688 242.394531 C 38.039062 242.433594 37.898438 242.351562 37.878906 242.234375 L 37.878906 242.214844 C 37.859375 242.09375 37.957031 241.972656 38.097656 241.933594 L 45.015625 240.492188 C 45.15625 240.472656 45.238281 240.351562 45.21875 240.25 C 45.195312 240.128906 45.078125 240.070312 44.9375 240.089844 L 38.019531 241.53125 C 37.878906 241.570312 37.738281 241.492188 37.71875 241.371094 L 37.71875 241.351562 C 37.699219 241.230469 37.796875 241.113281 37.9375 241.070312 L 44.855469 239.628906 C 44.996094 239.609375 45.078125 239.488281 45.058594 239.390625 C 45.035156 239.269531 44.917969 239.210938 44.777344 239.230469 L 37.859375 240.671875 C 37.71875 240.710938 37.578125 240.632812 37.558594 240.511719 L 37.558594 240.492188 C 37.539062 240.371094 37.636719 240.25 37.777344 240.210938 L 44.695312 238.769531 C 44.835938 238.75 44.917969 238.628906 44.894531 238.527344 C 44.875 238.410156 44.757812 238.347656 44.617188 238.367188 L 37.699219 239.808594 C 37.558594 239.851562 37.417969 239.769531 37.398438 239.648438 L 37.398438 239.628906 C 37.375 239.507812 37.476562 239.390625 37.617188 239.347656 L 44.535156 237.90625 C 44.675781 237.886719 44.757812 237.765625 44.734375 237.667969 C 44.714844 237.566406 44.59375 237.488281 44.457031 237.507812 L 37.539062 238.949219 C 37.398438 238.988281 37.257812 238.910156 37.238281 238.789062 L 37.238281 238.769531 C 37.214844 238.648438 37.316406 238.527344 37.457031 238.488281 L 44.375 237.046875 C 44.515625 237.027344 44.59375 236.90625 44.574219 236.804688 C 44.554688 236.6875 44.433594 236.625 44.292969 236.644531 L 37.375 238.089844 C 37.238281 238.128906 37.097656 238.046875 37.074219 237.925781 L 37.074219 237.90625 C 37.054688 237.789062 37.15625 237.667969 37.296875 237.628906 L 44.214844 236.1875 C 44.355469 236.164062 44.433594 236.046875 44.414062 235.945312 C 44.394531 235.824219 44.273438 235.765625 44.132812 235.785156 L 37.214844 237.226562 C 37.074219 237.265625 36.9375 237.1875 36.914062 237.066406 L 36.914062 237.046875 C 36.894531 236.925781 36.996094 236.804688 37.136719 236.765625 L 44.054688 235.324219 C 44.195312 235.304688 44.273438 235.183594 44.253906 235.085938 C 44.234375 234.984375 44.113281 234.902344 43.972656 234.925781 L 37.054688 236.367188 C 36.914062 236.40625 36.773438 236.324219 36.753906 236.207031 L 36.753906 236.1875 C 36.734375 236.066406 36.835938 235.945312 36.976562 235.90625 L 43.894531 234.464844 C 44.035156 234.445312 44.113281 234.324219 44.09375 234.222656 C 44.074219 234.101562 43.953125 234.042969 43.8125 234.0625 L 36.894531 235.503906 C 36.753906 235.542969 36.613281 235.464844 36.59375 235.34375 L 36.59375 235.324219 C 36.574219 235.203125 36.675781 235.085938 36.816406 235.042969 L 43.734375 233.601562 C 43.875 233.582031 43.953125 233.460938 43.933594 233.363281 C 43.914062 233.242188 43.792969 233.183594 43.652344 233.203125 L 36.734375 234.644531 C 36.59375 234.683594 36.453125 234.605469 36.433594 234.484375 L 36.433594 234.464844 C 36.414062 234.34375 36.515625 234.222656 36.65625 234.183594 L 43.574219 232.742188 C 43.714844 232.722656 43.792969 232.601562 43.773438 232.5 C 43.753906 232.382812 43.632812 232.320312 43.492188 232.339844 L 36.574219 233.78125 C 36.433594 233.824219 36.292969 233.742188 36.273438 233.621094 L 36.273438 233.601562 C 36.253906 233.480469 36.355469 233.363281 36.496094 233.320312 L 43.414062 231.878906 C 43.554688 231.859375 43.632812 231.738281 43.613281 231.640625 C 43.59375 231.519531 43.472656 231.460938 43.332031 231.480469 L 36.414062 232.921875 C 36.273438 232.960938 36.132812 232.882812 36.113281 232.761719 L 36.113281 232.742188 C 36.09375 232.621094 36.195312 232.5 36.335938 232.460938 L 43.253906 231.019531 C 43.390625 231 43.472656 230.878906 43.453125 230.777344 C 43.433594 230.660156 43.3125 230.597656 43.171875 230.617188 L 36.253906 232.0625 C 36.113281 232.101562 35.972656 232.019531 35.953125 231.902344 L 35.953125 231.878906 C 35.933594 231.761719 36.035156 231.640625 36.171875 231.601562 L 43.089844 230.160156 C 43.230469 230.136719 43.3125 230.019531 43.292969 229.917969 C 43.273438 229.796875 43.152344 229.738281 43.011719 229.757812 L 36.09375 231.199219 C 35.953125 231.238281 35.8125 231.160156 35.792969 231.039062 L 35.792969 231.019531 C 35.773438 230.898438 35.875 230.777344 36.011719 230.738281 L 42.929688 229.296875 C 43.070312 229.277344 43.152344 229.15625 43.132812 229.058594 C 43.113281 228.9375 42.992188 228.875 42.851562 228.898438 L 35.933594 230.339844 C 35.792969 230.378906 35.652344 230.296875 35.632812 230.179688 L 35.632812 230.160156 C 35.613281 230.039062 35.710938 229.917969 35.851562 229.878906 L 42.769531 228.4375 C 42.910156 228.417969 42.992188 228.296875 42.972656 228.195312 C 42.953125 228.097656 42.832031 228.015625 42.691406 228.035156 L 35.773438 229.476562 C 35.632812 229.515625 35.492188 229.4375 35.472656 229.316406 L 35.472656 229.296875 C 35.453125 229.175781 35.550781 229.058594 35.691406 229.015625 L 42.609375 227.574219 C 42.75 227.554688 42.832031 227.433594 42.8125 227.335938 C 42.789062 227.214844 42.671875 227.15625 42.53125 227.175781 L 35.613281 228.617188 C 35.472656 228.65625 35.332031 228.578125 35.3125 228.457031 L 35.3125 228.4375 C 35.292969 228.316406 35.390625 228.195312 35.53125 228.15625 L 42.449219 226.714844 C 42.589844 226.695312 42.671875 226.574219 42.652344 226.472656 C 42.628906 226.355469 42.511719 226.292969 42.371094 226.3125 L 35.453125 227.753906 C 35.3125 227.796875 35.171875 227.714844 35.152344 227.59375 L 35.152344 227.574219 C 35.132812 227.453125 35.230469 227.335938 35.371094 227.292969 L 42.289062 225.851562 C 42.429688 225.832031 42.511719 225.714844 42.488281 225.613281 C 42.46875 225.511719 42.351562 225.433594 42.210938 225.453125 L 35.292969 226.894531 C 35.152344 226.933594 35.011719 226.855469 34.992188 226.734375 L 34.992188 226.714844 C 34.972656 226.59375 35.070312 226.472656 35.210938 226.433594 L 42.128906 224.992188 C 42.269531 224.972656 42.351562 224.851562 42.328125 224.75 C 42.308594 224.632812 42.1875 224.570312 42.050781 224.589844 L 35.132812 226.035156 C 34.992188 226.074219 34.851562 225.992188 34.832031 225.875 L 34.832031 225.851562 C 34.808594 225.734375 34.910156 225.613281 35.050781 225.574219 L 41.96875 224.132812 C 42.109375 224.109375 42.1875 223.992188 42.167969 223.890625 C 42.148438 223.769531 42.027344 223.710938 41.886719 223.730469 L 34.972656 225.171875 C 34.832031 225.210938 34.691406 225.132812 34.671875 225.011719 L 34.671875 224.992188 C 34.648438 224.871094 34.75 224.75 34.890625 224.710938 L 41.808594 223.269531 C 41.949219 223.25 42.027344 223.128906 42.007812 223.03125 C 41.988281 222.910156 41.867188 222.847656 41.726562 222.871094 L 34.808594 224.3125 C 34.671875 224.351562 34.53125 224.269531 34.507812 224.152344 L 34.507812 224.132812 C 34.488281 224.011719 34.589844 223.890625 34.730469 223.851562 L 41.648438 222.410156 C 41.789062 222.390625 41.867188 222.269531 41.847656 222.167969 C 41.828125 222.046875 41.707031 221.988281 41.566406 222.007812 L 34.648438 223.449219 C 34.507812 223.492188 34.371094 223.410156 34.347656 223.289062 L 34.347656 223.269531 C 34.328125 223.148438 34.429688 223.03125 34.570312 222.988281 L 41.488281 221.546875 C 41.628906 221.527344 41.707031 221.40625 41.6875 221.308594 C 41.667969 221.1875 41.546875 221.128906 41.40625 221.148438 L 34.488281 222.589844 C 34.347656 222.628906 34.207031 222.550781 34.1875 222.429688 L 34.1875 222.410156 C 34.167969 222.289062 34.269531 222.167969 34.410156 222.128906 L 41.328125 220.6875 C 41.46875 220.667969 41.546875 220.546875 41.527344 220.445312 C 41.507812 220.347656 41.386719 220.265625 41.246094 220.285156 L 34.328125 221.726562 C 34.1875 221.769531 34.046875 221.6875 34.027344 221.566406 L 34.027344 221.546875 C 34.007812 221.429688 34.109375 221.308594 34.25 221.265625 L 41.167969 219.824219 C 41.308594 219.804688 41.386719 219.6875 41.367188 219.585938 C 41.347656 219.464844 41.226562 219.40625 41.085938 219.425781 L 34.167969 220.867188 C 34.027344 220.90625 33.886719 220.828125 33.867188 220.707031 L 33.867188 220.6875 C 33.847656 220.566406 33.949219 220.445312 34.089844 220.40625 L 41.007812 218.964844 C 41.148438 218.945312 41.226562 218.824219 41.207031 218.722656 C 41.1875 218.625 41.066406 218.542969 40.925781 218.5625 L 34.007812 220.007812 C 33.867188 220.046875 33.726562 219.964844 33.707031 219.847656 L 33.707031 219.824219 C 33.6875 219.707031 33.789062 219.585938 33.929688 219.546875 L 40.847656 218.105469 C 40.988281 218.082031 41.066406 217.964844 41.046875 217.863281 C 41.027344 217.761719 40.90625 217.683594 40.765625 217.703125 L 33.847656 219.144531 C 33.707031 219.183594 33.566406 219.105469 33.546875 218.984375 L 33.546875 218.964844 C 33.527344 218.84375 33.628906 218.722656 33.769531 218.683594 L 40.6875 217.242188 C 40.824219 217.222656 40.90625 217.101562 40.886719 217.003906 C 40.867188 216.882812 40.746094 216.820312 40.605469 216.84375 L 33.6875 218.285156 C 33.546875 218.324219 33.40625 218.242188 33.386719 218.125 C 33.367188 218.003906 33.46875 217.882812 33.605469 217.84375 L 40.085938 216.5 C 40.464844 216.421875 40.726562 216.101562 40.644531 215.78125 C 40.585938 215.480469 40.265625 215.300781 39.902344 215.339844 L 33.566406 216.101562 C 30.179688 216.5 27.753906 219.304688 28.332031 222.089844 Z M 33.105469 248.28125 " fill-opacity="1" fill-rule="nonzero"/><path fill="#000000" d="M 31.941406 269.945312 C 32.625 268.503906 34.269531 267.582031 33.746094 266.5625 C 33.066406 265.21875 31.460938 267.082031 29.796875 266.800781 C 29.597656 266.640625 29.417969 266.503906 29.195312 266.363281 C 29.175781 266.34375 29.15625 266.34375 29.136719 266.320312 C 26.949219 264.921875 25.324219 262.796875 24.664062 260.273438 L 22.476562 251.882812 C 22.097656 250.441406 22.117188 248.921875 22.5 247.5 C 22.339844 247.5 22.175781 247.5 22.015625 247.519531 C 20.695312 247.621094 19.390625 247.238281 18.347656 246.457031 L 22.058594 258.191406 C 23.101562 261.457031 22.4375 265.039062 20.234375 267.664062 C 19.792969 268.183594 19.410156 268.804688 19.128906 269.484375 C 17.925781 272.429688 18.96875 275.894531 21.617188 277.675781 C 25.085938 280.019531 29.757812 278.738281 31.582031 275.050781 C 32.402344 273.429688 32.484375 271.589844 31.941406 269.945312 Z M 23.101562 276.472656 C 20.652344 275.171875 19.710938 272.128906 21.015625 269.6875 C 22.316406 267.242188 25.367188 266.300781 27.8125 267.605469 C 30.257812 268.90625 31.199219 271.949219 29.898438 274.390625 C 28.59375 276.835938 25.546875 277.777344 23.101562 276.472656 Z M 23.101562 276.472656 " fill-opacity="1" fill-rule="nonzero"/><g clip-path="url(#2332d7834c)"><path fill="#000000" d="M 8.160156 214.359375 L 12.875 229.238281 L 22.296875 238.429688 L 9.125 213.957031 C 8.824219 213.398438 7.960938 213.757812 8.160156 214.359375 Z M 8.160156 214.359375 " fill-opacity="1" fill-rule="nonzero"/></g><path fill="#000000" d="M 0.359375 219.746094 L 17.828125 244.675781 C 18.75 245.996094 20.3125 246.738281 21.917969 246.597656 C 24.222656 246.417969 26.507812 247.179688 28.234375 248.699219 L 34.75 254.425781 C 36.695312 256.148438 37.878906 258.550781 38.140625 261.136719 C 38.140625 261.15625 38.140625 261.195312 38.140625 261.214844 C 38.519531 264.601562 41.449219 267.222656 44.855469 267.261719 C 45.519531 267.261719 46.160156 267.183594 46.761719 267.003906 C 48.226562 266.601562 49.808594 267.082031 50.851562 268.183594 C 51.652344 269.046875 52.375 269.546875 52.957031 269.367188 C 53.78125 269.105469 54 268.265625 52.296875 266.242188 C 51.394531 265.179688 51.050781 263.738281 51.453125 262.417969 C 51.714844 261.535156 51.8125 260.574219 51.695312 259.59375 C 51.3125 256.429688 48.707031 253.925781 45.519531 253.667969 C 44.777344 253.605469 44.054688 253.667969 43.351562 253.828125 C 40.023438 254.609375 36.515625 253.566406 34.066406 251.183594 L 1.164062 219.085938 C 0.703125 218.644531 0 219.226562 0.359375 219.746094 Z M 44.835938 255.449219 C 47.601562 255.390625 49.910156 257.589844 49.96875 260.355469 C 50.03125 263.117188 47.824219 265.421875 45.058594 265.480469 C 42.289062 265.542969 39.984375 263.339844 39.921875 260.574219 C 39.863281 257.8125 42.070312 255.507812 44.835938 255.449219 Z M 21.296875 242.351562 C 21.535156 242.972656 21.234375 243.695312 20.613281 243.933594 C 19.992188 244.175781 19.269531 243.875 19.03125 243.253906 C 18.789062 242.632812 19.089844 241.914062 19.710938 241.671875 C 20.351562 241.410156 21.054688 241.710938 21.296875 242.351562 Z M 21.296875 242.351562 " fill-opacity="1" fill-rule="nonzero"/><g clip-path="url(#3d50123ba5)"><g clip-path="url(#7cbefcb907)"><g clip-path="url(#b52b73c1ed)"><g clip-path="url(#99f6950bf3)"><path fill="#000000" d="M 320.386719 280.09375 C 321.242188 278.726562 323.085938 276.109375 325.269531 273.003906 C 325.488281 272.691406 325.714844 272.371094 325.949219 272.042969 C 326.015625 272.253906 326.0625 272.382812 326.082031 272.433594 C 326.308594 273.140625 326.804688 274.121094 327.566406 274.820312 C 327.042969 275.21875 326.453125 275.683594 325.804688 276.195312 L 325.613281 276.34375 C 324.671875 277.085938 323.25 278.203125 322.007812 279.070312 C 321.28125 279.574219 320.757812 279.890625 320.386719 280.09375 Z M 320.386719 280.09375 " fill-opacity="1" fill-rule="nonzero"/></g></g></g></g><g clip-path="url(#16208b3726)"><g clip-path="url(#937a237db5)"><g clip-path="url(#d9e11f4982)"><g clip-path="url(#fc6a5f6c9d)"><path fill="#000000" d="M 332.183594 271.492188 C 332.179688 271.453125 332.179688 271.417969 332.183594 271.378906 C 332.175781 270.890625 332.097656 270.53125 332.089844 270.488281 C 332.085938 270.480469 332.085938 270.464844 332.082031 270.457031 C 331.625 267.847656 331.382812 265.210938 331.304688 262.597656 C 331.296875 262.535156 331.296875 262.472656 331.300781 262.410156 C 331.066406 253.382812 332.8125 244.644531 334.554688 238.308594 C 336.988281 229.453125 339.949219 223.234375 340 223.125 C 340.027344 223.070312 341.265625 220.394531 340.601562 218.101562 C 340.558594 217.957031 340.511719 217.820312 340.457031 217.679688 C 340 216.570312 339.074219 215.75 337.703125 215.246094 C 336.5 214.804688 335.390625 214.828125 334.40625 215.316406 C 332.171875 216.417969 331.191406 219.476562 331.183594 219.507812 C 325.71875 237.496094 324.949219 250.8125 325.269531 258.816406 C 325.613281 267.480469 327.273438 271.953125 327.289062 271.996094 C 327.292969 272.007812 327.296875 272.019531 327.300781 272.03125 C 327.335938 272.144531 328.222656 274.835938 330.128906 274.34375 C 331.839844 273.90625 332.171875 272.480469 332.183594 271.492188 Z M 335.515625 222.097656 C 334.800781 221.921875 334.195312 221.480469 333.816406 220.847656 C 333.6875 220.636719 333.589844 220.414062 333.523438 220.183594 C 333.390625 219.726562 333.378906 219.238281 333.496094 218.761719 C 333.671875 218.046875 334.117188 217.445312 334.746094 217.0625 C 335.371094 216.679688 336.113281 216.566406 336.828125 216.746094 C 338.300781 217.109375 339.207031 218.605469 338.84375 220.082031 C 338.484375 221.558594 336.988281 222.464844 335.515625 222.097656 Z M 328.992188 272.039062 C 328.296875 271.867188 327.785156 271.335938 327.597656 270.695312 C 327.507812 270.378906 327.496094 270.035156 327.578125 269.695312 C 327.832031 268.660156 328.878906 268.027344 329.914062 268.28125 C 330.949219 268.539062 331.582031 269.585938 331.328125 270.621094 C 331.074219 271.660156 330.027344 272.292969 328.992188 272.039062 Z M 328.992188 272.039062 " fill-opacity="1" fill-rule="nonzero"/></g></g></g></g><g clip-path="url(#ba5bd0b806)"><g clip-path="url(#ac3a989472)"><g clip-path="url(#1a7510e379)"><g clip-path="url(#611301b29d)"><path fill="#000000" d="M 333.265625 269.746094 C 332.878906 267.394531 332.664062 265.023438 332.589844 262.671875 C 334.230469 260.363281 335.238281 258.890625 336.125 257.589844 C 336.703125 256.742188 337.253906 255.933594 337.910156 255 C 338.707031 255.429688 339.507812 255.566406 340.296875 255.410156 C 341.828125 255.097656 342.722656 253.753906 342.820312 253.605469 L 359.378906 228.753906 C 359.679688 230.324219 358.867188 231.941406 358.765625 232.132812 C 358.089844 233.148438 339.050781 261.695312 333.265625 269.746094 Z M 333.265625 269.746094 " fill-opacity="1" fill-rule="nonzero"/></g></g></g></g><g clip-path="url(#75ad3d1478)"><g clip-path="url(#fed5bc2705)"><g clip-path="url(#2d0e03b887)"><g clip-path="url(#39878aceae)"><path fill="#000000" d="M 341.738281 252.914062 C 341.742188 252.910156 341.746094 252.902344 341.75 252.898438 L 358.746094 227.386719 C 358.5 227.082031 358.1875 226.8125 357.808594 226.574219 C 354.828125 224.710938 352.910156 227.28125 352.832031 227.390625 C 348.796875 233.109375 342.28125 242.539062 341.890625 243.628906 C 341.867188 243.828125 341.839844 244.171875 341.804688 244.597656 C 341.597656 247.066406 341.324219 249.804688 340.65625 251.027344 C 340.542969 251.238281 340.148438 251.835938 338.660156 253.9375 C 339.136719 254.164062 339.59375 254.234375 340.03125 254.152344 C 341.074219 253.945312 341.730469 252.921875 341.738281 252.914062 Z M 350.402344 235.300781 C 350.277344 235.214844 350.191406 235.089844 350.152344 234.953125 C 350.101562 234.773438 350.128906 234.570312 350.242188 234.40625 L 354.070312 228.902344 C 354.273438 228.609375 354.671875 228.539062 354.960938 228.742188 C 355.253906 228.945312 355.324219 229.34375 355.125 229.636719 L 351.296875 235.140625 C 351.09375 235.433594 350.695312 235.503906 350.402344 235.300781 Z M 344.5 243.710938 C 344.375 243.625 344.292969 243.5 344.25 243.363281 C 344.199219 243.183594 344.226562 242.984375 344.339844 242.816406 L 348.167969 237.3125 C 348.371094 237.019531 348.769531 236.949219 349.058594 237.152344 C 349.351562 237.355469 349.421875 237.753906 349.21875 238.046875 L 345.394531 243.550781 C 345.191406 243.84375 344.792969 243.914062 344.5 243.710938 Z M 344.5 243.710938 " fill-opacity="1" fill-rule="nonzero"/></g></g></g></g><g clip-path="url(#079b15141b)"><g clip-path="url(#46547509ba)"><g clip-path="url(#8d6d51a604)"><g clip-path="url(#97e29fcbdb)"><path fill="#000000" d="M 335.820312 220.851562 C 335.03125 220.65625 334.550781 219.859375 334.742188 219.070312 C 334.933594 218.28125 335.734375 217.796875 336.519531 217.992188 C 337.050781 218.121094 337.441406 218.527344 337.582031 219.015625 C 337.652344 219.253906 337.664062 219.515625 337.597656 219.773438 C 337.40625 220.5625 336.605469 221.046875 335.820312 220.851562 Z M 335.820312 220.851562 " fill-opacity="1" fill-rule="nonzero"/></g></g></g></g><g clip-path="url(#724219d624)"><g clip-path="url(#87991a66e2)"><g clip-path="url(#c0350b67e1)"><g clip-path="url(#c0d0f3d808)"><path fill="#000000" d="M 329.296875 270.789062 C 328.953125 270.703125 328.738281 270.351562 328.824219 270.003906 C 328.90625 269.65625 329.261719 269.441406 329.605469 269.53125 C 329.839844 269.585938 330.011719 269.765625 330.074219 269.980469 C 330.105469 270.085938 330.109375 270.203125 330.082031 270.316406 C 329.996094 270.664062 329.644531 270.875 329.296875 270.789062 Z M 329.296875 270.789062 " fill-opacity="1" fill-rule="nonzero"/></g></g></g></g><g clip-path="url(#71f413a443)"><g clip-path="url(#0d608d9b10)"><g clip-path="url(#eae73e80d1)"><g clip-path="url(#be79a7e9ae)"><path fill="#000000" d="M 350.402344 235.300781 C 350.277344 235.214844 350.191406 235.089844 350.152344 234.953125 C 350.101562 234.773438 350.128906 234.570312 350.242188 234.40625 L 354.070312 228.902344 C 354.273438 228.609375 354.671875 228.539062 354.960938 228.742188 C 355.253906 228.945312 355.324219 229.34375 355.125 229.636719 L 351.296875 235.140625 C 351.09375 235.433594 350.695312 235.503906 350.402344 235.300781 Z M 350.402344 235.300781 " fill-opacity="1" fill-rule="nonzero"/></g></g></g></g><g clip-path="url(#75d3deaaf2)"><g clip-path="url(#c8a847e47c)"><g clip-path="url(#ca858a22ba)"><g clip-path="url(#4b3f8926dc)"><path fill="#000000" d="M 344.5 243.710938 C 344.375 243.625 344.292969 243.5 344.25 243.363281 C 344.199219 243.183594 344.226562 242.984375 344.339844 242.816406 L 348.167969 237.3125 C 348.371094 237.019531 348.769531 236.949219 349.058594 237.152344 C 349.351562 237.355469 349.421875 237.753906 349.21875 238.046875 L 345.394531 243.550781 C 345.191406 243.84375 344.792969 243.914062 344.5 243.710938 Z M 344.5 243.710938 " fill-opacity="1" fill-rule="nonzero"/></g></g></g></g><g fill="#000000" fill-opacity="1"><g transform="translate(84.677744, 228.489494)"><g><path d="M 15.03125 -15.765625 C 15.238281 -15.328125 15.472656 -14.757812 15.734375 -14.0625 C 15.992188 -13.375 16.171875 -12.484375 16.265625 -11.390625 C 16.367188 -10.304688 16.210938 -9.25 15.796875 -8.21875 C 14.921875 -6.101562 13.210938 -4.570312 10.671875 -3.625 C 7.578125 -2.46875 4.847656 -2.316406 2.484375 -3.171875 C 0.128906 -4.023438 -1.503906 -5.679688 -2.421875 -8.140625 C -3.347656 -10.597656 -3.191406 -12.929688 -1.953125 -15.140625 C -0.722656 -17.347656 1.378906 -19.007812 4.359375 -20.125 C 5.484375 -20.550781 6.601562 -20.84375 7.71875 -21 C 8.84375 -21.164062 9.804688 -21.195312 10.609375 -21.09375 L 12.125 -17.203125 L 11.953125 -17.140625 C 11.335938 -17.992188 10.601562 -18.640625 9.75 -19.078125 C 8.21875 -19.835938 6.523438 -19.867188 4.671875 -19.171875 C 2.828125 -18.484375 1.585938 -17.265625 0.953125 -15.515625 C 0.328125 -13.773438 0.421875 -11.816406 1.234375 -9.640625 C 2.046875 -7.472656 3.289062 -5.925781 4.96875 -5 C 6.65625 -4.070312 8.539062 -3.972656 10.625 -4.703125 C 12.851562 -5.535156 14.359375 -6.910156 15.140625 -8.828125 C 15.921875 -10.753906 15.859375 -12.9375 14.953125 -15.375 C 14.910156 -15.476562 14.867188 -15.582031 14.828125 -15.6875 Z M 15.03125 -15.765625 "/></g></g></g><g fill="#000000" fill-opacity="1"><g transform="translate(103.07826, 221.664044)"><g><path d="M 1.1875 -0.625 C 1.601562 -0.738281 1.910156 -0.984375 2.109375 -1.359375 C 2.304688 -1.734375 2.351562 -2.117188 2.25 -2.515625 L -1.625 -15.40625 C -1.769531 -15.800781 -2.023438 -16.097656 -2.390625 -16.296875 C -2.753906 -16.492188 -3.144531 -16.535156 -3.5625 -16.421875 L -3.859375 -16.328125 L -3.9375 -16.5625 L 3.125 -18.6875 L 3.1875 -18.453125 L 2.90625 -18.359375 C 2.507812 -18.242188 2.203125 -18 1.984375 -17.625 C 1.773438 -17.25 1.734375 -16.863281 1.859375 -16.46875 L 5.953125 -2.890625 L 9 -3.796875 C 10.132812 -4.140625 10.984375 -4.75 11.546875 -5.625 C 12.109375 -6.507812 12.40625 -7.609375 12.4375 -8.921875 L 12.65625 -9 L 13.015625 -3.921875 L 0.96875 -0.296875 L 0.890625 -0.53125 Z M 1.1875 -0.625 "/></g></g></g><g fill="#000000" fill-opacity="1"><g transform="translate(116.967991, 217.378132)"><g><path d="M 14.921875 -20.625 L 14.5 -20.53125 C 14.175781 -20.457031 13.914062 -20.285156 13.71875 -20.015625 C 13.519531 -19.753906 13.457031 -19.460938 13.53125 -19.140625 L 15.671875 -9.921875 C 16.117188 -7.984375 15.863281 -6.304688 14.90625 -4.890625 C 13.957031 -3.472656 12.425781 -2.519531 10.3125 -2.03125 C 7.820312 -1.457031 5.785156 -1.570312 4.203125 -2.375 C 2.628906 -3.175781 1.613281 -4.5625 1.15625 -6.53125 L -0.96875 -15.703125 C -1.039062 -16.054688 -1.222656 -16.316406 -1.515625 -16.484375 C -1.816406 -16.648438 -2.140625 -16.691406 -2.484375 -16.609375 L -2.875 -16.515625 L -2.9375 -16.75 L 3.875 -18.328125 L 3.9375 -18.09375 L 3.5625 -18 C 3.21875 -17.925781 2.953125 -17.753906 2.765625 -17.484375 C 2.578125 -17.222656 2.515625 -16.921875 2.578125 -16.578125 L 4.65625 -7.5625 C 5.039062 -5.882812 5.753906 -4.648438 6.796875 -3.859375 C 7.847656 -3.078125 9.085938 -2.851562 10.515625 -3.1875 C 11.941406 -3.519531 12.96875 -4.238281 13.59375 -5.34375 C 14.226562 -6.457031 14.367188 -7.804688 14.015625 -9.390625 L 11.859375 -18.71875 C 11.773438 -19.0625 11.585938 -19.304688 11.296875 -19.453125 C 11.003906 -19.609375 10.6875 -19.648438 10.34375 -19.578125 L 9.96875 -19.484375 L 9.90625 -19.71875 L 14.859375 -20.859375 Z M 14.921875 -20.625 "/></g></g></g><g fill="#000000" fill-opacity="1"><g transform="translate(135.968639, 213.036618)"><g><path d="M 8.609375 -1.375 L 1 -0.15625 L 0.953125 -0.40625 L 1.265625 -0.453125 C 1.679688 -0.523438 2.015625 -0.722656 2.265625 -1.046875 C 2.523438 -1.378906 2.628906 -1.757812 2.578125 -2.1875 L 0.453125 -15.5 C 0.367188 -15.914062 0.15625 -16.242188 -0.1875 -16.484375 C -0.53125 -16.734375 -0.910156 -16.820312 -1.328125 -16.75 L -1.640625 -16.703125 L -1.6875 -16.921875 L 5.28125 -18.03125 C 7.125 -18.332031 8.648438 -18.238281 9.859375 -17.75 C 11.066406 -17.257812 11.785156 -16.320312 12.015625 -14.9375 C 12.117188 -14.226562 12.066406 -13.582031 11.859375 -13 C 11.484375 -11.925781 10.742188 -11.234375 9.640625 -10.921875 C 10.878906 -11.003906 11.960938 -10.703125 12.890625 -10.015625 C 13.828125 -9.335938 14.394531 -8.375 14.59375 -7.125 C 14.832031 -5.625 14.410156 -4.375 13.328125 -3.375 C 12.242188 -2.375 10.671875 -1.707031 8.609375 -1.375 Z M 8.234375 -14 C 7.859375 -16.238281 6.65625 -17.195312 4.625 -16.875 L 3.9375 -16.765625 L 6.28125 -2.125 L 7.375 -2.296875 C 7.394531 -2.304688 7.410156 -2.3125 7.421875 -2.3125 C 8.515625 -2.488281 9.335938 -2.953125 9.890625 -3.703125 C 10.453125 -4.453125 10.628906 -5.46875 10.421875 -6.75 C 10.273438 -7.664062 9.96875 -8.382812 9.5 -8.90625 C 8.632812 -9.914062 7.414062 -10.289062 5.84375 -10.03125 L 5.8125 -10.25 C 6.632812 -10.382812 7.285156 -10.757812 7.765625 -11.375 C 8.242188 -12 8.398438 -12.875 8.234375 -14 Z M 8.234375 -14 "/></g></g></g><g fill="#000000" fill-opacity="1"><g transform="translate(151.722512, 210.520656)"><g><path d="M 1.296875 -0.375 C 1.710938 -0.414062 2.054688 -0.597656 2.328125 -0.921875 C 2.597656 -1.253906 2.722656 -1.625 2.703125 -2.03125 L 1.359375 -15.484375 C 1.253906 -16.054688 0.945312 -16.453125 0.4375 -16.671875 C 0.175781 -16.785156 -0.078125 -16.828125 -0.328125 -16.796875 L -0.640625 -16.765625 L -0.65625 -17 L 8.59375 -17.921875 C 9.09375 -17.972656 9.632812 -18.078125 10.21875 -18.234375 C 10.800781 -18.390625 11.207031 -18.53125 11.4375 -18.65625 L 11.859375 -14.421875 L 11.625 -14.390625 L 11.59375 -14.6875 C 11.519531 -15.40625 11.25 -15.960938 10.78125 -16.359375 C 10.3125 -16.765625 9.710938 -16.945312 8.984375 -16.90625 L 4.921875 -16.5 L 5.625 -9.46875 L 8.8125 -9.796875 C 9.40625 -9.867188 9.875 -10.125 10.21875 -10.5625 C 10.5625 -11 10.707031 -11.507812 10.65625 -12.09375 L 10.625 -12.296875 L 10.859375 -12.3125 L 11.421875 -6.734375 L 11.1875 -6.71875 L 11.15625 -6.921875 C 11.082031 -7.722656 10.707031 -8.285156 10.03125 -8.609375 C 9.6875 -8.753906 9.316406 -8.816406 8.921875 -8.796875 L 5.71875 -8.46875 L 6.390625 -1.6875 L 9.546875 -2 C 10.722656 -2.125 11.675781 -2.5625 12.40625 -3.3125 C 13.144531 -4.0625 13.644531 -5.070312 13.90625 -6.34375 L 14.140625 -6.375 L 13.53125 -1.34375 L 1.015625 -0.09375 L 0.984375 -0.34375 Z M 1.296875 -0.375 "/></g></g></g><g fill="#000000" fill-opacity="1"><g transform="translate(166.711641, 209.121551)"><g/></g></g><g fill="#000000" fill-opacity="1"><g transform="translate(172.447875, 208.603957)"><g><path d="M 9.671875 -17.078125 C 12.535156 -17.097656 14.804688 -16.351562 16.484375 -14.84375 C 18.171875 -13.34375 19.023438 -11.28125 19.046875 -8.65625 C 19.066406 -6.039062 18.25 -3.960938 16.59375 -2.421875 C 14.945312 -0.890625 12.691406 -0.113281 9.828125 -0.09375 L 1.015625 -0.015625 L 1.015625 -0.265625 L 1.328125 -0.265625 C 1.753906 -0.265625 2.113281 -0.414062 2.40625 -0.71875 C 2.695312 -1.019531 2.851562 -1.378906 2.875 -1.796875 L 2.75 -15.390625 C 2.695312 -15.773438 2.519531 -16.097656 2.21875 -16.359375 C 1.925781 -16.628906 1.578125 -16.765625 1.171875 -16.765625 L 0.859375 -16.765625 L 0.859375 -17 Z M 9.5 -1.109375 C 10.664062 -1.117188 11.671875 -1.429688 12.515625 -2.046875 C 13.359375 -2.660156 14 -3.53125 14.4375 -4.65625 C 14.882812 -5.789062 15.101562 -7.117188 15.09375 -8.640625 C 15.070312 -10.929688 14.546875 -12.742188 13.515625 -14.078125 C 12.492188 -15.410156 11.113281 -16.070312 9.375 -16.0625 L 6.390625 -16.03125 L 6.515625 -1.078125 Z M 9.5 -1.109375 "/></g></g></g><g fill="#000000" fill-opacity="1"><g transform="translate(192.09388, 208.454418)"><g><path d="M 17.90625 0.84375 L 18.125 0.859375 L 18.109375 1.109375 L 10.375 0.640625 L 10.390625 0.390625 L 10.609375 0.40625 C 10.960938 0.425781 11.226562 0.332031 11.40625 0.125 C 11.59375 -0.0703125 11.691406 -0.269531 11.703125 -0.46875 C 11.722656 -0.664062 11.695312 -0.863281 11.625 -1.0625 L 10.625 -4.09375 L 4.953125 -4.453125 L 3.515625 -1.5625 C 3.421875 -1.351562 3.363281 -1.15625 3.34375 -0.96875 C 3.332031 -0.78125 3.40625 -0.570312 3.5625 -0.34375 C 3.726562 -0.125 3.988281 -0.00390625 4.34375 0.015625 L 4.546875 0.03125 L 4.53125 0.28125 L -0.640625 -0.046875 L -0.625 -0.296875 L -0.421875 -0.28125 C -0.046875 -0.257812 0.332031 -0.347656 0.71875 -0.546875 C 1.113281 -0.742188 1.441406 -1.0625 1.703125 -1.5 L 8.078125 -13.828125 C 8.941406 -15.367188 9.410156 -16.398438 9.484375 -16.921875 L 9.703125 -16.90625 L 15.9375 -0.6875 C 16.144531 -0.195312 16.425781 0.171875 16.78125 0.421875 C 17.132812 0.679688 17.507812 0.820312 17.90625 0.84375 Z M 5.421875 -5.453125 L 10.28125 -5.15625 L 8.28125 -11.265625 Z M 5.421875 -5.453125 "/></g></g></g><g fill="#000000" fill-opacity="1"><g transform="translate(209.145835, 209.622034)"><g/></g></g><g fill="#000000" fill-opacity="1"><g transform="translate(214.914172, 210.099812)"><g><path d="M 25.671875 -19.375 C 26.054688 -19.3125 26.390625 -19.25 26.671875 -19.1875 L 26.625 -18.953125 C 25.625 -19.054688 24.734375 -18.941406 23.953125 -18.609375 C 23.054688 -18.242188 22.40625 -17.875 22 -17.5 C 21.601562 -17.132812 21.28125 -16.832031 21.03125 -16.59375 C 20.789062 -16.351562 20.546875 -16.070312 20.296875 -15.75 C 19.921875 -15.21875 19.5625 -14.703125 19.21875 -14.203125 L 10.671875 -1.109375 C 9.679688 0.347656 9.117188 1.335938 8.984375 1.859375 L 8.796875 1.828125 L 3.890625 -14.953125 C 3.710938 -15.429688 3.457031 -15.816406 3.125 -16.109375 C 2.789062 -16.398438 2.429688 -16.570312 2.046875 -16.625 L 1.859375 -16.65625 L 1.890625 -16.890625 L 9.515625 -15.734375 L 9.484375 -15.5 L 9.296875 -15.53125 C 8.941406 -15.582031 8.664062 -15.507812 8.46875 -15.3125 C 8.269531 -15.125 8.15625 -14.929688 8.125 -14.734375 C 8.09375 -14.546875 8.097656 -14.351562 8.140625 -14.15625 L 10.71875 -3.625 L 17.4375 -14.46875 C 18.457031 -16.132812 19.539062 -17.335938 20.6875 -18.078125 C 22.375 -19.191406 24.035156 -19.625 25.671875 -19.375 Z M 25.671875 -19.375 "/></g></g></g><g fill="#000000" fill-opacity="1"><g transform="translate(231.832349, 212.7519)"><g><path d="M 1.34375 0.015625 C 1.757812 0.0976562 2.144531 0.0234375 2.5 -0.203125 C 2.851562 -0.441406 3.082031 -0.757812 3.1875 -1.15625 L 5.859375 -14.34375 C 5.921875 -14.78125 5.835938 -15.171875 5.609375 -15.515625 C 5.378906 -15.859375 5.054688 -16.070312 4.640625 -16.15625 L 4.34375 -16.21875 L 4.390625 -16.4375 L 11.609375 -14.96875 L 11.546875 -14.75 L 11.265625 -14.8125 C 10.847656 -14.894531 10.457031 -14.820312 10.09375 -14.59375 C 9.738281 -14.375 9.519531 -14.050781 9.4375 -13.625 L 6.765625 -0.4375 C 6.679688 -0.03125 6.753906 0.347656 6.984375 0.703125 C 7.222656 1.054688 7.550781 1.273438 7.96875 1.359375 L 8.25 1.421875 L 8.21875 1.671875 L 1 0.203125 L 1.046875 -0.046875 Z M 1.34375 0.015625 "/></g></g></g><g fill="#000000" fill-opacity="1"><g transform="translate(240.740868, 214.491274)"><g><path d="M 1.34375 0.078125 C 1.757812 0.179688 2.144531 0.128906 2.5 -0.078125 C 2.863281 -0.296875 3.109375 -0.609375 3.234375 -1.015625 L 6.515625 -14.0625 C 6.585938 -14.457031 6.519531 -14.835938 6.3125 -15.203125 C 6.101562 -15.578125 5.789062 -15.816406 5.375 -15.921875 L 5.078125 -16 L 5.125 -16.21875 L 12.28125 -14.421875 L 12.21875 -14.203125 L 11.921875 -14.28125 C 11.523438 -14.382812 11.132812 -14.320312 10.75 -14.09375 C 10.375 -13.875 10.140625 -13.566406 10.046875 -13.171875 L 6.578125 0.578125 L 9.65625 1.34375 C 10.8125 1.632812 11.859375 1.550781 12.796875 1.09375 C 13.734375 0.632812 14.546875 -0.148438 15.234375 -1.265625 L 15.46875 -1.203125 L 13.1875 3.3125 L 0.984375 0.25 L 1.046875 0 Z M 1.34375 0.078125 "/></g></g></g><g fill="#000000" fill-opacity="1"><g transform="translate(254.893549, 218.040902)"><g><path d="M 1.34375 0.15625 C 1.75 0.289062 2.140625 0.257812 2.515625 0.0625 C 2.890625 -0.132812 3.148438 -0.429688 3.296875 -0.828125 L 7.296875 -13.671875 C 7.398438 -14.066406 7.351562 -14.453125 7.15625 -14.828125 C 6.96875 -15.203125 6.671875 -15.457031 6.265625 -15.59375 L 5.96875 -15.6875 L 6.03125 -15.921875 L 13.078125 -13.71875 L 13 -13.484375 L 12.703125 -13.578125 C 12.304688 -13.703125 11.914062 -13.664062 11.53125 -13.46875 C 11.144531 -13.269531 10.890625 -12.972656 10.765625 -12.578125 L 6.546875 0.953125 L 9.578125 1.890625 C 10.710938 2.242188 11.757812 2.21875 12.71875 1.8125 C 13.6875 1.40625 14.546875 0.660156 15.296875 -0.421875 L 15.515625 -0.34375 L 12.96875 4.046875 L 0.96875 0.296875 L 1.046875 0.0625 Z M 1.34375 0.15625 "/></g></g></g><g fill="#000000" fill-opacity="1"><g transform="translate(268.809147, 222.337774)"><g><path d="M 16.84375 6.140625 L 17.046875 6.21875 L 16.953125 6.453125 L 9.703125 3.703125 L 9.796875 3.46875 L 10.015625 3.546875 C 10.335938 3.671875 10.613281 3.660156 10.84375 3.515625 C 11.082031 3.378906 11.238281 3.21875 11.3125 3.03125 C 11.382812 2.84375 11.414062 2.648438 11.40625 2.453125 L 11.359375 -0.75 L 6.046875 -2.78125 L 3.8125 -0.4375 C 3.65625 -0.269531 3.539062 -0.0976562 3.46875 0.078125 C 3.40625 0.253906 3.414062 0.46875 3.5 0.71875 C 3.59375 0.976562 3.8125 1.175781 4.15625 1.3125 L 4.34375 1.390625 L 4.25 1.625 L -0.59375 -0.234375 L -0.5 -0.46875 L -0.3125 -0.390625 C 0.03125 -0.253906 0.414062 -0.222656 0.84375 -0.296875 C 1.28125 -0.378906 1.6875 -0.582031 2.0625 -0.90625 L 11.84375 -10.796875 C 13.113281 -12.015625 13.863281 -12.859375 14.09375 -13.328125 L 14.296875 -13.25 L 15.421875 4.09375 C 15.472656 4.613281 15.628906 5.050781 15.890625 5.40625 C 16.148438 5.757812 16.46875 6.003906 16.84375 6.140625 Z M 6.8125 -3.59375 L 11.34375 -1.875 L 11.265625 -8.28125 Z M 6.8125 -3.59375 "/></g></g></g><g fill="#000000" fill-opacity="1"><g transform="translate(42.866606, 185.720689)"><g><path d="M 5.5625 -7.40625 C 6.15625 -6.125 6.253906 -4.96875 5.859375 -3.9375 C 5.472656 -2.914062 4.632812 -2.109375 3.34375 -1.515625 L 0.84375 -0.375 L -2.6875 -8.125 L -0.015625 -9.34375 C 1.234375 -9.914062 2.335938 -10.035156 3.296875 -9.703125 C 4.265625 -9.378906 5.019531 -8.613281 5.5625 -7.40625 Z M 3.421875 -6.359375 C 3.097656 -7.066406 2.71875 -7.523438 2.28125 -7.734375 C 1.84375 -7.953125 1.34375 -7.929688 0.78125 -7.671875 L 0.15625 -7.390625 L 2.140625 -3.046875 L 2.609375 -3.265625 C 3.242188 -3.554688 3.625 -3.953125 3.75 -4.453125 C 3.875 -4.960938 3.765625 -5.597656 3.421875 -6.359375 Z M 3.421875 -6.359375 "/></g></g><g transform="translate(50.823051, 182.093397)"><g><path d="M 3.65625 -1.546875 C 2.664062 -1.097656 1.769531 -1.007812 0.96875 -1.28125 C 0.164062 -1.5625 -0.453125 -2.1875 -0.890625 -3.15625 C -1.359375 -4.175781 -1.457031 -5.070312 -1.1875 -5.84375 C -0.925781 -6.625 -0.320312 -7.234375 0.625 -7.671875 C 1.539062 -8.078125 2.347656 -8.15625 3.046875 -7.90625 C 3.753906 -7.664062 4.3125 -7.109375 4.71875 -6.234375 L 5.140625 -5.3125 L 1.4375 -3.609375 C 1.613281 -3.273438 1.851562 -3.0625 2.15625 -2.96875 C 2.46875 -2.882812 2.828125 -2.9375 3.234375 -3.125 C 3.597656 -3.289062 3.914062 -3.476562 4.1875 -3.6875 C 4.457031 -3.894531 4.738281 -4.160156 5.03125 -4.484375 L 5.703125 -3 C 5.460938 -2.6875 5.179688 -2.421875 4.859375 -2.203125 C 4.546875 -1.992188 4.144531 -1.773438 3.65625 -1.546875 Z M 1.359375 -6.28125 C 1.109375 -6.164062 0.929688 -5.992188 0.828125 -5.765625 C 0.734375 -5.546875 0.753906 -5.257812 0.890625 -4.90625 L 2.65625 -5.71875 C 2.519531 -6.019531 2.332031 -6.21875 2.09375 -6.3125 C 1.851562 -6.40625 1.609375 -6.394531 1.359375 -6.28125 Z M 1.359375 -6.28125 "/></g></g><g transform="translate(57.524888, 179.038074)"><g><path d="M 4.5 -4.28125 C 4.789062 -3.632812 4.789062 -3.050781 4.5 -2.53125 C 4.21875 -2.007812 3.664062 -1.5625 2.84375 -1.1875 C 2.40625 -0.988281 2.007812 -0.835938 1.65625 -0.734375 C 1.3125 -0.628906 0.9375 -0.5625 0.53125 -0.53125 L -0.21875 -2.1875 C 0.164062 -2.1875 0.570312 -2.222656 1 -2.296875 C 1.425781 -2.378906 1.785156 -2.488281 2.078125 -2.625 C 2.523438 -2.832031 2.703125 -3.039062 2.609375 -3.25 C 2.566406 -3.351562 2.460938 -3.421875 2.296875 -3.453125 C 2.128906 -3.484375 1.695312 -3.476562 1 -3.4375 C 0.34375 -3.414062 -0.160156 -3.5 -0.515625 -3.6875 C -0.867188 -3.875 -1.148438 -4.1875 -1.359375 -4.625 C -1.609375 -5.175781 -1.585938 -5.707031 -1.296875 -6.21875 C -1.003906 -6.726562 -0.46875 -7.160156 0.3125 -7.515625 C 0.71875 -7.703125 1.113281 -7.828125 1.5 -7.890625 C 1.882812 -7.960938 2.300781 -8.003906 2.75 -8.015625 L 2.796875 -6.421875 C 2.460938 -6.421875 2.125 -6.394531 1.78125 -6.34375 C 1.4375 -6.289062 1.164062 -6.21875 0.96875 -6.125 C 0.632812 -5.96875 0.503906 -5.8125 0.578125 -5.65625 C 0.617188 -5.550781 0.710938 -5.488281 0.859375 -5.46875 C 1.015625 -5.445312 1.425781 -5.453125 2.09375 -5.484375 C 2.59375 -5.503906 2.984375 -5.476562 3.265625 -5.40625 C 3.546875 -5.34375 3.785156 -5.21875 3.984375 -5.03125 C 4.179688 -4.851562 4.351562 -4.601562 4.5 -4.28125 Z M 4.5 -4.28125 "/></g></g><g transform="translate(63.305619, 176.402676)"><g><path d="M 2.625 -1.078125 C 2.195312 -0.878906 1.769531 -0.828125 1.34375 -0.921875 C 0.914062 -1.023438 0.503906 -1.269531 0.109375 -1.65625 C -0.285156 -2.050781 -0.625 -2.5625 -0.90625 -3.1875 C -1.351562 -4.164062 -1.503906 -5.019531 -1.359375 -5.75 C -1.210938 -6.488281 -0.800781 -7.015625 -0.125 -7.328125 C 0.207031 -7.472656 0.53125 -7.535156 0.84375 -7.515625 C 1.164062 -7.492188 1.5 -7.378906 1.84375 -7.171875 L 1.890625 -7.1875 C 1.617188 -7.613281 1.375 -8.066406 1.15625 -8.546875 L 0.421875 -10.15625 L 2.484375 -11.109375 L 6.25 -2.859375 L 4.6875 -2.140625 L 3.90625 -2.6875 L 3.84375 -2.65625 C 3.738281 -1.925781 3.332031 -1.398438 2.625 -1.078125 Z M 2.71875 -3.09375 C 3.050781 -3.238281 3.238281 -3.445312 3.28125 -3.71875 C 3.332031 -4 3.257812 -4.351562 3.0625 -4.78125 L 2.984375 -4.953125 C 2.742188 -5.484375 2.5 -5.828125 2.25 -5.984375 C 2 -6.140625 1.710938 -6.144531 1.390625 -6 C 1.117188 -5.875 0.960938 -5.644531 0.921875 -5.3125 C 0.890625 -4.988281 0.984375 -4.585938 1.203125 -4.109375 C 1.410156 -3.648438 1.644531 -3.332031 1.90625 -3.15625 C 2.164062 -2.988281 2.4375 -2.96875 2.71875 -3.09375 Z M 2.71875 -3.09375 "/></g></g><g transform="translate(70.277434, 173.224271)"><g><path d="M 3.65625 -1.546875 C 2.664062 -1.097656 1.769531 -1.007812 0.96875 -1.28125 C 0.164062 -1.5625 -0.453125 -2.1875 -0.890625 -3.15625 C -1.359375 -4.175781 -1.457031 -5.070312 -1.1875 -5.84375 C -0.925781 -6.625 -0.320312 -7.234375 0.625 -7.671875 C 1.539062 -8.078125 2.347656 -8.15625 3.046875 -7.90625 C 3.753906 -7.664062 4.3125 -7.109375 4.71875 -6.234375 L 5.140625 -5.3125 L 1.4375 -3.609375 C 1.613281 -3.273438 1.851562 -3.0625 2.15625 -2.96875 C 2.46875 -2.882812 2.828125 -2.9375 3.234375 -3.125 C 3.597656 -3.289062 3.914062 -3.476562 4.1875 -3.6875 C 4.457031 -3.894531 4.738281 -4.160156 5.03125 -4.484375 L 5.703125 -3 C 5.460938 -2.6875 5.179688 -2.421875 4.859375 -2.203125 C 4.546875 -1.992188 4.144531 -1.773438 3.65625 -1.546875 Z M 1.359375 -6.28125 C 1.109375 -6.164062 0.929688 -5.992188 0.828125 -5.765625 C 0.734375 -5.546875 0.753906 -5.257812 0.890625 -4.90625 L 2.65625 -5.71875 C 2.519531 -6.019531 2.332031 -6.21875 2.09375 -6.3125 C 1.851562 -6.40625 1.609375 -6.394531 1.359375 -6.28125 Z M 1.359375 -6.28125 "/></g></g></g><g fill="#000000" fill-opacity="1"><g transform="translate(295.426828, 172.147441)"><g><path d="M 5.953125 2.6875 L 0.328125 0.140625 L 0.953125 -1.234375 L 3.703125 -2.296875 C 4.503906 -2.617188 5.035156 -2.84375 5.296875 -2.96875 C 5.554688 -3.101562 5.75 -3.226562 5.875 -3.34375 C 6.007812 -3.46875 6.113281 -3.609375 6.1875 -3.765625 C 6.28125 -3.960938 6.285156 -4.148438 6.203125 -4.328125 C 6.117188 -4.515625 5.960938 -4.660156 5.734375 -4.765625 C 5.484375 -4.878906 5.203125 -4.921875 4.890625 -4.890625 C 4.578125 -4.859375 4.203125 -4.78125 3.765625 -4.65625 L 3.21875 -6.515625 C 3.789062 -6.703125 4.242188 -6.804688 4.578125 -6.828125 C 4.921875 -6.859375 5.269531 -6.84375 5.625 -6.78125 C 5.988281 -6.71875 6.367188 -6.597656 6.765625 -6.421875 C 7.265625 -6.191406 7.671875 -5.898438 7.984375 -5.546875 C 8.304688 -5.191406 8.5 -4.800781 8.5625 -4.375 C 8.632812 -3.945312 8.582031 -3.523438 8.40625 -3.109375 C 8.257812 -2.804688 8.085938 -2.546875 7.890625 -2.328125 C 7.703125 -2.109375 7.472656 -1.910156 7.203125 -1.734375 C 6.929688 -1.566406 6.601562 -1.398438 6.21875 -1.234375 C 5.832031 -1.078125 5.03125 -0.804688 3.8125 -0.421875 L 3.796875 -0.359375 L 6.734375 0.96875 Z M 5.953125 2.6875 "/></g></g><g transform="translate(301.792223, 175.014921)"><g><path d="M 7.734375 -1.171875 C 7.109375 0.203125 6.421875 1.101562 5.671875 1.53125 C 4.921875 1.957031 4.078125 1.957031 3.140625 1.53125 C 2.210938 1.113281 1.664062 0.46875 1.5 -0.40625 C 1.332031 -1.28125 1.546875 -2.378906 2.140625 -3.703125 C 2.753906 -5.078125 3.4375 -5.984375 4.1875 -6.421875 C 4.9375 -6.859375 5.785156 -6.863281 6.734375 -6.4375 C 7.660156 -6.019531 8.207031 -5.367188 8.375 -4.484375 C 8.539062 -3.597656 8.328125 -2.492188 7.734375 -1.171875 Z M 4.21875 -2.765625 C 3.820312 -1.878906 3.601562 -1.242188 3.5625 -0.859375 C 3.519531 -0.484375 3.628906 -0.238281 3.890625 -0.125 C 4.148438 -0.0078125 4.410156 -0.09375 4.671875 -0.375 C 4.929688 -0.664062 5.257812 -1.242188 5.65625 -2.109375 C 6.039062 -2.960938 6.253906 -3.585938 6.296875 -3.984375 C 6.347656 -4.390625 6.242188 -4.648438 5.984375 -4.765625 C 5.722656 -4.878906 5.460938 -4.796875 5.203125 -4.515625 C 4.941406 -4.234375 4.613281 -3.648438 4.21875 -2.765625 Z M 4.21875 -2.765625 "/></g></g><g transform="translate(308.157619, 177.8824)"><g><path d="M 5 2.25 L 2.875 1.296875 L 4.71875 -2.8125 C 4.945312 -3.3125 5.164062 -3.757812 5.375 -4.15625 C 5.164062 -4.070312 4.925781 -3.976562 4.65625 -3.875 L 3.4375 -3.5625 L 2.953125 -5.375 L 6.609375 -6.359375 L 8.5 -5.515625 Z M 5 2.25 "/></g></g><g transform="translate(314.523014, 180.74988)"><g><path d="M 1.109375 0.5 L 6.484375 -4.3125 L 3.109375 -5.828125 L 3.890625 -7.5625 L 9.5 -5.046875 L 8.953125 -3.8125 L 3.28125 1.46875 Z M 1.109375 0.5 "/></g></g></g></svg>